<svg width="133" height="138" viewBox="0 0 133 138" fill="none" xmlns="http://www.w3.org/2000/svg">
<rect width="133" height="138" rx="30" fill="#110F0F"/>
<path d="M37.4211 36L35.4291 32.58H34.1091V36H33.0171V27.636H35.7171C36.3491 27.636 36.8811 27.744 37.3131 27.96C37.7531 28.176 38.0811 28.468 38.2971 28.836C38.5131 29.204 38.6211 29.624 38.6211 30.096C38.6211 30.672 38.4531 31.18 38.1171 31.62C37.7891 32.06 37.2931 32.352 36.6291 32.496L38.7291 36H37.4211ZM34.1091 31.704H35.7171C36.3091 31.704 36.7531 31.56 37.0491 31.272C37.3451 30.976 37.4931 30.584 37.4931 30.096C37.4931 29.6 37.3451 29.216 37.0491 28.944C36.7611 28.672 36.3171 28.536 35.7171 28.536H34.1091V31.704ZM45.9098 32.46C45.9098 32.668 45.8978 32.888 45.8738 33.12H40.6178C40.6578 33.768 40.8778 34.276 41.2778 34.644C41.6858 35.004 42.1778 35.184 42.7538 35.184C43.2258 35.184 43.6178 35.076 43.9298 34.86C44.2498 34.636 44.4738 34.34 44.6018 33.972H45.7778C45.6018 34.604 45.2498 35.12 44.7218 35.52C44.1938 35.912 43.5378 36.108 42.7538 36.108C42.1298 36.108 41.5698 35.968 41.0738 35.688C40.5858 35.408 40.2018 35.012 39.9218 34.5C39.6418 33.98 39.5018 33.38 39.5018 32.7C39.5018 32.02 39.6378 31.424 39.9098 30.912C40.1818 30.4 40.5618 30.008 41.0498 29.736C41.5458 29.456 42.1138 29.316 42.7538 29.316C43.3778 29.316 43.9298 29.452 44.4098 29.724C44.8898 29.996 45.2578 30.372 45.5138 30.852C45.7778 31.324 45.9098 31.86 45.9098 32.46ZM44.7818 32.232C44.7818 31.816 44.6898 31.46 44.5058 31.164C44.3218 30.86 44.0698 30.632 43.7498 30.48C43.4378 30.32 43.0898 30.24 42.7058 30.24C42.1538 30.24 41.6818 30.416 41.2898 30.768C40.9058 31.12 40.6858 31.608 40.6298 32.232H44.7818ZM46.5352 32.688C46.5352 32.016 46.6712 31.428 46.9432 30.924C47.2152 30.412 47.5872 30.016 48.0592 29.736C48.5392 29.456 49.0712 29.316 49.6552 29.316C50.2312 29.316 50.7312 29.44 51.1552 29.688C51.5792 29.936 51.8952 30.248 52.1032 30.624V29.424H53.2072V36H52.1032V34.776C51.8872 35.16 51.5632 35.48 51.1312 35.736C50.7072 35.984 50.2112 36.108 49.6432 36.108C49.0592 36.108 48.5312 35.964 48.0592 35.676C47.5872 35.388 47.2152 34.984 46.9432 34.464C46.6712 33.944 46.5352 33.352 46.5352 32.688ZM52.1032 32.7C52.1032 32.204 52.0032 31.772 51.8032 31.404C51.6032 31.036 51.3312 30.756 50.9872 30.564C50.6512 30.364 50.2792 30.264 49.8712 30.264C49.4632 30.264 49.0912 30.36 48.7552 30.552C48.4192 30.744 48.1512 31.024 47.9512 31.392C47.7512 31.76 47.6512 32.192 47.6512 32.688C47.6512 33.192 47.7512 33.632 47.9512 34.008C48.1512 34.376 48.4192 34.66 48.7552 34.86C49.0912 35.052 49.4632 35.148 49.8712 35.148C50.2792 35.148 50.6512 35.052 50.9872 34.86C51.3312 34.66 51.6032 34.376 51.8032 34.008C52.0032 33.632 52.1032 33.196 52.1032 32.7ZM54.2366 32.688C54.2366 32.016 54.3726 31.428 54.6446 30.924C54.9166 30.412 55.2886 30.016 55.7606 29.736C56.2406 29.456 56.7766 29.316 57.3686 29.316C57.8806 29.316 58.3566 29.436 58.7966 29.676C59.2366 29.908 59.5726 30.216 59.8046 30.6V27.12H60.9086V36H59.8046V34.764C59.5886 35.156 59.2686 35.48 58.8446 35.736C58.4206 35.984 57.9246 36.108 57.3566 36.108C56.7726 36.108 56.2406 35.964 55.7606 35.676C55.2886 35.388 54.9166 34.984 54.6446 34.464C54.3726 33.944 54.2366 33.352 54.2366 32.688ZM59.8046 32.7C59.8046 32.204 59.7046 31.772 59.5046 31.404C59.3046 31.036 59.0326 30.756 58.6886 30.564C58.3526 30.364 57.9806 30.264 57.5726 30.264C57.1646 30.264 56.7926 30.36 56.4566 30.552C56.1206 30.744 55.8526 31.024 55.6526 31.392C55.4526 31.76 55.3526 32.192 55.3526 32.688C55.3526 33.192 55.4526 33.632 55.6526 34.008C55.8526 34.376 56.1206 34.66 56.4566 34.86C56.7926 35.052 57.1646 35.148 57.5726 35.148C57.9806 35.148 58.3526 35.052 58.6886 34.86C59.0326 34.66 59.3046 34.376 59.5046 34.008C59.7046 33.632 59.8046 33.196 59.8046 32.7ZM73.0452 29.304C73.5572 29.304 74.0132 29.412 74.4132 29.628C74.8132 29.836 75.1292 30.152 75.3612 30.576C75.5932 31 75.7092 31.516 75.7092 32.124V36H74.6292V32.28C74.6292 31.624 74.4652 31.124 74.1372 30.78C73.8172 30.428 73.3812 30.252 72.8292 30.252C72.2612 30.252 71.8092 30.436 71.4732 30.804C71.1372 31.164 70.9692 31.688 70.9692 32.376V36H69.8892V32.28C69.8892 31.624 69.7252 31.124 69.3972 30.78C69.0772 30.428 68.6412 30.252 68.0892 30.252C67.5212 30.252 67.0692 30.436 66.7332 30.804C66.3972 31.164 66.2292 31.688 66.2292 32.376V36H65.1372V29.424H66.2292V30.372C66.4452 30.028 66.7332 29.764 67.0932 29.58C67.4612 29.396 67.8652 29.304 68.3052 29.304C68.8572 29.304 69.3452 29.428 69.7692 29.676C70.1932 29.924 70.5092 30.288 70.7172 30.768C70.9012 30.304 71.2052 29.944 71.6292 29.688C72.0532 29.432 72.5252 29.304 73.0452 29.304ZM79.9605 36.108C79.3445 36.108 78.7845 35.968 78.2805 35.688C77.7845 35.408 77.3925 35.012 77.1045 34.5C76.8245 33.98 76.6845 33.38 76.6845 32.7C76.6845 32.028 76.8285 31.436 77.1165 30.924C77.4125 30.404 77.8125 30.008 78.3165 29.736C78.8205 29.456 79.3845 29.316 80.0085 29.316C80.6325 29.316 81.1965 29.456 81.7005 29.736C82.2045 30.008 82.6005 30.4 82.8885 30.912C83.1845 31.424 83.3325 32.02 83.3325 32.7C83.3325 33.38 83.1805 33.98 82.8765 34.5C82.5805 35.012 82.1765 35.408 81.6645 35.688C81.1525 35.968 80.5845 36.108 79.9605 36.108ZM79.9605 35.148C80.3525 35.148 80.7205 35.056 81.0645 34.872C81.4085 34.688 81.6845 34.412 81.8925 34.044C82.1085 33.676 82.2165 33.228 82.2165 32.7C82.2165 32.172 82.1125 31.724 81.9045 31.356C81.6965 30.988 81.4245 30.716 81.0885 30.54C80.7525 30.356 80.3885 30.264 79.9965 30.264C79.5965 30.264 79.2285 30.356 78.8925 30.54C78.5645 30.716 78.3005 30.988 78.1005 31.356C77.9005 31.724 77.8005 32.172 77.8005 32.7C77.8005 33.236 77.8965 33.688 78.0885 34.056C78.2885 34.424 78.5525 34.7 78.8805 34.884C79.2085 35.06 79.5685 35.148 79.9605 35.148ZM85.4523 30.492C85.6443 30.116 85.9163 29.824 86.2683 29.616C86.6283 29.408 87.0643 29.304 87.5763 29.304V30.432H87.2883C86.0643 30.432 85.4523 31.096 85.4523 32.424V36H84.3603V29.424H85.4523V30.492ZM94.4288 32.46C94.4288 32.668 94.4168 32.888 94.3928 33.12H89.1368C89.1768 33.768 89.3968 34.276 89.7968 34.644C90.2048 35.004 90.6968 35.184 91.2728 35.184C91.7448 35.184 92.1368 35.076 92.4488 34.86C92.7688 34.636 92.9928 34.34 93.1208 33.972H94.2968C94.1208 34.604 93.7688 35.12 93.2408 35.52C92.7128 35.912 92.0568 36.108 91.2728 36.108C90.6488 36.108 90.0888 35.968 89.5928 35.688C89.1048 35.408 88.7208 35.012 88.4408 34.5C88.1608 33.98 88.0208 33.38 88.0208 32.7C88.0208 32.02 88.1568 31.424 88.4288 30.912C88.7008 30.4 89.0808 30.008 89.5688 29.736C90.0648 29.456 90.6328 29.316 91.2728 29.316C91.8968 29.316 92.4488 29.452 92.9288 29.724C93.4088 29.996 93.7768 30.372 94.0328 30.852C94.2968 31.324 94.4288 31.86 94.4288 32.46ZM93.3008 32.232C93.3008 31.816 93.2088 31.46 93.0248 31.164C92.8408 30.86 92.5888 30.632 92.2688 30.48C91.9568 30.32 91.6088 30.24 91.2248 30.24C90.6728 30.24 90.2008 30.416 89.8088 30.768C89.4248 31.12 89.2048 31.608 89.1488 32.232H93.3008ZM97.8455 32.688C97.8455 32.016 97.9815 31.428 98.2535 30.924C98.5255 30.412 98.8975 30.016 99.3695 29.736C99.8495 29.456 100.381 29.316 100.965 29.316C101.541 29.316 102.041 29.44 102.465 29.688C102.889 29.936 103.205 30.248 103.413 30.624V29.424H104.517V36H103.413V34.776C103.197 35.16 102.873 35.48 102.441 35.736C102.017 35.984 101.521 36.108 100.953 36.108C100.369 36.108 99.8415 35.964 99.3695 35.676C98.8975 35.388 98.5255 34.984 98.2535 34.464C97.9815 33.944 97.8455 33.352 97.8455 32.688ZM103.413 32.7C103.413 32.204 103.313 31.772 103.113 31.404C102.913 31.036 102.641 30.756 102.297 30.564C101.961 30.364 101.589 30.264 101.181 30.264C100.773 30.264 100.401 30.36 100.065 30.552C99.7295 30.744 99.4615 31.024 99.2615 31.392C99.0615 31.76 98.9615 32.192 98.9615 32.688C98.9615 33.192 99.0615 33.632 99.2615 34.008C99.4615 34.376 99.7295 34.66 100.065 34.86C100.401 35.052 100.773 35.148 101.181 35.148C101.589 35.148 101.961 35.052 102.297 34.86C102.641 34.66 102.913 34.376 103.113 34.008C103.313 33.632 103.413 33.196 103.413 32.7ZM109.159 29.304C109.959 29.304 110.607 29.548 111.103 30.036C111.599 30.516 111.847 31.212 111.847 32.124V36H110.767V32.28C110.767 31.624 110.603 31.124 110.275 30.78C109.947 30.428 109.499 30.252 108.931 30.252C108.355 30.252 107.895 30.432 107.551 30.792C107.215 31.152 107.047 31.676 107.047 32.364V36H105.955V29.424H107.047V30.36C107.263 30.024 107.555 29.764 107.923 29.58C108.299 29.396 108.711 29.304 109.159 29.304ZM112.815 32.688C112.815 32.016 112.951 31.428 113.223 30.924C113.495 30.412 113.867 30.016 114.339 29.736C114.819 29.456 115.355 29.316 115.947 29.316C116.459 29.316 116.935 29.436 117.375 29.676C117.815 29.908 118.151 30.216 118.383 30.6V27.12H119.487V36H118.383V34.764C118.167 35.156 117.847 35.48 117.423 35.736C116.999 35.984 116.503 36.108 115.935 36.108C115.351 36.108 114.819 35.964 114.339 35.676C113.867 35.388 113.495 34.984 113.223 34.464C112.951 33.944 112.815 33.352 112.815 32.688ZM118.383 32.7C118.383 32.204 118.283 31.772 118.083 31.404C117.883 31.036 117.611 30.756 117.267 30.564C116.931 30.364 116.559 30.264 116.151 30.264C115.743 30.264 115.371 30.36 115.035 30.552C114.699 30.744 114.431 31.024 114.231 31.392C114.031 31.76 113.931 32.192 113.931 32.688C113.931 33.192 114.031 33.632 114.231 34.008C114.431 34.376 114.699 34.66 115.035 34.86C115.371 35.052 115.743 35.148 116.151 35.148C116.559 35.148 116.931 35.052 117.267 34.86C117.611 34.66 117.883 34.376 118.083 34.008C118.283 33.632 118.383 33.196 118.383 32.7ZM19.1112 61.108C18.6072 61.108 18.1552 61.024 17.7552 60.856C17.3552 60.68 17.0392 60.44 16.8072 60.136C16.5752 59.824 16.4472 59.468 16.4232 59.068H17.5512C17.5832 59.396 17.7352 59.664 18.0072 59.872C18.2872 60.08 18.6512 60.184 19.0992 60.184C19.5152 60.184 19.8432 60.092 20.0832 59.908C20.3232 59.724 20.4432 59.492 20.4432 59.212C20.4432 58.924 20.3152 58.712 20.0592 58.576C19.8032 58.432 19.4072 58.292 18.8712 58.156C18.3832 58.028 17.9832 57.9 17.6712 57.772C17.3672 57.636 17.1032 57.44 16.8792 57.184C16.6632 56.92 16.5552 56.576 16.5552 56.152C16.5552 55.816 16.6552 55.508 16.8552 55.228C17.0552 54.948 17.3392 54.728 17.7072 54.568C18.0752 54.4 18.4952 54.316 18.9672 54.316C19.6952 54.316 20.2832 54.5 20.7312 54.868C21.1792 55.236 21.4192 55.74 21.4512 56.38H20.3592C20.3352 56.036 20.1952 55.76 19.9392 55.552C19.6912 55.344 19.3552 55.24 18.9312 55.24C18.5392 55.24 18.2272 55.324 17.9952 55.492C17.7632 55.66 17.6472 55.88 17.6472 56.152C17.6472 56.368 17.7152 56.548 17.8512 56.692C17.9952 56.828 18.1712 56.94 18.3792 57.028C18.5952 57.108 18.8912 57.2 19.2672 57.304C19.7392 57.432 20.1232 57.56 20.4192 57.688C20.7152 57.808 20.9672 57.992 21.1752 58.24C21.3912 58.488 21.5032 58.812 21.5112 59.212C21.5112 59.572 21.4112 59.896 21.2112 60.184C21.0112 60.472 20.7272 60.7 20.3592 60.868C19.9992 61.028 19.5832 61.108 19.1112 61.108ZM23.9768 55.324V59.2C23.9768 59.52 24.0448 59.748 24.1808 59.884C24.3168 60.012 24.5528 60.076 24.8888 60.076H25.6928V61H24.7088C24.1008 61 23.6448 60.86 23.3408 60.58C23.0368 60.3 22.8848 59.84 22.8848 59.2V55.324H22.0328V54.424H22.8848V52.768H23.9768V54.424H25.6928V55.324H23.9768ZM27.6998 55.492C27.8918 55.116 28.1638 54.824 28.5158 54.616C28.8758 54.408 29.3118 54.304 29.8238 54.304V55.432H29.5358C28.3118 55.432 27.6998 56.096 27.6998 57.424V61H26.6078V54.424H27.6998V55.492ZM36.6764 57.46C36.6764 57.668 36.6644 57.888 36.6404 58.12H31.3844C31.4244 58.768 31.6444 59.276 32.0444 59.644C32.4524 60.004 32.9444 60.184 33.5204 60.184C33.9924 60.184 34.3844 60.076 34.6964 59.86C35.0164 59.636 35.2404 59.34 35.3684 58.972H36.5444C36.3684 59.604 36.0164 60.12 35.4884 60.52C34.9604 60.912 34.3044 61.108 33.5204 61.108C32.8964 61.108 32.3364 60.968 31.8404 60.688C31.3524 60.408 30.9684 60.012 30.6884 59.5C30.4084 58.98 30.2684 58.38 30.2684 57.7C30.2684 57.02 30.4044 56.424 30.6764 55.912C30.9484 55.4 31.3284 55.008 31.8164 54.736C32.3124 54.456 32.8804 54.316 33.5204 54.316C34.1444 54.316 34.6964 54.452 35.1764 54.724C35.6564 54.996 36.0244 55.372 36.2804 55.852C36.5444 56.324 36.6764 56.86 36.6764 57.46ZM35.5484 57.232C35.5484 56.816 35.4564 56.46 35.2724 56.164C35.0884 55.86 34.8364 55.632 34.5164 55.48C34.2044 55.32 33.8564 55.24 33.4724 55.24C32.9204 55.24 32.4484 55.416 32.0564 55.768C31.6724 56.12 31.4524 56.608 31.3964 57.232H35.5484ZM40.0378 61.108C39.5338 61.108 39.0818 61.024 38.6818 60.856C38.2818 60.68 37.9658 60.44 37.7338 60.136C37.5018 59.824 37.3738 59.468 37.3498 59.068H38.4778C38.5098 59.396 38.6618 59.664 38.9338 59.872C39.2138 60.08 39.5778 60.184 40.0258 60.184C40.4418 60.184 40.7698 60.092 41.0098 59.908C41.2498 59.724 41.3698 59.492 41.3698 59.212C41.3698 58.924 41.2418 58.712 40.9858 58.576C40.7298 58.432 40.3338 58.292 39.7978 58.156C39.3098 58.028 38.9098 57.9 38.5978 57.772C38.2938 57.636 38.0298 57.44 37.8058 57.184C37.5898 56.92 37.4818 56.576 37.4818 56.152C37.4818 55.816 37.5818 55.508 37.7818 55.228C37.9818 54.948 38.2658 54.728 38.6338 54.568C39.0018 54.4 39.4218 54.316 39.8938 54.316C40.6218 54.316 41.2098 54.5 41.6578 54.868C42.1058 55.236 42.3458 55.74 42.3778 56.38H41.2858C41.2618 56.036 41.1218 55.76 40.8658 55.552C40.6178 55.344 40.2818 55.24 39.8578 55.24C39.4658 55.24 39.1538 55.324 38.9218 55.492C38.6898 55.66 38.5738 55.88 38.5738 56.152C38.5738 56.368 38.6418 56.548 38.7778 56.692C38.9218 56.828 39.0978 56.94 39.3058 57.028C39.5218 57.108 39.8178 57.2 40.1938 57.304C40.6658 57.432 41.0498 57.56 41.3458 57.688C41.6418 57.808 41.8938 57.992 42.1018 58.24C42.3178 58.488 42.4298 58.812 42.4378 59.212C42.4378 59.572 42.3378 59.896 42.1378 60.184C41.9378 60.472 41.6538 60.7 41.2858 60.868C40.9258 61.028 40.5098 61.108 40.0378 61.108ZM45.8993 61.108C45.3953 61.108 44.9433 61.024 44.5433 60.856C44.1433 60.68 43.8273 60.44 43.5953 60.136C43.3633 59.824 43.2353 59.468 43.2113 59.068H44.3393C44.3713 59.396 44.5233 59.664 44.7953 59.872C45.0753 60.08 45.4393 60.184 45.8873 60.184C46.3033 60.184 46.6313 60.092 46.8713 59.908C47.1113 59.724 47.2313 59.492 47.2313 59.212C47.2313 58.924 47.1033 58.712 46.8473 58.576C46.5913 58.432 46.1953 58.292 45.6593 58.156C45.1713 58.028 44.7713 57.9 44.4593 57.772C44.1553 57.636 43.8913 57.44 43.6673 57.184C43.4513 56.92 43.3433 56.576 43.3433 56.152C43.3433 55.816 43.4433 55.508 43.6433 55.228C43.8433 54.948 44.1273 54.728 44.4953 54.568C44.8633 54.4 45.2833 54.316 45.7553 54.316C46.4833 54.316 47.0713 54.5 47.5193 54.868C47.9673 55.236 48.2073 55.74 48.2393 56.38H47.1473C47.1233 56.036 46.9833 55.76 46.7273 55.552C46.4793 55.344 46.1433 55.24 45.7193 55.24C45.3273 55.24 45.0153 55.324 44.7833 55.492C44.5513 55.66 44.4353 55.88 44.4353 56.152C44.4353 56.368 44.5033 56.548 44.6393 56.692C44.7833 56.828 44.9593 56.94 45.1673 57.028C45.3833 57.108 45.6793 57.2 46.0553 57.304C46.5273 57.432 46.9113 57.56 47.2073 57.688C47.5033 57.808 47.7553 57.992 47.9633 58.24C48.1793 58.488 48.2913 58.812 48.2993 59.212C48.2993 59.572 48.1993 59.896 47.9993 60.184C47.7993 60.472 47.5153 60.7 47.1473 60.868C46.7873 61.028 46.3713 61.108 45.8993 61.108ZM53.3161 52.12V61H52.2241V52.12H53.3161ZM60.7692 57.46C60.7692 57.668 60.7572 57.888 60.7332 58.12H55.4772C55.5172 58.768 55.7372 59.276 56.1372 59.644C56.5452 60.004 57.0372 60.184 57.6132 60.184C58.0852 60.184 58.4772 60.076 58.7892 59.86C59.1092 59.636 59.3332 59.34 59.4612 58.972H60.6372C60.4612 59.604 60.1092 60.12 59.5812 60.52C59.0532 60.912 58.3972 61.108 57.6132 61.108C56.9892 61.108 56.4292 60.968 55.9332 60.688C55.4452 60.408 55.0612 60.012 54.7812 59.5C54.5012 58.98 54.3612 58.38 54.3612 57.7C54.3612 57.02 54.4972 56.424 54.7692 55.912C55.0412 55.4 55.4212 55.008 55.9092 54.736C56.4052 54.456 56.9732 54.316 57.6132 54.316C58.2372 54.316 58.7892 54.452 59.2692 54.724C59.7492 54.996 60.1172 55.372 60.3732 55.852C60.6372 56.324 60.7692 56.86 60.7692 57.46ZM59.6412 57.232C59.6412 56.816 59.5492 56.46 59.3652 56.164C59.1812 55.86 58.9292 55.632 58.6092 55.48C58.2972 55.32 57.9492 55.24 57.5652 55.24C57.0132 55.24 56.5412 55.416 56.1492 55.768C55.7652 56.12 55.5452 56.608 55.4892 57.232H59.6412ZM64.1306 61.108C63.6266 61.108 63.1746 61.024 62.7746 60.856C62.3746 60.68 62.0586 60.44 61.8266 60.136C61.5946 59.824 61.4666 59.468 61.4426 59.068H62.5706C62.6026 59.396 62.7546 59.664 63.0266 59.872C63.3066 60.08 63.6706 60.184 64.1186 60.184C64.5346 60.184 64.8626 60.092 65.1026 59.908C65.3426 59.724 65.4626 59.492 65.4626 59.212C65.4626 58.924 65.3346 58.712 65.0786 58.576C64.8226 58.432 64.4266 58.292 63.8906 58.156C63.4026 58.028 63.0026 57.9 62.6906 57.772C62.3866 57.636 62.1226 57.44 61.8986 57.184C61.6826 56.92 61.5746 56.576 61.5746 56.152C61.5746 55.816 61.6746 55.508 61.8746 55.228C62.0746 54.948 62.3586 54.728 62.7266 54.568C63.0946 54.4 63.5146 54.316 63.9866 54.316C64.7146 54.316 65.3026 54.5 65.7506 54.868C66.1986 55.236 66.4386 55.74 66.4706 56.38H65.3786C65.3546 56.036 65.2146 55.76 64.9586 55.552C64.7106 55.344 64.3746 55.24 63.9506 55.24C63.5586 55.24 63.2466 55.324 63.0146 55.492C62.7826 55.66 62.6666 55.88 62.6666 56.152C62.6666 56.368 62.7346 56.548 62.8706 56.692C63.0146 56.828 63.1906 56.94 63.3986 57.028C63.6146 57.108 63.9106 57.2 64.2866 57.304C64.7586 57.432 65.1426 57.56 65.4386 57.688C65.7346 57.808 65.9866 57.992 66.1946 58.24C66.4106 58.488 66.5226 58.812 66.5306 59.212C66.5306 59.572 66.4306 59.896 66.2306 60.184C66.0306 60.472 65.7466 60.7 65.3786 60.868C65.0186 61.028 64.6026 61.108 64.1306 61.108ZM69.9922 61.108C69.4882 61.108 69.0362 61.024 68.6362 60.856C68.2362 60.68 67.9202 60.44 67.6882 60.136C67.4562 59.824 67.3282 59.468 67.3042 59.068H68.4322C68.4642 59.396 68.6162 59.664 68.8882 59.872C69.1682 60.08 69.5322 60.184 69.9802 60.184C70.3962 60.184 70.7242 60.092 70.9642 59.908C71.2042 59.724 71.3242 59.492 71.3242 59.212C71.3242 58.924 71.1962 58.712 70.9402 58.576C70.6842 58.432 70.2882 58.292 69.7522 58.156C69.2642 58.028 68.8642 57.9 68.5522 57.772C68.2482 57.636 67.9842 57.44 67.7602 57.184C67.5442 56.92 67.4362 56.576 67.4362 56.152C67.4362 55.816 67.5362 55.508 67.7362 55.228C67.9362 54.948 68.2202 54.728 68.5882 54.568C68.9562 54.4 69.3762 54.316 69.8482 54.316C70.5762 54.316 71.1642 54.5 71.6122 54.868C72.0602 55.236 72.3002 55.74 72.3322 56.38H71.2402C71.2162 56.036 71.0762 55.76 70.8202 55.552C70.5722 55.344 70.2362 55.24 69.8122 55.24C69.4202 55.24 69.1082 55.324 68.8762 55.492C68.6442 55.66 68.5282 55.88 68.5282 56.152C68.5282 56.368 68.5962 56.548 68.7322 56.692C68.8762 56.828 69.0522 56.94 69.2602 57.028C69.4762 57.108 69.7722 57.2 70.1482 57.304C70.6202 57.432 71.0042 57.56 71.3002 57.688C71.5962 57.808 71.8482 57.992 72.0562 58.24C72.2722 58.488 72.3842 58.812 72.3922 59.212C72.3922 59.572 72.2922 59.896 72.0922 60.184C71.8922 60.472 71.6082 60.7 71.2402 60.868C70.8802 61.028 70.4642 61.108 69.9922 61.108ZM85.0769 54.424L83.0249 61H81.8969L80.3129 55.78L78.7289 61H77.6009L75.5369 54.424H76.6529L78.1649 59.944L79.7969 54.424H80.9129L82.5089 59.956L83.9969 54.424H85.0769ZM86.3167 53.356C86.1087 53.356 85.9327 53.284 85.7887 53.14C85.6447 52.996 85.5727 52.82 85.5727 52.612C85.5727 52.404 85.6447 52.228 85.7887 52.084C85.9327 51.94 86.1087 51.868 86.3167 51.868C86.5167 51.868 86.6847 51.94 86.8207 52.084C86.9647 52.228 87.0367 52.404 87.0367 52.612C87.0367 52.82 86.9647 52.996 86.8207 53.14C86.6847 53.284 86.5167 53.356 86.3167 53.356ZM86.8447 54.424V61H85.7527V54.424H86.8447ZM89.6298 55.324V59.2C89.6298 59.52 89.6978 59.748 89.8338 59.884C89.9698 60.012 90.2058 60.076 90.5418 60.076H91.3458V61H90.3618C89.7538 61 89.2978 60.86 88.9938 60.58C88.6898 60.3 88.5378 59.84 88.5378 59.2V55.324H87.6858V54.424H88.5378V52.768H89.6298V54.424H91.3458V55.324H89.6298ZM95.5249 54.304C96.0209 54.304 96.4689 54.412 96.8689 54.628C97.2689 54.836 97.5809 55.152 97.8049 55.576C98.0369 56 98.1529 56.516 98.1529 57.124V61H97.0729V57.28C97.0729 56.624 96.9089 56.124 96.5809 55.78C96.2529 55.428 95.8049 55.252 95.2369 55.252C94.6609 55.252 94.2009 55.432 93.8569 55.792C93.5209 56.152 93.3529 56.676 93.3529 57.364V61H92.2609V52.12H93.3529V55.36C93.5689 55.024 93.8649 54.764 94.2409 54.58C94.6249 54.396 95.0529 54.304 95.5249 54.304ZM105.188 61.108C104.572 61.108 104.012 60.968 103.508 60.688C103.012 60.408 102.62 60.012 102.332 59.5C102.052 58.98 101.912 58.38 101.912 57.7C101.912 57.028 102.056 56.436 102.344 55.924C102.64 55.404 103.04 55.008 103.544 54.736C104.048 54.456 104.612 54.316 105.236 54.316C105.86 54.316 106.424 54.456 106.928 54.736C107.432 55.008 107.828 55.4 108.116 55.912C108.412 56.424 108.56 57.02 108.56 57.7C108.56 58.38 108.408 58.98 108.104 59.5C107.808 60.012 107.404 60.408 106.892 60.688C106.38 60.968 105.812 61.108 105.188 61.108ZM105.188 60.148C105.58 60.148 105.948 60.056 106.292 59.872C106.636 59.688 106.912 59.412 107.12 59.044C107.336 58.676 107.444 58.228 107.444 57.7C107.444 57.172 107.34 56.724 107.132 56.356C106.924 55.988 106.652 55.716 106.316 55.54C105.98 55.356 105.616 55.264 105.224 55.264C104.824 55.264 104.456 55.356 104.12 55.54C103.792 55.716 103.528 55.988 103.328 56.356C103.128 56.724 103.028 57.172 103.028 57.7C103.028 58.236 103.124 58.688 103.316 59.056C103.516 59.424 103.78 59.7 104.108 59.884C104.436 60.06 104.796 60.148 105.188 60.148ZM115.42 54.424V61H114.328V60.028C114.12 60.364 113.828 60.628 113.452 60.82C113.084 61.004 112.676 61.096 112.228 61.096C111.716 61.096 111.256 60.992 110.848 60.784C110.44 60.568 110.116 60.248 109.876 59.824C109.644 59.4 109.528 58.884 109.528 58.276V54.424H110.608V58.132C110.608 58.78 110.772 59.28 111.1 59.632C111.428 59.976 111.876 60.148 112.444 60.148C113.028 60.148 113.488 59.968 113.824 59.608C114.16 59.248 114.328 58.724 114.328 58.036V54.424H115.42ZM117.947 55.492C118.139 55.116 118.411 54.824 118.763 54.616C119.123 54.408 119.559 54.304 120.071 54.304V55.432H119.783C118.559 55.432 117.947 56.096 117.947 57.424V61H116.855V54.424H117.947V55.492ZM38.7636 85.108C38.1476 85.108 37.5876 84.968 37.0836 84.688C36.5876 84.408 36.1956 84.012 35.9076 83.5C35.6276 82.98 35.4876 82.38 35.4876 81.7C35.4876 81.028 35.6316 80.436 35.9196 79.924C36.2156 79.404 36.6156 79.008 37.1196 78.736C37.6236 78.456 38.1876 78.316 38.8116 78.316C39.4356 78.316 39.9996 78.456 40.5036 78.736C41.0076 79.008 41.4036 79.4 41.6916 79.912C41.9876 80.424 42.1356 81.02 42.1356 81.7C42.1356 82.38 41.9836 82.98 41.6796 83.5C41.3836 84.012 40.9796 84.408 40.4676 84.688C39.9556 84.968 39.3876 85.108 38.7636 85.108ZM38.7636 84.148C39.1556 84.148 39.5236 84.056 39.8676 83.872C40.2116 83.688 40.4876 83.412 40.6956 83.044C40.9116 82.676 41.0196 82.228 41.0196 81.7C41.0196 81.172 40.9156 80.724 40.7076 80.356C40.4996 79.988 40.2276 79.716 39.8916 79.54C39.5556 79.356 39.1916 79.264 38.7996 79.264C38.3996 79.264 38.0316 79.356 37.6956 79.54C37.3676 79.716 37.1036 79.988 36.9036 80.356C36.7036 80.724 36.6036 81.172 36.6036 81.7C36.6036 82.236 36.6996 82.688 36.8916 83.056C37.0916 83.424 37.3556 83.7 37.6836 83.884C38.0116 84.06 38.3716 84.148 38.7636 84.148ZM46.3673 78.304C47.1673 78.304 47.8153 78.548 48.3113 79.036C48.8073 79.516 49.0553 80.212 49.0553 81.124V85H47.9753V81.28C47.9753 80.624 47.8113 80.124 47.4833 79.78C47.1553 79.428 46.7073 79.252 46.1393 79.252C45.5633 79.252 45.1033 79.432 44.7593 79.792C44.4233 80.152 44.2553 80.676 44.2553 81.364V85H43.1633V78.424H44.2553V79.36C44.4713 79.024 44.7633 78.764 45.1313 78.58C45.5073 78.396 45.9193 78.304 46.3673 78.304ZM51.5231 76.12V85H50.4311V76.12H51.5231ZM53.5403 77.356C53.3323 77.356 53.1563 77.284 53.0123 77.14C52.8683 76.996 52.7963 76.82 52.7963 76.612C52.7963 76.404 52.8683 76.228 53.0123 76.084C53.1563 75.94 53.3323 75.868 53.5403 75.868C53.7403 75.868 53.9083 75.94 54.0443 76.084C54.1883 76.228 54.2603 76.404 54.2603 76.612C54.2603 76.82 54.1883 76.996 54.0443 77.14C53.9083 77.284 53.7403 77.356 53.5403 77.356ZM54.0683 78.424V85H52.9763V78.424H54.0683ZM58.7254 78.304C59.5254 78.304 60.1734 78.548 60.6694 79.036C61.1654 79.516 61.4134 80.212 61.4134 81.124V85H60.3334V81.28C60.3334 80.624 60.1694 80.124 59.8414 79.78C59.5134 79.428 59.0654 79.252 58.4974 79.252C57.9214 79.252 57.4614 79.432 57.1174 79.792C56.7814 80.152 56.6134 80.676 56.6134 81.364V85H55.5214V78.424H56.6134V79.36C56.8294 79.024 57.1214 78.764 57.4894 78.58C57.8654 78.396 58.2774 78.304 58.7254 78.304ZM68.7892 81.46C68.7892 81.668 68.7772 81.888 68.7532 82.12H63.4972C63.5372 82.768 63.7572 83.276 64.1572 83.644C64.5652 84.004 65.0572 84.184 65.6332 84.184C66.1052 84.184 66.4972 84.076 66.8092 83.86C67.1292 83.636 67.3532 83.34 67.4812 82.972H68.6572C68.4812 83.604 68.1292 84.12 67.6012 84.52C67.0732 84.912 66.4172 85.108 65.6332 85.108C65.0092 85.108 64.4492 84.968 63.9532 84.688C63.4652 84.408 63.0812 84.012 62.8012 83.5C62.5212 82.98 62.3812 82.38 62.3812 81.7C62.3812 81.02 62.5172 80.424 62.7892 79.912C63.0612 79.4 63.4412 79.008 63.9292 78.736C64.4252 78.456 64.9932 78.316 65.6332 78.316C66.2572 78.316 66.8092 78.452 67.2892 78.724C67.7692 78.996 68.1372 79.372 68.3932 79.852C68.6572 80.324 68.7892 80.86 68.7892 81.46ZM67.6612 81.232C67.6612 80.816 67.5692 80.46 67.3852 80.164C67.2012 79.86 66.9492 79.632 66.6292 79.48C66.3172 79.32 65.9692 79.24 65.5852 79.24C65.0332 79.24 64.5612 79.416 64.1692 79.768C63.7852 80.12 63.5652 80.608 63.5092 81.232H67.6612ZM75.4818 85.108C74.8658 85.108 74.3058 84.968 73.8018 84.688C73.3058 84.408 72.9138 84.012 72.6258 83.5C72.3458 82.98 72.2058 82.38 72.2058 81.7C72.2058 81.028 72.3498 80.436 72.6378 79.924C72.9338 79.404 73.3338 79.008 73.8378 78.736C74.3418 78.456 74.9058 78.316 75.5298 78.316C76.1538 78.316 76.7178 78.456 77.2218 78.736C77.7258 79.008 78.1218 79.4 78.4098 79.912C78.7058 80.424 78.8538 81.02 78.8538 81.7C78.8538 82.38 78.7018 82.98 78.3978 83.5C78.1018 84.012 77.6978 84.408 77.1858 84.688C76.6738 84.968 76.1058 85.108 75.4818 85.108ZM75.4818 84.148C75.8738 84.148 76.2418 84.056 76.5858 83.872C76.9298 83.688 77.2058 83.412 77.4138 83.044C77.6298 82.676 77.7378 82.228 77.7378 81.7C77.7378 81.172 77.6338 80.724 77.4258 80.356C77.2178 79.988 76.9458 79.716 76.6098 79.54C76.2738 79.356 75.9098 79.264 75.5178 79.264C75.1178 79.264 74.7498 79.356 74.4138 79.54C74.0858 79.716 73.8218 79.988 73.6218 80.356C73.4218 80.724 73.3218 81.172 73.3218 81.7C73.3218 82.236 73.4178 82.688 73.6098 83.056C73.8098 83.424 74.0738 83.7 74.4018 83.884C74.7298 84.06 75.0898 84.148 75.4818 84.148ZM80.9736 76.12V85H79.8816V76.12H80.9736ZM82.0187 81.688C82.0187 81.016 82.1547 80.428 82.4267 79.924C82.6987 79.412 83.0707 79.016 83.5427 78.736C84.0227 78.456 84.5587 78.316 85.1507 78.316C85.6627 78.316 86.1387 78.436 86.5787 78.676C87.0187 78.908 87.3547 79.216 87.5867 79.6V76.12H88.6907V85H87.5867V83.764C87.3707 84.156 87.0507 84.48 86.6267 84.736C86.2027 84.984 85.7067 85.108 85.1387 85.108C84.5547 85.108 84.0227 84.964 83.5427 84.676C83.0707 84.388 82.6987 83.984 82.4267 83.464C82.1547 82.944 82.0187 82.352 82.0187 81.688ZM87.5867 81.7C87.5867 81.204 87.4867 80.772 87.2867 80.404C87.0867 80.036 86.8147 79.756 86.4707 79.564C86.1347 79.364 85.7627 79.264 85.3547 79.264C84.9467 79.264 84.5747 79.36 84.2387 79.552C83.9027 79.744 83.6347 80.024 83.4347 80.392C83.2347 80.76 83.1347 81.192 83.1347 81.688C83.1347 82.192 83.2347 82.632 83.4347 83.008C83.6347 83.376 83.9027 83.66 84.2387 83.86C84.5747 84.052 84.9467 84.148 85.3547 84.148C85.7627 84.148 86.1347 84.052 86.4707 83.86C86.8147 83.66 87.0867 83.376 87.2867 83.008C87.4867 82.632 87.5867 82.196 87.5867 81.7ZM94.0113 79.648C94.2353 79.256 94.5633 78.936 94.9953 78.688C95.4273 78.44 95.9193 78.316 96.4713 78.316C97.0633 78.316 97.5953 78.456 98.0673 78.736C98.5393 79.016 98.9113 79.412 99.1833 79.924C99.4553 80.428 99.5913 81.016 99.5913 81.688C99.5913 82.352 99.4553 82.944 99.1833 83.464C98.9113 83.984 98.5353 84.388 98.0553 84.676C97.5833 84.964 97.0553 85.108 96.4713 85.108C95.9033 85.108 95.4033 84.984 94.9713 84.736C94.5473 84.488 94.2273 84.172 94.0113 83.788V85H92.9193V76.12H94.0113V79.648ZM98.4753 81.688C98.4753 81.192 98.3753 80.76 98.1753 80.392C97.9753 80.024 97.7033 79.744 97.3593 79.552C97.0233 79.36 96.6513 79.264 96.2433 79.264C95.8433 79.264 95.4713 79.364 95.1273 79.564C94.7913 79.756 94.5193 80.04 94.3113 80.416C94.1113 80.784 94.0113 81.212 94.0113 81.7C94.0113 82.196 94.1113 82.632 94.3113 83.008C94.5193 83.376 94.7913 83.66 95.1273 83.86C95.4713 84.052 95.8433 84.148 96.2433 84.148C96.6513 84.148 97.0233 84.052 97.3593 83.86C97.7033 83.66 97.9753 83.376 98.1753 83.008C98.3753 82.632 98.4753 82.192 98.4753 81.688ZM103.489 85.108C102.873 85.108 102.313 84.968 101.809 84.688C101.313 84.408 100.921 84.012 100.633 83.5C100.353 82.98 100.213 82.38 100.213 81.7C100.213 81.028 100.357 80.436 100.645 79.924C100.941 79.404 101.341 79.008 101.845 78.736C102.349 78.456 102.913 78.316 103.537 78.316C104.161 78.316 104.725 78.456 105.229 78.736C105.733 79.008 106.129 79.4 106.417 79.912C106.713 80.424 106.861 81.02 106.861 81.7C106.861 82.38 106.709 82.98 106.405 83.5C106.109 84.012 105.705 84.408 105.193 84.688C104.681 84.968 104.113 85.108 103.489 85.108ZM103.489 84.148C103.881 84.148 104.249 84.056 104.593 83.872C104.937 83.688 105.213 83.412 105.421 83.044C105.637 82.676 105.745 82.228 105.745 81.7C105.745 81.172 105.641 80.724 105.433 80.356C105.225 79.988 104.953 79.716 104.617 79.54C104.281 79.356 103.917 79.264 103.525 79.264C103.125 79.264 102.757 79.356 102.421 79.54C102.093 79.716 101.829 79.988 101.629 80.356C101.429 80.724 101.329 81.172 101.329 81.7C101.329 82.236 101.425 82.688 101.617 83.056C101.817 83.424 102.081 83.7 102.409 83.884C102.737 84.06 103.097 84.148 103.489 84.148ZM110.756 85.108C110.14 85.108 109.58 84.968 109.076 84.688C108.58 84.408 108.188 84.012 107.9 83.5C107.62 82.98 107.48 82.38 107.48 81.7C107.48 81.028 107.624 80.436 107.912 79.924C108.208 79.404 108.608 79.008 109.112 78.736C109.616 78.456 110.18 78.316 110.804 78.316C111.428 78.316 111.992 78.456 112.496 78.736C113 79.008 113.396 79.4 113.684 79.912C113.98 80.424 114.128 81.02 114.128 81.7C114.128 82.38 113.976 82.98 113.672 83.5C113.376 84.012 112.972 84.408 112.46 84.688C111.948 84.968 111.38 85.108 110.756 85.108ZM110.756 84.148C111.148 84.148 111.516 84.056 111.86 83.872C112.204 83.688 112.48 83.412 112.688 83.044C112.904 82.676 113.012 82.228 113.012 81.7C113.012 81.172 112.908 80.724 112.7 80.356C112.492 79.988 112.22 79.716 111.884 79.54C111.548 79.356 111.184 79.264 110.792 79.264C110.392 79.264 110.024 79.356 109.688 79.54C109.36 79.716 109.096 79.988 108.896 80.356C108.696 80.724 108.596 81.172 108.596 81.7C108.596 82.236 108.692 82.688 108.884 83.056C109.084 83.424 109.348 83.7 109.676 83.884C110.004 84.06 110.364 84.148 110.756 84.148ZM118.828 85L116.248 82.096V85H115.156V76.12H116.248V81.34L118.78 78.424H120.304L117.208 81.7L120.316 85H118.828ZM74.4228 104.492C74.6148 104.116 74.8868 103.824 75.2388 103.616C75.5988 103.408 76.0348 103.304 76.5468 103.304V104.432H76.2588C75.0348 104.432 74.4228 105.096 74.4228 106.424V110H73.3308V103.424H74.4228V104.492ZM83.3993 106.46C83.3993 106.668 83.3873 106.888 83.3633 107.12H78.1073C78.1473 107.768 78.3673 108.276 78.7673 108.644C79.1753 109.004 79.6673 109.184 80.2433 109.184C80.7153 109.184 81.1073 109.076 81.4193 108.86C81.7393 108.636 81.9633 108.34 82.0913 107.972H83.2673C83.0913 108.604 82.7393 109.12 82.2113 109.52C81.6833 109.912 81.0273 110.108 80.2433 110.108C79.6193 110.108 79.0593 109.968 78.5633 109.688C78.0753 109.408 77.6913 109.012 77.4113 108.5C77.1313 107.98 76.9913 107.38 76.9913 106.7C76.9913 106.02 77.1273 105.424 77.3993 104.912C77.6713 104.4 78.0513 104.008 78.5393 103.736C79.0353 103.456 79.6033 103.316 80.2433 103.316C80.8673 103.316 81.4193 103.452 81.8993 103.724C82.3793 103.996 82.7473 104.372 83.0033 104.852C83.2673 105.324 83.3993 105.86 83.3993 106.46ZM82.2713 106.232C82.2713 105.816 82.1793 105.46 81.9953 105.164C81.8113 104.86 81.5593 104.632 81.2393 104.48C80.9273 104.32 80.5793 104.24 80.1953 104.24C79.6433 104.24 79.1713 104.416 78.7793 104.768C78.3953 105.12 78.1753 105.608 78.1193 106.232H82.2713ZM84.0248 106.688C84.0248 106.016 84.1608 105.428 84.4328 104.924C84.7048 104.412 85.0768 104.016 85.5488 103.736C86.0288 103.456 86.5608 103.316 87.1448 103.316C87.7208 103.316 88.2208 103.44 88.6448 103.688C89.0688 103.936 89.3848 104.248 89.5928 104.624V103.424H90.6968V110H89.5928V108.776C89.3768 109.16 89.0528 109.48 88.6208 109.736C88.1968 109.984 87.7008 110.108 87.1328 110.108C86.5488 110.108 86.0208 109.964 85.5488 109.676C85.0768 109.388 84.7048 108.984 84.4328 108.464C84.1608 107.944 84.0248 107.352 84.0248 106.688ZM89.5928 106.7C89.5928 106.204 89.4928 105.772 89.2928 105.404C89.0928 105.036 88.8208 104.756 88.4768 104.564C88.1408 104.364 87.7688 104.264 87.3608 104.264C86.9528 104.264 86.5808 104.36 86.2448 104.552C85.9088 104.744 85.6408 105.024 85.4408 105.392C85.2408 105.76 85.1408 106.192 85.1408 106.688C85.1408 107.192 85.2408 107.632 85.4408 108.008C85.6408 108.376 85.9088 108.66 86.2448 108.86C86.5808 109.052 86.9528 109.148 87.3608 109.148C87.7688 109.148 88.1408 109.052 88.4768 108.86C88.8208 108.66 89.0928 108.376 89.2928 108.008C89.4928 107.632 89.5928 107.196 89.5928 106.7ZM91.7261 106.688C91.7261 106.016 91.8621 105.428 92.1341 104.924C92.4061 104.412 92.7781 104.016 93.2501 103.736C93.7301 103.456 94.2661 103.316 94.8581 103.316C95.3701 103.316 95.8461 103.436 96.2861 103.676C96.7261 103.908 97.0621 104.216 97.2941 104.6V101.12H98.3981V110H97.2941V108.764C97.0781 109.156 96.7581 109.48 96.3341 109.736C95.9101 109.984 95.4141 110.108 94.8461 110.108C94.2621 110.108 93.7301 109.964 93.2501 109.676C92.7781 109.388 92.4061 108.984 92.1341 108.464C91.8621 107.944 91.7261 107.352 91.7261 106.688ZM97.2941 106.7C97.2941 106.204 97.1941 105.772 96.9941 105.404C96.7941 105.036 96.5221 104.756 96.1781 104.564C95.8421 104.364 95.4701 104.264 95.0621 104.264C94.6541 104.264 94.2821 104.36 93.9461 104.552C93.6101 104.744 93.3421 105.024 93.1421 105.392C92.9421 105.76 92.8421 106.192 92.8421 106.688C92.8421 107.192 92.9421 107.632 93.1421 108.008C93.3421 108.376 93.6101 108.66 93.9461 108.86C94.2821 109.052 94.6541 109.148 95.0621 109.148C95.4701 109.148 95.8421 109.052 96.1781 108.86C96.5221 108.66 96.7941 108.376 96.9941 108.008C97.1941 107.632 97.2941 107.196 97.2941 106.7ZM100.399 102.356C100.191 102.356 100.015 102.284 99.8715 102.14C99.7275 101.996 99.6555 101.82 99.6555 101.612C99.6555 101.404 99.7275 101.228 99.8715 101.084C100.015 100.94 100.191 100.868 100.399 100.868C100.599 100.868 100.767 100.94 100.903 101.084C101.047 101.228 101.119 101.404 101.119 101.612C101.119 101.82 101.047 101.996 100.903 102.14C100.767 102.284 100.599 102.356 100.399 102.356ZM100.927 103.424V110H99.8355V103.424H100.927ZM105.585 103.304C106.385 103.304 107.033 103.548 107.529 104.036C108.025 104.516 108.273 105.212 108.273 106.124V110H107.193V106.28C107.193 105.624 107.029 105.124 106.701 104.78C106.373 104.428 105.925 104.252 105.357 104.252C104.781 104.252 104.321 104.432 103.977 104.792C103.641 105.152 103.473 105.676 103.473 106.364V110H102.381V103.424H103.473V104.36C103.689 104.024 103.981 103.764 104.349 103.58C104.725 103.396 105.137 103.304 105.585 103.304ZM112.36 103.316C112.928 103.316 113.424 103.44 113.848 103.688C114.28 103.936 114.6 104.248 114.808 104.624V103.424H115.912V110.144C115.912 110.744 115.784 111.276 115.528 111.74C115.272 112.212 114.904 112.58 114.424 112.844C113.952 113.108 113.4 113.24 112.768 113.24C111.904 113.24 111.184 113.036 110.608 112.628C110.032 112.22 109.692 111.664 109.588 110.96H110.668C110.788 111.36 111.036 111.68 111.412 111.92C111.788 112.168 112.24 112.292 112.768 112.292C113.368 112.292 113.856 112.104 114.232 111.728C114.616 111.352 114.808 110.824 114.808 110.144V108.764C114.592 109.148 114.272 109.468 113.848 109.724C113.424 109.98 112.928 110.108 112.36 110.108C111.776 110.108 111.244 109.964 110.764 109.676C110.292 109.388 109.92 108.984 109.648 108.464C109.376 107.944 109.24 107.352 109.24 106.688C109.24 106.016 109.376 105.428 109.648 104.924C109.92 104.412 110.292 104.016 110.764 103.736C111.244 103.456 111.776 103.316 112.36 103.316ZM114.808 106.7C114.808 106.204 114.708 105.772 114.508 105.404C114.308 105.036 114.036 104.756 113.692 104.564C113.356 104.364 112.984 104.264 112.576 104.264C112.168 104.264 111.796 104.36 111.46 104.552C111.124 104.744 110.856 105.024 110.656 105.392C110.456 105.76 110.356 106.192 110.356 106.688C110.356 107.192 110.456 107.632 110.656 108.008C110.856 108.376 111.124 108.66 111.46 108.86C111.796 109.052 112.168 109.148 112.576 109.148C112.984 109.148 113.356 109.052 113.692 108.86C114.036 108.66 114.308 108.376 114.508 108.008C114.708 107.632 114.808 107.196 114.808 106.7ZM118.766 101.636L118.634 107.636H117.722L117.59 101.636H118.766ZM118.226 110.072C118.018 110.072 117.842 110 117.698 109.856C117.554 109.712 117.482 109.536 117.482 109.328C117.482 109.12 117.554 108.944 117.698 108.8C117.842 108.656 118.018 108.584 118.226 108.584C118.426 108.584 118.594 108.656 118.73 108.8C118.874 108.944 118.946 109.12 118.946 109.328C118.946 109.536 118.874 109.712 118.73 109.856C118.594 110 118.426 110.072 118.226 110.072Z" fill="white"/>
</svg>
