<svg width="132" height="140" viewBox="0 0 132 140" fill="none" xmlns="http://www.w3.org/2000/svg">
<rect width="132" height="140" rx="30" fill="#110F0F"/>
<path d="M17.828 37L15.836 33.58H14.516V37H13.424V28.636H16.124C16.756 28.636 17.288 28.744 17.72 28.96C18.16 29.176 18.488 29.468 18.704 29.836C18.92 30.204 19.028 30.624 19.028 31.096C19.028 31.672 18.86 32.18 18.524 32.62C18.196 33.06 17.7 33.352 17.036 33.496L19.136 37H17.828ZM14.516 32.704H16.124C16.716 32.704 17.16 32.56 17.456 32.272C17.752 31.976 17.9 31.584 17.9 31.096C17.9 30.6 17.752 30.216 17.456 29.944C17.168 29.672 16.724 29.536 16.124 29.536H14.516V32.704ZM26.3168 33.46C26.3168 33.668 26.3048 33.888 26.2808 34.12H21.0248C21.0648 34.768 21.2848 35.276 21.6848 35.644C22.0928 36.004 22.5848 36.184 23.1608 36.184C23.6328 36.184 24.0248 36.076 24.3368 35.86C24.6568 35.636 24.8808 35.34 25.0088 34.972H26.1848C26.0088 35.604 25.6568 36.12 25.1288 36.52C24.6008 36.912 23.9448 37.108 23.1608 37.108C22.5368 37.108 21.9768 36.968 21.4808 36.688C20.9928 36.408 20.6088 36.012 20.3288 35.5C20.0488 34.98 19.9088 34.38 19.9088 33.7C19.9088 33.02 20.0448 32.424 20.3168 31.912C20.5888 31.4 20.9688 31.008 21.4568 30.736C21.9528 30.456 22.5208 30.316 23.1608 30.316C23.7848 30.316 24.3368 30.452 24.8168 30.724C25.2968 30.996 25.6648 31.372 25.9208 31.852C26.1848 32.324 26.3168 32.86 26.3168 33.46ZM25.1888 33.232C25.1888 32.816 25.0968 32.46 24.9128 32.164C24.7288 31.86 24.4768 31.632 24.1568 31.48C23.8448 31.32 23.4968 31.24 23.1128 31.24C22.5608 31.24 22.0888 31.416 21.6968 31.768C21.3128 32.12 21.0928 32.608 21.0368 33.232H25.1888ZM26.9422 33.688C26.9422 33.016 27.0782 32.428 27.3502 31.924C27.6222 31.412 27.9942 31.016 28.4662 30.736C28.9462 30.456 29.4782 30.316 30.0622 30.316C30.6382 30.316 31.1382 30.44 31.5622 30.688C31.9862 30.936 32.3022 31.248 32.5102 31.624V30.424H33.6142V37H32.5102V35.776C32.2942 36.16 31.9702 36.48 31.5382 36.736C31.1142 36.984 30.6182 37.108 30.0502 37.108C29.4662 37.108 28.9382 36.964 28.4662 36.676C27.9942 36.388 27.6222 35.984 27.3502 35.464C27.0782 34.944 26.9422 34.352 26.9422 33.688ZM32.5102 33.7C32.5102 33.204 32.4102 32.772 32.2102 32.404C32.0102 32.036 31.7382 31.756 31.3942 31.564C31.0582 31.364 30.6862 31.264 30.2782 31.264C29.8702 31.264 29.4982 31.36 29.1622 31.552C28.8262 31.744 28.5582 32.024 28.3582 32.392C28.1582 32.76 28.0582 33.192 28.0582 33.688C28.0582 34.192 28.1582 34.632 28.3582 35.008C28.5582 35.376 28.8262 35.66 29.1622 35.86C29.4982 36.052 29.8702 36.148 30.2782 36.148C30.6862 36.148 31.0582 36.052 31.3942 35.86C31.7382 35.66 32.0102 35.376 32.2102 35.008C32.4102 34.632 32.5102 34.196 32.5102 33.7ZM34.6436 33.688C34.6436 33.016 34.7796 32.428 35.0516 31.924C35.3236 31.412 35.6956 31.016 36.1676 30.736C36.6476 30.456 37.1836 30.316 37.7756 30.316C38.2876 30.316 38.7636 30.436 39.2036 30.676C39.6436 30.908 39.9796 31.216 40.2116 31.6V28.12H41.3156V37H40.2116V35.764C39.9956 36.156 39.6756 36.48 39.2516 36.736C38.8276 36.984 38.3316 37.108 37.7636 37.108C37.1796 37.108 36.6476 36.964 36.1676 36.676C35.6956 36.388 35.3236 35.984 35.0516 35.464C34.7796 34.944 34.6436 34.352 34.6436 33.688ZM40.2116 33.7C40.2116 33.204 40.1116 32.772 39.9116 32.404C39.7116 32.036 39.4396 31.756 39.0956 31.564C38.7596 31.364 38.3876 31.264 37.9796 31.264C37.5716 31.264 37.1996 31.36 36.8636 31.552C36.5276 31.744 36.2596 32.024 36.0596 32.392C35.8596 32.76 35.7596 33.192 35.7596 33.688C35.7596 34.192 35.8596 34.632 36.0596 35.008C36.2596 35.376 36.5276 35.66 36.8636 35.86C37.1996 36.052 37.5716 36.148 37.9796 36.148C38.3876 36.148 38.7596 36.052 39.0956 35.86C39.4396 35.66 39.7116 35.376 39.9116 35.008C40.1116 34.632 40.2116 34.196 40.2116 33.7ZM53.4522 30.304C53.9642 30.304 54.4202 30.412 54.8202 30.628C55.2202 30.836 55.5362 31.152 55.7682 31.576C56.0002 32 56.1162 32.516 56.1162 33.124V37H55.0362V33.28C55.0362 32.624 54.8722 32.124 54.5442 31.78C54.2242 31.428 53.7882 31.252 53.2362 31.252C52.6682 31.252 52.2162 31.436 51.8802 31.804C51.5442 32.164 51.3762 32.688 51.3762 33.376V37H50.2962V33.28C50.2962 32.624 50.1322 32.124 49.8042 31.78C49.4842 31.428 49.0482 31.252 48.4962 31.252C47.9282 31.252 47.4762 31.436 47.1402 31.804C46.8042 32.164 46.6362 32.688 46.6362 33.376V37H45.5442V30.424H46.6362V31.372C46.8522 31.028 47.1402 30.764 47.5002 30.58C47.8682 30.396 48.2722 30.304 48.7122 30.304C49.2642 30.304 49.7522 30.428 50.1762 30.676C50.6002 30.924 50.9162 31.288 51.1242 31.768C51.3082 31.304 51.6122 30.944 52.0362 30.688C52.4602 30.432 52.9322 30.304 53.4522 30.304ZM60.3674 37.108C59.7514 37.108 59.1914 36.968 58.6874 36.688C58.1914 36.408 57.7994 36.012 57.5114 35.5C57.2314 34.98 57.0914 34.38 57.0914 33.7C57.0914 33.028 57.2354 32.436 57.5234 31.924C57.8194 31.404 58.2194 31.008 58.7234 30.736C59.2274 30.456 59.7914 30.316 60.4154 30.316C61.0394 30.316 61.6034 30.456 62.1074 30.736C62.6114 31.008 63.0074 31.4 63.2954 31.912C63.5914 32.424 63.7394 33.02 63.7394 33.7C63.7394 34.38 63.5874 34.98 63.2834 35.5C62.9874 36.012 62.5834 36.408 62.0714 36.688C61.5594 36.968 60.9914 37.108 60.3674 37.108ZM60.3674 36.148C60.7594 36.148 61.1274 36.056 61.4714 35.872C61.8154 35.688 62.0914 35.412 62.2994 35.044C62.5154 34.676 62.6234 34.228 62.6234 33.7C62.6234 33.172 62.5194 32.724 62.3114 32.356C62.1034 31.988 61.8314 31.716 61.4954 31.54C61.1594 31.356 60.7954 31.264 60.4034 31.264C60.0034 31.264 59.6354 31.356 59.2994 31.54C58.9714 31.716 58.7074 31.988 58.5074 32.356C58.3074 32.724 58.2074 33.172 58.2074 33.7C58.2074 34.236 58.3034 34.688 58.4954 35.056C58.6954 35.424 58.9594 35.7 59.2874 35.884C59.6154 36.06 59.9754 36.148 60.3674 36.148ZM65.8592 31.492C66.0512 31.116 66.3232 30.824 66.6752 30.616C67.0352 30.408 67.4712 30.304 67.9832 30.304V31.432H67.6952C66.4712 31.432 65.8592 32.096 65.8592 33.424V37H64.7672V30.424H65.8592V31.492ZM74.8358 33.46C74.8358 33.668 74.8238 33.888 74.7998 34.12H69.5438C69.5838 34.768 69.8038 35.276 70.2038 35.644C70.6118 36.004 71.1038 36.184 71.6798 36.184C72.1518 36.184 72.5438 36.076 72.8558 35.86C73.1758 35.636 73.3998 35.34 73.5278 34.972H74.7038C74.5278 35.604 74.1758 36.12 73.6478 36.52C73.1198 36.912 72.4638 37.108 71.6798 37.108C71.0558 37.108 70.4958 36.968 69.9998 36.688C69.5118 36.408 69.1278 36.012 68.8478 35.5C68.5678 34.98 68.4278 34.38 68.4278 33.7C68.4278 33.02 68.5638 32.424 68.8358 31.912C69.1078 31.4 69.4878 31.008 69.9758 30.736C70.4718 30.456 71.0398 30.316 71.6798 30.316C72.3038 30.316 72.8558 30.452 73.3358 30.724C73.8158 30.996 74.1838 31.372 74.4398 31.852C74.7038 32.324 74.8358 32.86 74.8358 33.46ZM73.7078 33.232C73.7078 32.816 73.6158 32.46 73.4318 32.164C73.2478 31.86 72.9958 31.632 72.6758 31.48C72.3638 31.32 72.0158 31.24 71.6318 31.24C71.0798 31.24 70.6078 31.416 70.2158 31.768C69.8318 32.12 69.6118 32.608 69.5558 33.232H73.7078ZM78.2524 33.688C78.2524 33.016 78.3884 32.428 78.6604 31.924C78.9324 31.412 79.3044 31.016 79.7764 30.736C80.2564 30.456 80.7884 30.316 81.3724 30.316C81.9484 30.316 82.4484 30.44 82.8724 30.688C83.2964 30.936 83.6124 31.248 83.8204 31.624V30.424H84.9244V37H83.8204V35.776C83.6044 36.16 83.2804 36.48 82.8484 36.736C82.4244 36.984 81.9284 37.108 81.3604 37.108C80.7764 37.108 80.2484 36.964 79.7764 36.676C79.3044 36.388 78.9324 35.984 78.6604 35.464C78.3884 34.944 78.2524 34.352 78.2524 33.688ZM83.8204 33.7C83.8204 33.204 83.7204 32.772 83.5204 32.404C83.3204 32.036 83.0484 31.756 82.7044 31.564C82.3684 31.364 81.9964 31.264 81.5884 31.264C81.1804 31.264 80.8084 31.36 80.4724 31.552C80.1364 31.744 79.8684 32.024 79.6684 32.392C79.4684 32.76 79.3684 33.192 79.3684 33.688C79.3684 34.192 79.4684 34.632 79.6684 35.008C79.8684 35.376 80.1364 35.66 80.4724 35.86C80.8084 36.052 81.1804 36.148 81.5884 36.148C81.9964 36.148 82.3684 36.052 82.7044 35.86C83.0484 35.66 83.3204 35.376 83.5204 35.008C83.7204 34.632 83.8204 34.196 83.8204 33.7ZM89.5658 30.304C90.3658 30.304 91.0138 30.548 91.5098 31.036C92.0058 31.516 92.2538 32.212 92.2538 33.124V37H91.1738V33.28C91.1738 32.624 91.0098 32.124 90.6818 31.78C90.3538 31.428 89.9058 31.252 89.3378 31.252C88.7618 31.252 88.3018 31.432 87.9578 31.792C87.6218 32.152 87.4538 32.676 87.4538 33.364V37H86.3618V30.424H87.4538V31.36C87.6698 31.024 87.9618 30.764 88.3298 30.58C88.7058 30.396 89.1178 30.304 89.5658 30.304ZM93.2216 33.688C93.2216 33.016 93.3576 32.428 93.6296 31.924C93.9016 31.412 94.2736 31.016 94.7456 30.736C95.2256 30.456 95.7616 30.316 96.3536 30.316C96.8656 30.316 97.3416 30.436 97.7816 30.676C98.2216 30.908 98.5576 31.216 98.7896 31.6V28.12H99.8936V37H98.7896V35.764C98.5736 36.156 98.2536 36.48 97.8296 36.736C97.4056 36.984 96.9096 37.108 96.3416 37.108C95.7576 37.108 95.2256 36.964 94.7456 36.676C94.2736 36.388 93.9016 35.984 93.6296 35.464C93.3576 34.944 93.2216 34.352 93.2216 33.688ZM98.7896 33.7C98.7896 33.204 98.6896 32.772 98.4896 32.404C98.2896 32.036 98.0176 31.756 97.6736 31.564C97.3376 31.364 96.9656 31.264 96.5576 31.264C96.1496 31.264 95.7776 31.36 95.4416 31.552C95.1056 31.744 94.8376 32.024 94.6376 32.392C94.4376 32.76 94.3376 33.192 94.3376 33.688C94.3376 34.192 94.4376 34.632 94.6376 35.008C94.8376 35.376 95.1056 35.66 95.4416 35.86C95.7776 36.052 96.1496 36.148 96.5576 36.148C96.9656 36.148 97.3376 36.052 97.6736 35.86C98.0176 35.66 98.2896 35.376 98.4896 35.008C98.6896 34.632 98.7896 34.196 98.7896 33.7ZM15.752 62.108C15.248 62.108 14.796 62.024 14.396 61.856C13.996 61.68 13.68 61.44 13.448 61.136C13.216 60.824 13.088 60.468 13.064 60.068H14.192C14.224 60.396 14.376 60.664 14.648 60.872C14.928 61.08 15.292 61.184 15.74 61.184C16.156 61.184 16.484 61.092 16.724 60.908C16.964 60.724 17.084 60.492 17.084 60.212C17.084 59.924 16.956 59.712 16.7 59.576C16.444 59.432 16.048 59.292 15.512 59.156C15.024 59.028 14.624 58.9 14.312 58.772C14.008 58.636 13.744 58.44 13.52 58.184C13.304 57.92 13.196 57.576 13.196 57.152C13.196 56.816 13.296 56.508 13.496 56.228C13.696 55.948 13.98 55.728 14.348 55.568C14.716 55.4 15.136 55.316 15.608 55.316C16.336 55.316 16.924 55.5 17.372 55.868C17.82 56.236 18.06 56.74 18.092 57.38H17C16.976 57.036 16.836 56.76 16.58 56.552C16.332 56.344 15.996 56.24 15.572 56.24C15.18 56.24 14.868 56.324 14.636 56.492C14.404 56.66 14.288 56.88 14.288 57.152C14.288 57.368 14.356 57.548 14.492 57.692C14.636 57.828 14.812 57.94 15.02 58.028C15.236 58.108 15.532 58.2 15.908 58.304C16.38 58.432 16.764 58.56 17.06 58.688C17.356 58.808 17.608 58.992 17.816 59.24C18.032 59.488 18.144 59.812 18.152 60.212C18.152 60.572 18.052 60.896 17.852 61.184C17.652 61.472 17.368 61.7 17 61.868C16.64 62.028 16.224 62.108 15.752 62.108ZM20.6175 56.324V60.2C20.6175 60.52 20.6855 60.748 20.8215 60.884C20.9575 61.012 21.1935 61.076 21.5295 61.076H22.3335V62H21.3495C20.7415 62 20.2855 61.86 19.9815 61.58C19.6775 61.3 19.5255 60.84 19.5255 60.2V56.324H18.6735V55.424H19.5255V53.768H20.6175V55.424H22.3335V56.324H20.6175ZM24.3406 56.492C24.5326 56.116 24.8046 55.824 25.1566 55.616C25.5166 55.408 25.9526 55.304 26.4646 55.304V56.432H26.1766C24.9526 56.432 24.3406 57.096 24.3406 58.424V62H23.2486V55.424H24.3406V56.492ZM33.3172 58.46C33.3172 58.668 33.3052 58.888 33.2812 59.12H28.0252C28.0652 59.768 28.2852 60.276 28.6852 60.644C29.0932 61.004 29.5852 61.184 30.1612 61.184C30.6332 61.184 31.0252 61.076 31.3372 60.86C31.6572 60.636 31.8812 60.34 32.0092 59.972H33.1852C33.0092 60.604 32.6572 61.12 32.1292 61.52C31.6012 61.912 30.9452 62.108 30.1612 62.108C29.5372 62.108 28.9772 61.968 28.4812 61.688C27.9932 61.408 27.6092 61.012 27.3292 60.5C27.0492 59.98 26.9092 59.38 26.9092 58.7C26.9092 58.02 27.0452 57.424 27.3172 56.912C27.5892 56.4 27.9692 56.008 28.4572 55.736C28.9532 55.456 29.5212 55.316 30.1612 55.316C30.7852 55.316 31.3372 55.452 31.8172 55.724C32.2972 55.996 32.6652 56.372 32.9212 56.852C33.1852 57.324 33.3172 57.86 33.3172 58.46ZM32.1892 58.232C32.1892 57.816 32.0972 57.46 31.9132 57.164C31.7292 56.86 31.4772 56.632 31.1572 56.48C30.8452 56.32 30.4972 56.24 30.1132 56.24C29.5612 56.24 29.0892 56.416 28.6972 56.768C28.3132 57.12 28.0932 57.608 28.0372 58.232H32.1892ZM36.6786 62.108C36.1746 62.108 35.7226 62.024 35.3226 61.856C34.9226 61.68 34.6066 61.44 34.3746 61.136C34.1426 60.824 34.0146 60.468 33.9906 60.068H35.1186C35.1506 60.396 35.3026 60.664 35.5746 60.872C35.8546 61.08 36.2186 61.184 36.6666 61.184C37.0826 61.184 37.4106 61.092 37.6506 60.908C37.8906 60.724 38.0106 60.492 38.0106 60.212C38.0106 59.924 37.8826 59.712 37.6266 59.576C37.3706 59.432 36.9746 59.292 36.4386 59.156C35.9506 59.028 35.5506 58.9 35.2386 58.772C34.9346 58.636 34.6706 58.44 34.4466 58.184C34.2306 57.92 34.1226 57.576 34.1226 57.152C34.1226 56.816 34.2226 56.508 34.4226 56.228C34.6226 55.948 34.9066 55.728 35.2746 55.568C35.6426 55.4 36.0626 55.316 36.5346 55.316C37.2626 55.316 37.8506 55.5 38.2986 55.868C38.7466 56.236 38.9866 56.74 39.0186 57.38H37.9266C37.9026 57.036 37.7626 56.76 37.5066 56.552C37.2586 56.344 36.9226 56.24 36.4986 56.24C36.1066 56.24 35.7946 56.324 35.5626 56.492C35.3306 56.66 35.2146 56.88 35.2146 57.152C35.2146 57.368 35.2826 57.548 35.4186 57.692C35.5626 57.828 35.7386 57.94 35.9466 58.028C36.1626 58.108 36.4586 58.2 36.8346 58.304C37.3066 58.432 37.6906 58.56 37.9866 58.688C38.2826 58.808 38.5346 58.992 38.7426 59.24C38.9586 59.488 39.0706 59.812 39.0786 60.212C39.0786 60.572 38.9786 60.896 38.7786 61.184C38.5786 61.472 38.2946 61.7 37.9266 61.868C37.5666 62.028 37.1506 62.108 36.6786 62.108ZM42.5401 62.108C42.0361 62.108 41.5841 62.024 41.1841 61.856C40.7841 61.68 40.4681 61.44 40.2361 61.136C40.0041 60.824 39.8761 60.468 39.8521 60.068H40.9801C41.0121 60.396 41.1641 60.664 41.4361 60.872C41.7161 61.08 42.0801 61.184 42.5281 61.184C42.9441 61.184 43.2721 61.092 43.5121 60.908C43.7521 60.724 43.8721 60.492 43.8721 60.212C43.8721 59.924 43.7441 59.712 43.4881 59.576C43.2321 59.432 42.8361 59.292 42.3001 59.156C41.8121 59.028 41.4121 58.9 41.1001 58.772C40.7961 58.636 40.5321 58.44 40.3081 58.184C40.0921 57.92 39.9841 57.576 39.9841 57.152C39.9841 56.816 40.0841 56.508 40.2841 56.228C40.4841 55.948 40.7681 55.728 41.1361 55.568C41.5041 55.4 41.9241 55.316 42.3961 55.316C43.1241 55.316 43.7121 55.5 44.1601 55.868C44.6081 56.236 44.8481 56.74 44.8801 57.38H43.7881C43.7641 57.036 43.6241 56.76 43.3681 56.552C43.1201 56.344 42.7841 56.24 42.3601 56.24C41.9681 56.24 41.6561 56.324 41.4241 56.492C41.1921 56.66 41.0761 56.88 41.0761 57.152C41.0761 57.368 41.1441 57.548 41.2801 57.692C41.4241 57.828 41.6001 57.94 41.8081 58.028C42.0241 58.108 42.3201 58.2 42.6961 58.304C43.1681 58.432 43.5521 58.56 43.8481 58.688C44.1441 58.808 44.3961 58.992 44.6041 59.24C44.8201 59.488 44.9321 59.812 44.9401 60.212C44.9401 60.572 44.8401 60.896 44.6401 61.184C44.4401 61.472 44.1561 61.7 43.7881 61.868C43.4281 62.028 43.0121 62.108 42.5401 62.108ZM49.9569 53.12V62H48.8649V53.12H49.9569ZM57.41 58.46C57.41 58.668 57.398 58.888 57.374 59.12H52.118C52.158 59.768 52.378 60.276 52.778 60.644C53.186 61.004 53.678 61.184 54.254 61.184C54.726 61.184 55.118 61.076 55.43 60.86C55.75 60.636 55.974 60.34 56.102 59.972H57.278C57.102 60.604 56.75 61.12 56.222 61.52C55.694 61.912 55.038 62.108 54.254 62.108C53.63 62.108 53.07 61.968 52.574 61.688C52.086 61.408 51.702 61.012 51.422 60.5C51.142 59.98 51.002 59.38 51.002 58.7C51.002 58.02 51.138 57.424 51.41 56.912C51.682 56.4 52.062 56.008 52.55 55.736C53.046 55.456 53.614 55.316 54.254 55.316C54.878 55.316 55.43 55.452 55.91 55.724C56.39 55.996 56.758 56.372 57.014 56.852C57.278 57.324 57.41 57.86 57.41 58.46ZM56.282 58.232C56.282 57.816 56.19 57.46 56.006 57.164C55.822 56.86 55.57 56.632 55.25 56.48C54.938 56.32 54.59 56.24 54.206 56.24C53.654 56.24 53.182 56.416 52.79 56.768C52.406 57.12 52.186 57.608 52.13 58.232H56.282ZM60.7714 62.108C60.2674 62.108 59.8154 62.024 59.4154 61.856C59.0154 61.68 58.6994 61.44 58.4674 61.136C58.2354 60.824 58.1074 60.468 58.0834 60.068H59.2114C59.2434 60.396 59.3954 60.664 59.6674 60.872C59.9474 61.08 60.3114 61.184 60.7594 61.184C61.1754 61.184 61.5034 61.092 61.7434 60.908C61.9834 60.724 62.1034 60.492 62.1034 60.212C62.1034 59.924 61.9754 59.712 61.7194 59.576C61.4634 59.432 61.0674 59.292 60.5314 59.156C60.0434 59.028 59.6434 58.9 59.3314 58.772C59.0274 58.636 58.7634 58.44 58.5394 58.184C58.3234 57.92 58.2154 57.576 58.2154 57.152C58.2154 56.816 58.3154 56.508 58.5154 56.228C58.7154 55.948 58.9994 55.728 59.3674 55.568C59.7354 55.4 60.1554 55.316 60.6274 55.316C61.3554 55.316 61.9434 55.5 62.3914 55.868C62.8394 56.236 63.0794 56.74 63.1114 57.38H62.0194C61.9954 57.036 61.8554 56.76 61.5994 56.552C61.3514 56.344 61.0154 56.24 60.5914 56.24C60.1994 56.24 59.8874 56.324 59.6554 56.492C59.4234 56.66 59.3074 56.88 59.3074 57.152C59.3074 57.368 59.3754 57.548 59.5114 57.692C59.6554 57.828 59.8314 57.94 60.0394 58.028C60.2554 58.108 60.5514 58.2 60.9274 58.304C61.3994 58.432 61.7834 58.56 62.0794 58.688C62.3754 58.808 62.6274 58.992 62.8354 59.24C63.0514 59.488 63.1634 59.812 63.1714 60.212C63.1714 60.572 63.0714 60.896 62.8714 61.184C62.6714 61.472 62.3874 61.7 62.0194 61.868C61.6594 62.028 61.2434 62.108 60.7714 62.108ZM66.6329 62.108C66.1289 62.108 65.6769 62.024 65.2769 61.856C64.8769 61.68 64.5609 61.44 64.3289 61.136C64.0969 60.824 63.9689 60.468 63.9449 60.068H65.0729C65.1049 60.396 65.2569 60.664 65.5289 60.872C65.8089 61.08 66.1729 61.184 66.6209 61.184C67.0369 61.184 67.3649 61.092 67.6049 60.908C67.8449 60.724 67.9649 60.492 67.9649 60.212C67.9649 59.924 67.8369 59.712 67.5809 59.576C67.3249 59.432 66.9289 59.292 66.3929 59.156C65.9049 59.028 65.5049 58.9 65.1929 58.772C64.8889 58.636 64.6249 58.44 64.4009 58.184C64.1849 57.92 64.0769 57.576 64.0769 57.152C64.0769 56.816 64.1769 56.508 64.3769 56.228C64.5769 55.948 64.8609 55.728 65.2289 55.568C65.5969 55.4 66.0169 55.316 66.4889 55.316C67.2169 55.316 67.8049 55.5 68.2529 55.868C68.7009 56.236 68.9409 56.74 68.9729 57.38H67.8809C67.8569 57.036 67.7169 56.76 67.4609 56.552C67.2129 56.344 66.8769 56.24 66.4529 56.24C66.0609 56.24 65.7489 56.324 65.5169 56.492C65.2849 56.66 65.1689 56.88 65.1689 57.152C65.1689 57.368 65.2369 57.548 65.3729 57.692C65.5169 57.828 65.6929 57.94 65.9009 58.028C66.1169 58.108 66.4129 58.2 66.7889 58.304C67.2609 58.432 67.6449 58.56 67.9409 58.688C68.2369 58.808 68.4889 58.992 68.6969 59.24C68.9129 59.488 69.0249 59.812 69.0329 60.212C69.0329 60.572 68.9329 60.896 68.7329 61.184C68.5329 61.472 68.2489 61.7 67.8809 61.868C67.5209 62.028 67.1049 62.108 66.6329 62.108ZM81.7177 55.424L79.6657 62H78.5377L76.9537 56.78L75.3697 62H74.2417L72.1777 55.424H73.2937L74.8057 60.944L76.4377 55.424H77.5537L79.1497 60.956L80.6377 55.424H81.7177ZM82.9574 54.356C82.7494 54.356 82.5734 54.284 82.4294 54.14C82.2854 53.996 82.2134 53.82 82.2134 53.612C82.2134 53.404 82.2854 53.228 82.4294 53.084C82.5734 52.94 82.7494 52.868 82.9574 52.868C83.1574 52.868 83.3254 52.94 83.4614 53.084C83.6054 53.228 83.6774 53.404 83.6774 53.612C83.6774 53.82 83.6054 53.996 83.4614 54.14C83.3254 54.284 83.1574 54.356 82.9574 54.356ZM83.4854 55.424V62H82.3934V55.424H83.4854ZM86.2706 56.324V60.2C86.2706 60.52 86.3386 60.748 86.4746 60.884C86.6106 61.012 86.8466 61.076 87.1826 61.076H87.9866V62H87.0026C86.3946 62 85.9386 61.86 85.6346 61.58C85.3306 61.3 85.1786 60.84 85.1786 60.2V56.324H84.3266V55.424H85.1786V53.768H86.2706V55.424H87.9866V56.324H86.2706ZM92.1657 55.304C92.6617 55.304 93.1097 55.412 93.5097 55.628C93.9097 55.836 94.2217 56.152 94.4457 56.576C94.6777 57 94.7937 57.516 94.7937 58.124V62H93.7137V58.28C93.7137 57.624 93.5497 57.124 93.2217 56.78C92.8937 56.428 92.4457 56.252 91.8777 56.252C91.3017 56.252 90.8417 56.432 90.4977 56.792C90.1617 57.152 89.9937 57.676 89.9937 58.364V62H88.9017V53.12H89.9937V56.36C90.2097 56.024 90.5057 55.764 90.8817 55.58C91.2657 55.396 91.6937 55.304 92.1657 55.304ZM101.829 62.108C101.213 62.108 100.653 61.968 100.149 61.688C99.6527 61.408 99.2607 61.012 98.9727 60.5C98.6927 59.98 98.5527 59.38 98.5527 58.7C98.5527 58.028 98.6967 57.436 98.9847 56.924C99.2807 56.404 99.6807 56.008 100.185 55.736C100.689 55.456 101.253 55.316 101.877 55.316C102.501 55.316 103.065 55.456 103.569 55.736C104.073 56.008 104.469 56.4 104.757 56.912C105.053 57.424 105.201 58.02 105.201 58.7C105.201 59.38 105.049 59.98 104.745 60.5C104.449 61.012 104.045 61.408 103.533 61.688C103.021 61.968 102.453 62.108 101.829 62.108ZM101.829 61.148C102.221 61.148 102.589 61.056 102.933 60.872C103.277 60.688 103.553 60.412 103.761 60.044C103.977 59.676 104.085 59.228 104.085 58.7C104.085 58.172 103.981 57.724 103.773 57.356C103.565 56.988 103.293 56.716 102.957 56.54C102.621 56.356 102.257 56.264 101.865 56.264C101.465 56.264 101.097 56.356 100.761 56.54C100.433 56.716 100.169 56.988 99.9687 57.356C99.7687 57.724 99.6687 58.172 99.6687 58.7C99.6687 59.236 99.7647 59.688 99.9567 60.056C100.157 60.424 100.421 60.7 100.749 60.884C101.077 61.06 101.437 61.148 101.829 61.148ZM112.06 55.424V62H110.968V61.028C110.76 61.364 110.468 61.628 110.092 61.82C109.724 62.004 109.316 62.096 108.868 62.096C108.356 62.096 107.896 61.992 107.488 61.784C107.08 61.568 106.756 61.248 106.516 60.824C106.284 60.4 106.168 59.884 106.168 59.276V55.424H107.248V59.132C107.248 59.78 107.412 60.28 107.74 60.632C108.068 60.976 108.516 61.148 109.084 61.148C109.668 61.148 110.128 60.968 110.464 60.608C110.8 60.248 110.968 59.724 110.968 59.036V55.424H112.06ZM114.588 56.492C114.78 56.116 115.052 55.824 115.404 55.616C115.764 55.408 116.2 55.304 116.712 55.304V56.432H116.424C115.2 56.432 114.588 57.096 114.588 58.424V62H113.496V55.424H114.588V56.492ZM16.292 86.108C15.676 86.108 15.116 85.968 14.612 85.688C14.116 85.408 13.724 85.012 13.436 84.5C13.156 83.98 13.016 83.38 13.016 82.7C13.016 82.028 13.16 81.436 13.448 80.924C13.744 80.404 14.144 80.008 14.648 79.736C15.152 79.456 15.716 79.316 16.34 79.316C16.964 79.316 17.528 79.456 18.032 79.736C18.536 80.008 18.932 80.4 19.22 80.912C19.516 81.424 19.664 82.02 19.664 82.7C19.664 83.38 19.512 83.98 19.208 84.5C18.912 85.012 18.508 85.408 17.996 85.688C17.484 85.968 16.916 86.108 16.292 86.108ZM16.292 85.148C16.684 85.148 17.052 85.056 17.396 84.872C17.74 84.688 18.016 84.412 18.224 84.044C18.44 83.676 18.548 83.228 18.548 82.7C18.548 82.172 18.444 81.724 18.236 81.356C18.028 80.988 17.756 80.716 17.42 80.54C17.084 80.356 16.72 80.264 16.328 80.264C15.928 80.264 15.56 80.356 15.224 80.54C14.896 80.716 14.632 80.988 14.432 81.356C14.232 81.724 14.132 82.172 14.132 82.7C14.132 83.236 14.228 83.688 14.42 84.056C14.62 84.424 14.884 84.7 15.212 84.884C15.54 85.06 15.9 85.148 16.292 85.148ZM23.8958 79.304C24.6958 79.304 25.3438 79.548 25.8398 80.036C26.3358 80.516 26.5838 81.212 26.5838 82.124V86H25.5038V82.28C25.5038 81.624 25.3398 81.124 25.0118 80.78C24.6838 80.428 24.2358 80.252 23.6678 80.252C23.0918 80.252 22.6318 80.432 22.2878 80.792C21.9518 81.152 21.7838 81.676 21.7838 82.364V86H20.6918V79.424H21.7838V80.36C21.9998 80.024 22.2918 79.764 22.6598 79.58C23.0358 79.396 23.4478 79.304 23.8958 79.304ZM29.0516 77.12V86H27.9596V77.12H29.0516ZM31.0687 78.356C30.8607 78.356 30.6847 78.284 30.5407 78.14C30.3967 77.996 30.3247 77.82 30.3247 77.612C30.3247 77.404 30.3967 77.228 30.5407 77.084C30.6847 76.94 30.8607 76.868 31.0687 76.868C31.2687 76.868 31.4367 76.94 31.5727 77.084C31.7167 77.228 31.7887 77.404 31.7887 77.612C31.7887 77.82 31.7167 77.996 31.5727 78.14C31.4367 78.284 31.2687 78.356 31.0687 78.356ZM31.5967 79.424V86H30.5047V79.424H31.5967ZM36.2538 79.304C37.0538 79.304 37.7018 79.548 38.1978 80.036C38.6938 80.516 38.9418 81.212 38.9418 82.124V86H37.8618V82.28C37.8618 81.624 37.6978 81.124 37.3698 80.78C37.0418 80.428 36.5938 80.252 36.0258 80.252C35.4498 80.252 34.9898 80.432 34.6458 80.792C34.3098 81.152 34.1418 81.676 34.1418 82.364V86H33.0498V79.424H34.1418V80.36C34.3578 80.024 34.6498 79.764 35.0178 79.58C35.3938 79.396 35.8058 79.304 36.2538 79.304ZM46.3176 82.46C46.3176 82.668 46.3056 82.888 46.2816 83.12H41.0256C41.0656 83.768 41.2856 84.276 41.6856 84.644C42.0936 85.004 42.5856 85.184 43.1616 85.184C43.6336 85.184 44.0256 85.076 44.3376 84.86C44.6576 84.636 44.8816 84.34 45.0096 83.972H46.1856C46.0096 84.604 45.6576 85.12 45.1296 85.52C44.6016 85.912 43.9456 86.108 43.1616 86.108C42.5376 86.108 41.9776 85.968 41.4816 85.688C40.9936 85.408 40.6096 85.012 40.3296 84.5C40.0496 83.98 39.9096 83.38 39.9096 82.7C39.9096 82.02 40.0456 81.424 40.3176 80.912C40.5896 80.4 40.9696 80.008 41.4576 79.736C41.9536 79.456 42.5216 79.316 43.1616 79.316C43.7856 79.316 44.3376 79.452 44.8176 79.724C45.2976 79.996 45.6656 80.372 45.9216 80.852C46.1856 81.324 46.3176 81.86 46.3176 82.46ZM45.1896 82.232C45.1896 81.816 45.0976 81.46 44.9136 81.164C44.7296 80.86 44.4776 80.632 44.1576 80.48C43.8456 80.32 43.4976 80.24 43.1136 80.24C42.5616 80.24 42.0896 80.416 41.6976 80.768C41.3136 81.12 41.0936 81.608 41.0376 82.232H45.1896ZM53.0102 86.108C52.3942 86.108 51.8342 85.968 51.3302 85.688C50.8342 85.408 50.4422 85.012 50.1542 84.5C49.8742 83.98 49.7342 83.38 49.7342 82.7C49.7342 82.028 49.8782 81.436 50.1662 80.924C50.4622 80.404 50.8622 80.008 51.3662 79.736C51.8702 79.456 52.4342 79.316 53.0582 79.316C53.6822 79.316 54.2462 79.456 54.7502 79.736C55.2542 80.008 55.6502 80.4 55.9382 80.912C56.2342 81.424 56.3822 82.02 56.3822 82.7C56.3822 83.38 56.2302 83.98 55.9262 84.5C55.6302 85.012 55.2262 85.408 54.7142 85.688C54.2022 85.968 53.6342 86.108 53.0102 86.108ZM53.0102 85.148C53.4022 85.148 53.7702 85.056 54.1142 84.872C54.4582 84.688 54.7342 84.412 54.9422 84.044C55.1582 83.676 55.2662 83.228 55.2662 82.7C55.2662 82.172 55.1622 81.724 54.9542 81.356C54.7462 80.988 54.4742 80.716 54.1382 80.54C53.8022 80.356 53.4382 80.264 53.0462 80.264C52.6462 80.264 52.2782 80.356 51.9422 80.54C51.6142 80.716 51.3502 80.988 51.1502 81.356C50.9502 81.724 50.8502 82.172 50.8502 82.7C50.8502 83.236 50.9462 83.688 51.1382 84.056C51.3382 84.424 51.6022 84.7 51.9302 84.884C52.2582 85.06 52.6182 85.148 53.0102 85.148ZM58.502 77.12V86H57.41V77.12H58.502ZM59.5471 82.688C59.5471 82.016 59.6831 81.428 59.9551 80.924C60.2271 80.412 60.5991 80.016 61.0711 79.736C61.5511 79.456 62.0871 79.316 62.6791 79.316C63.1911 79.316 63.6671 79.436 64.1071 79.676C64.5471 79.908 64.8831 80.216 65.1151 80.6V77.12H66.2191V86H65.1151V84.764C64.8991 85.156 64.5791 85.48 64.1551 85.736C63.7311 85.984 63.2351 86.108 62.6671 86.108C62.0831 86.108 61.5511 85.964 61.0711 85.676C60.5991 85.388 60.2271 84.984 59.9551 84.464C59.6831 83.944 59.5471 83.352 59.5471 82.688ZM65.1151 82.7C65.1151 82.204 65.0151 81.772 64.8151 81.404C64.6151 81.036 64.3431 80.756 63.9991 80.564C63.6631 80.364 63.2911 80.264 62.8831 80.264C62.4751 80.264 62.1031 80.36 61.7671 80.552C61.4311 80.744 61.1631 81.024 60.9631 81.392C60.7631 81.76 60.6631 82.192 60.6631 82.688C60.6631 83.192 60.7631 83.632 60.9631 84.008C61.1631 84.376 61.4311 84.66 61.7671 84.86C62.1031 85.052 62.4751 85.148 62.8831 85.148C63.2911 85.148 63.6631 85.052 63.9991 84.86C64.3431 84.66 64.6151 84.376 64.8151 84.008C65.0151 83.632 65.1151 83.196 65.1151 82.7ZM71.5397 80.648C71.7637 80.256 72.0917 79.936 72.5237 79.688C72.9557 79.44 73.4477 79.316 73.9997 79.316C74.5917 79.316 75.1237 79.456 75.5957 79.736C76.0677 80.016 76.4397 80.412 76.7117 80.924C76.9837 81.428 77.1197 82.016 77.1197 82.688C77.1197 83.352 76.9837 83.944 76.7117 84.464C76.4397 84.984 76.0637 85.388 75.5837 85.676C75.1117 85.964 74.5837 86.108 73.9997 86.108C73.4317 86.108 72.9317 85.984 72.4997 85.736C72.0757 85.488 71.7557 85.172 71.5397 84.788V86H70.4477V77.12H71.5397V80.648ZM76.0037 82.688C76.0037 82.192 75.9037 81.76 75.7037 81.392C75.5037 81.024 75.2317 80.744 74.8877 80.552C74.5517 80.36 74.1797 80.264 73.7717 80.264C73.3717 80.264 72.9997 80.364 72.6557 80.564C72.3197 80.756 72.0477 81.04 71.8397 81.416C71.6397 81.784 71.5397 82.212 71.5397 82.7C71.5397 83.196 71.6397 83.632 71.8397 84.008C72.0477 84.376 72.3197 84.66 72.6557 84.86C72.9997 85.052 73.3717 85.148 73.7717 85.148C74.1797 85.148 74.5517 85.052 74.8877 84.86C75.2317 84.66 75.5037 84.376 75.7037 84.008C75.9037 83.632 76.0037 83.192 76.0037 82.688ZM81.0171 86.108C80.4011 86.108 79.8411 85.968 79.3371 85.688C78.8411 85.408 78.4491 85.012 78.1611 84.5C77.8811 83.98 77.7411 83.38 77.7411 82.7C77.7411 82.028 77.8851 81.436 78.1731 80.924C78.4691 80.404 78.8691 80.008 79.3731 79.736C79.8771 79.456 80.4411 79.316 81.0651 79.316C81.6891 79.316 82.2531 79.456 82.7571 79.736C83.2611 80.008 83.6571 80.4 83.9451 80.912C84.2411 81.424 84.3891 82.02 84.3891 82.7C84.3891 83.38 84.2371 83.98 83.9331 84.5C83.6371 85.012 83.2331 85.408 82.7211 85.688C82.2091 85.968 81.6411 86.108 81.0171 86.108ZM81.0171 85.148C81.4091 85.148 81.7771 85.056 82.1211 84.872C82.4651 84.688 82.7411 84.412 82.9491 84.044C83.1651 83.676 83.2731 83.228 83.2731 82.7C83.2731 82.172 83.1691 81.724 82.9611 81.356C82.7531 80.988 82.4811 80.716 82.1451 80.54C81.8091 80.356 81.4451 80.264 81.0531 80.264C80.6531 80.264 80.2851 80.356 79.9491 80.54C79.6211 80.716 79.3571 80.988 79.1571 81.356C78.9571 81.724 78.8571 82.172 78.8571 82.7C78.8571 83.236 78.9531 83.688 79.1451 84.056C79.3451 84.424 79.6091 84.7 79.9371 84.884C80.2651 85.06 80.6251 85.148 81.0171 85.148ZM88.2849 86.108C87.6689 86.108 87.1089 85.968 86.6049 85.688C86.1089 85.408 85.7169 85.012 85.4289 84.5C85.1489 83.98 85.0089 83.38 85.0089 82.7C85.0089 82.028 85.1529 81.436 85.4409 80.924C85.7369 80.404 86.1369 80.008 86.6409 79.736C87.1449 79.456 87.7089 79.316 88.3329 79.316C88.9569 79.316 89.5209 79.456 90.0249 79.736C90.5289 80.008 90.9249 80.4 91.2129 80.912C91.5089 81.424 91.6569 82.02 91.6569 82.7C91.6569 83.38 91.5049 83.98 91.2009 84.5C90.9049 85.012 90.5009 85.408 89.9889 85.688C89.4769 85.968 88.9089 86.108 88.2849 86.108ZM88.2849 85.148C88.6769 85.148 89.0449 85.056 89.3889 84.872C89.7329 84.688 90.0089 84.412 90.2169 84.044C90.4329 83.676 90.5409 83.228 90.5409 82.7C90.5409 82.172 90.4369 81.724 90.2289 81.356C90.0209 80.988 89.7489 80.716 89.4129 80.54C89.0769 80.356 88.7129 80.264 88.3209 80.264C87.9209 80.264 87.5529 80.356 87.2169 80.54C86.8889 80.716 86.6249 80.988 86.4249 81.356C86.2249 81.724 86.1249 82.172 86.1249 82.7C86.1249 83.236 86.2209 83.688 86.4129 84.056C86.6129 84.424 86.8769 84.7 87.2049 84.884C87.5329 85.06 87.8929 85.148 88.2849 85.148ZM96.3567 86L93.7767 83.096V86H92.6847V77.12H93.7767V82.34L96.3087 79.424H97.8327L94.7367 82.7L97.8447 86H96.3567ZM17.3072 105.492C17.4992 105.116 17.7712 104.824 18.1232 104.616C18.4832 104.408 18.9192 104.304 19.4312 104.304V105.432H19.1432C17.9192 105.432 17.3072 106.096 17.3072 107.424V111H16.2152V104.424H17.3072V105.492ZM26.2838 107.46C26.2838 107.668 26.2718 107.888 26.2478 108.12H20.9918C21.0318 108.768 21.2518 109.276 21.6518 109.644C22.0598 110.004 22.5518 110.184 23.1278 110.184C23.5998 110.184 23.9918 110.076 24.3038 109.86C24.6238 109.636 24.8478 109.34 24.9758 108.972H26.1518C25.9758 109.604 25.6238 110.12 25.0958 110.52C24.5678 110.912 23.9118 111.108 23.1278 111.108C22.5038 111.108 21.9438 110.968 21.4478 110.688C20.9598 110.408 20.5758 110.012 20.2958 109.5C20.0158 108.98 19.8758 108.38 19.8758 107.7C19.8758 107.02 20.0118 106.424 20.2838 105.912C20.5558 105.4 20.9358 105.008 21.4238 104.736C21.9198 104.456 22.4878 104.316 23.1278 104.316C23.7518 104.316 24.3038 104.452 24.7838 104.724C25.2638 104.996 25.6318 105.372 25.8878 105.852C26.1518 106.324 26.2838 106.86 26.2838 107.46ZM25.1558 107.232C25.1558 106.816 25.0638 106.46 24.8798 106.164C24.6958 105.86 24.4438 105.632 24.1238 105.48C23.8118 105.32 23.4638 105.24 23.0798 105.24C22.5278 105.24 22.0558 105.416 21.6638 105.768C21.2798 106.12 21.0598 106.608 21.0038 107.232H25.1558ZM26.9092 107.688C26.9092 107.016 27.0452 106.428 27.3172 105.924C27.5892 105.412 27.9612 105.016 28.4332 104.736C28.9132 104.456 29.4452 104.316 30.0292 104.316C30.6052 104.316 31.1052 104.44 31.5292 104.688C31.9532 104.936 32.2692 105.248 32.4772 105.624V104.424H33.5812V111H32.4772V109.776C32.2612 110.16 31.9372 110.48 31.5052 110.736C31.0812 110.984 30.5852 111.108 30.0172 111.108C29.4332 111.108 28.9052 110.964 28.4332 110.676C27.9612 110.388 27.5892 109.984 27.3172 109.464C27.0452 108.944 26.9092 108.352 26.9092 107.688ZM32.4772 107.7C32.4772 107.204 32.3772 106.772 32.1772 106.404C31.9772 106.036 31.7052 105.756 31.3612 105.564C31.0252 105.364 30.6532 105.264 30.2452 105.264C29.8372 105.264 29.4652 105.36 29.1292 105.552C28.7932 105.744 28.5252 106.024 28.3252 106.392C28.1252 106.76 28.0252 107.192 28.0252 107.688C28.0252 108.192 28.1252 108.632 28.3252 109.008C28.5252 109.376 28.7932 109.66 29.1292 109.86C29.4652 110.052 29.8372 110.148 30.2452 110.148C30.6532 110.148 31.0252 110.052 31.3612 109.86C31.7052 109.66 31.9772 109.376 32.1772 109.008C32.3772 108.632 32.4772 108.196 32.4772 107.7ZM34.6106 107.688C34.6106 107.016 34.7466 106.428 35.0186 105.924C35.2906 105.412 35.6626 105.016 36.1346 104.736C36.6146 104.456 37.1506 104.316 37.7426 104.316C38.2546 104.316 38.7306 104.436 39.1706 104.676C39.6106 104.908 39.9466 105.216 40.1786 105.6V102.12H41.2826V111H40.1786V109.764C39.9626 110.156 39.6426 110.48 39.2186 110.736C38.7946 110.984 38.2986 111.108 37.7306 111.108C37.1466 111.108 36.6146 110.964 36.1346 110.676C35.6626 110.388 35.2906 109.984 35.0186 109.464C34.7466 108.944 34.6106 108.352 34.6106 107.688ZM40.1786 107.7C40.1786 107.204 40.0786 106.772 39.8786 106.404C39.6786 106.036 39.4066 105.756 39.0626 105.564C38.7266 105.364 38.3546 105.264 37.9466 105.264C37.5386 105.264 37.1666 105.36 36.8306 105.552C36.4946 105.744 36.2266 106.024 36.0266 106.392C35.8266 106.76 35.7266 107.192 35.7266 107.688C35.7266 108.192 35.8266 108.632 36.0266 109.008C36.2266 109.376 36.4946 109.66 36.8306 109.86C37.1666 110.052 37.5386 110.148 37.9466 110.148C38.3546 110.148 38.7266 110.052 39.0626 109.86C39.4066 109.66 39.6786 109.376 39.8786 109.008C40.0786 108.632 40.1786 108.196 40.1786 107.7ZM43.2839 103.356C43.0759 103.356 42.8999 103.284 42.7559 103.14C42.6119 102.996 42.5399 102.82 42.5399 102.612C42.5399 102.404 42.6119 102.228 42.7559 102.084C42.8999 101.94 43.0759 101.868 43.2839 101.868C43.4839 101.868 43.6519 101.94 43.7879 102.084C43.9319 102.228 44.0039 102.404 44.0039 102.612C44.0039 102.82 43.9319 102.996 43.7879 103.14C43.6519 103.284 43.4839 103.356 43.2839 103.356ZM43.8119 104.424V111H42.7199V104.424H43.8119ZM48.4691 104.304C49.2691 104.304 49.9171 104.548 50.4131 105.036C50.9091 105.516 51.1571 106.212 51.1571 107.124V111H50.0771V107.28C50.0771 106.624 49.9131 106.124 49.5851 105.78C49.2571 105.428 48.8091 105.252 48.2411 105.252C47.6651 105.252 47.2051 105.432 46.8611 105.792C46.5251 106.152 46.3571 106.676 46.3571 107.364V111H45.2651V104.424H46.3571V105.36C46.5731 105.024 46.8651 104.764 47.2331 104.58C47.6091 104.396 48.0211 104.304 48.4691 104.304ZM55.2448 104.316C55.8128 104.316 56.3088 104.44 56.7328 104.688C57.1648 104.936 57.4848 105.248 57.6928 105.624V104.424H58.7968V111.144C58.7968 111.744 58.6688 112.276 58.4128 112.74C58.1568 113.212 57.7888 113.58 57.3088 113.844C56.8368 114.108 56.2848 114.24 55.6528 114.24C54.7888 114.24 54.0688 114.036 53.4928 113.628C52.9168 113.22 52.5768 112.664 52.4728 111.96H53.5528C53.6728 112.36 53.9208 112.68 54.2968 112.92C54.6728 113.168 55.1248 113.292 55.6528 113.292C56.2528 113.292 56.7408 113.104 57.1168 112.728C57.5008 112.352 57.6928 111.824 57.6928 111.144V109.764C57.4768 110.148 57.1568 110.468 56.7328 110.724C56.3088 110.98 55.8128 111.108 55.2448 111.108C54.6608 111.108 54.1288 110.964 53.6488 110.676C53.1768 110.388 52.8048 109.984 52.5328 109.464C52.2608 108.944 52.1248 108.352 52.1248 107.688C52.1248 107.016 52.2608 106.428 52.5328 105.924C52.8048 105.412 53.1768 105.016 53.6488 104.736C54.1288 104.456 54.6608 104.316 55.2448 104.316ZM57.6928 107.7C57.6928 107.204 57.5928 106.772 57.3928 106.404C57.1928 106.036 56.9208 105.756 56.5768 105.564C56.2408 105.364 55.8688 105.264 55.4608 105.264C55.0528 105.264 54.6808 105.36 54.3448 105.552C54.0088 105.744 53.7408 106.024 53.5408 106.392C53.3408 106.76 53.2408 107.192 53.2408 107.688C53.2408 108.192 53.3408 108.632 53.5408 109.008C53.7408 109.376 54.0088 109.66 54.3448 109.86C54.6808 110.052 55.0528 110.148 55.4608 110.148C55.8688 110.148 56.2408 110.052 56.5768 109.86C56.9208 109.66 57.1928 109.376 57.3928 109.008C57.5928 108.632 57.6928 108.196 57.6928 107.7ZM61.6502 102.636L61.5182 108.636H60.6062L60.4742 102.636H61.6502ZM61.1102 111.072C60.9022 111.072 60.7262 111 60.5822 110.856C60.4382 110.712 60.3662 110.536 60.3662 110.328C60.3662 110.12 60.4382 109.944 60.5822 109.8C60.7262 109.656 60.9022 109.584 61.1102 109.584C61.3102 109.584 61.4782 109.656 61.6142 109.8C61.7582 109.944 61.8302 110.12 61.8302 110.328C61.8302 110.536 61.7582 110.712 61.6142 110.856C61.4782 111 61.3102 111.072 61.1102 111.072Z" fill="white"/>
</svg>
