<svg width="132" height="138" viewBox="0 0 132 138" fill="none" xmlns="http://www.w3.org/2000/svg">
<g clip-path="url(#clip0_357_5034)">
<rect width="132" height="138" rx="30" fill="white"/>
<path d="M78.335 109.5L60.625 78.22H53.035V109.5H36.935V29.23H67.065C73.275 29.23 78.565 30.3417 82.935 32.565C87.305 34.7117 90.5633 37.6633 92.71 41.42C94.9333 45.1 96.045 49.24 96.045 53.84C96.045 59.13 94.5117 63.9217 91.445 68.215C88.3783 72.4317 83.8167 75.345 77.76 76.955L96.965 109.5H78.335ZM53.035 66.145H66.49C70.86 66.145 74.1183 65.11 76.265 63.04C78.4117 60.8933 79.485 57.9417 79.485 54.185C79.485 50.505 78.4117 47.6683 76.265 45.675C74.1183 43.605 70.86 42.57 66.49 42.57H53.035V66.145Z" fill="black"/>
</g>
<defs>
<clipPath id="clip0_357_5034">
<rect width="132" height="138" rx="30" fill="white"/>
</clipPath>
</defs>
</svg>
