<svg width="132" height="140" viewBox="0 0 132 140" fill="none" xmlns="http://www.w3.org/2000/svg">
<g clip-path="url(#clip0_357_5038)">
<rect width="132" height="140" rx="30" fill="#B9FF66"/>
<path d="M78.335 110.5L60.625 79.22H53.035V110.5H36.935V30.23H67.065C73.275 30.23 78.565 31.3417 82.935 33.565C87.305 35.7117 90.5633 38.6633 92.71 42.42C94.9333 46.1 96.045 50.24 96.045 54.84C96.045 60.13 94.5117 64.9217 91.445 69.215C88.3783 73.4317 83.8167 76.345 77.76 77.955L96.965 110.5H78.335ZM53.035 67.145H66.49C70.86 67.145 74.1183 66.11 76.265 64.04C78.4117 61.8933 79.485 58.9417 79.485 55.185C79.485 51.505 78.4117 48.6683 76.265 46.675C74.1183 44.605 70.86 43.57 66.49 43.57H53.035V67.145Z" fill="black"/>
</g>
<defs>
<clipPath id="clip0_357_5038">
<rect width="132" height="140" rx="30" fill="white"/>
</clipPath>
</defs>
</svg>
