<svg width="269" height="427" viewBox="0 0 269 427" fill="none" xmlns="http://www.w3.org/2000/svg">
<g clip-path="url(#clip0_491_4312)">
<rect width="133" height="140" rx="30" fill="#B9FF66"/>
<path d="M82.155 95.205H50.185L44.895 110.5H27.99L56.855 30.115H75.6L104.465 110.5H87.445L82.155 95.205ZM77.785 82.325L66.17 48.745L54.555 82.325H77.785Z" fill="black"/>
</g>
<g clip-path="url(#clip1_491_4312)">
<rect x="137" y="289" width="132" height="138" rx="30" fill="white"/>
<path d="M215.335 398.5L197.625 367.22H190.035V398.5H173.935V318.23H204.065C210.275 318.23 215.565 319.342 219.935 321.565C224.305 323.712 227.563 326.663 229.71 330.42C231.933 334.1 233.045 338.24 233.045 342.84C233.045 348.13 231.512 352.922 228.445 357.215C225.378 361.432 220.817 364.345 214.76 365.955L233.965 398.5H215.335ZM190.035 355.145H203.49C207.86 355.145 211.118 354.11 213.265 352.04C215.412 349.893 216.485 346.942 216.485 343.185C216.485 339.505 215.412 336.668 213.265 334.675C211.118 332.605 207.86 331.57 203.49 331.57H190.035V355.145Z" fill="black"/>
</g>
<g clip-path="url(#clip2_491_4312)">
<rect y="144" width="133" height="140" rx="30" fill="white"/>
<path d="M44.395 257V242.165H57.85V191.335H44.395V176.5H88.44V191.335H75.1V242.165H88.44V257H44.395Z" fill="black"/>
</g>
<g clip-path="url(#clip3_491_4312)">
<rect x="137" y="144" width="132" height="140" rx="30" fill="#B9FF66"/>
<path d="M215.335 254.5L197.625 223.22H190.035V254.5H173.935V174.23H204.065C210.275 174.23 215.565 175.342 219.935 177.565C224.305 179.712 227.563 182.663 229.71 186.42C231.933 190.1 233.045 194.24 233.045 198.84C233.045 204.13 231.512 208.922 228.445 213.215C225.378 217.432 220.817 220.345 214.76 221.955L233.965 254.5H215.335ZM190.035 211.145H203.49C207.86 211.145 211.118 210.11 213.265 208.04C215.412 205.893 216.485 202.942 216.485 199.185C216.485 195.505 215.412 192.668 213.265 190.675C211.118 188.605 207.86 187.57 203.49 187.57H190.035V211.145Z" fill="black"/>
</g>
<rect y="289" width="133" height="138" rx="30" fill="#110F0F"/>
<path d="M37.4211 325L35.4291 321.58H34.1091V325H33.0171V316.636H35.7171C36.3491 316.636 36.8811 316.744 37.3131 316.96C37.7531 317.176 38.0811 317.468 38.2971 317.836C38.5131 318.204 38.6211 318.624 38.6211 319.096C38.6211 319.672 38.4531 320.18 38.1171 320.62C37.7891 321.06 37.2931 321.352 36.6291 321.496L38.7291 325H37.4211ZM34.1091 320.704H35.7171C36.3091 320.704 36.7531 320.56 37.0491 320.272C37.3451 319.976 37.4931 319.584 37.4931 319.096C37.4931 318.6 37.3451 318.216 37.0491 317.944C36.7611 317.672 36.3171 317.536 35.7171 317.536H34.1091V320.704ZM45.9098 321.46C45.9098 321.668 45.8978 321.888 45.8738 322.12H40.6178C40.6578 322.768 40.8778 323.276 41.2778 323.644C41.6858 324.004 42.1778 324.184 42.7538 324.184C43.2258 324.184 43.6178 324.076 43.9298 323.86C44.2498 323.636 44.4738 323.34 44.6018 322.972H45.7778C45.6018 323.604 45.2498 324.12 44.7218 324.52C44.1938 324.912 43.5378 325.108 42.7538 325.108C42.1298 325.108 41.5698 324.968 41.0738 324.688C40.5858 324.408 40.2018 324.012 39.9218 323.5C39.6418 322.98 39.5018 322.38 39.5018 321.7C39.5018 321.02 39.6378 320.424 39.9098 319.912C40.1818 319.4 40.5618 319.008 41.0498 318.736C41.5458 318.456 42.1138 318.316 42.7538 318.316C43.3778 318.316 43.9298 318.452 44.4098 318.724C44.8898 318.996 45.2578 319.372 45.5138 319.852C45.7778 320.324 45.9098 320.86 45.9098 321.46ZM44.7818 321.232C44.7818 320.816 44.6898 320.46 44.5058 320.164C44.3218 319.86 44.0698 319.632 43.7498 319.48C43.4378 319.32 43.0898 319.24 42.7058 319.24C42.1538 319.24 41.6818 319.416 41.2898 319.768C40.9058 320.12 40.6858 320.608 40.6298 321.232H44.7818ZM46.5352 321.688C46.5352 321.016 46.6712 320.428 46.9432 319.924C47.2152 319.412 47.5872 319.016 48.0592 318.736C48.5392 318.456 49.0712 318.316 49.6552 318.316C50.2312 318.316 50.7312 318.44 51.1552 318.688C51.5792 318.936 51.8952 319.248 52.1032 319.624V318.424H53.2072V325H52.1032V323.776C51.8872 324.16 51.5632 324.48 51.1312 324.736C50.7072 324.984 50.2112 325.108 49.6432 325.108C49.0592 325.108 48.5312 324.964 48.0592 324.676C47.5872 324.388 47.2152 323.984 46.9432 323.464C46.6712 322.944 46.5352 322.352 46.5352 321.688ZM52.1032 321.7C52.1032 321.204 52.0032 320.772 51.8032 320.404C51.6032 320.036 51.3312 319.756 50.9872 319.564C50.6512 319.364 50.2792 319.264 49.8712 319.264C49.4632 319.264 49.0912 319.36 48.7552 319.552C48.4192 319.744 48.1512 320.024 47.9512 320.392C47.7512 320.76 47.6512 321.192 47.6512 321.688C47.6512 322.192 47.7512 322.632 47.9512 323.008C48.1512 323.376 48.4192 323.66 48.7552 323.86C49.0912 324.052 49.4632 324.148 49.8712 324.148C50.2792 324.148 50.6512 324.052 50.9872 323.86C51.3312 323.66 51.6032 323.376 51.8032 323.008C52.0032 322.632 52.1032 322.196 52.1032 321.7ZM54.2366 321.688C54.2366 321.016 54.3726 320.428 54.6446 319.924C54.9166 319.412 55.2886 319.016 55.7606 318.736C56.2406 318.456 56.7766 318.316 57.3686 318.316C57.8806 318.316 58.3566 318.436 58.7966 318.676C59.2366 318.908 59.5726 319.216 59.8046 319.6V316.12H60.9086V325H59.8046V323.764C59.5886 324.156 59.2686 324.48 58.8446 324.736C58.4206 324.984 57.9246 325.108 57.3566 325.108C56.7726 325.108 56.2406 324.964 55.7606 324.676C55.2886 324.388 54.9166 323.984 54.6446 323.464C54.3726 322.944 54.2366 322.352 54.2366 321.688ZM59.8046 321.7C59.8046 321.204 59.7046 320.772 59.5046 320.404C59.3046 320.036 59.0326 319.756 58.6886 319.564C58.3526 319.364 57.9806 319.264 57.5726 319.264C57.1646 319.264 56.7926 319.36 56.4566 319.552C56.1206 319.744 55.8526 320.024 55.6526 320.392C55.4526 320.76 55.3526 321.192 55.3526 321.688C55.3526 322.192 55.4526 322.632 55.6526 323.008C55.8526 323.376 56.1206 323.66 56.4566 323.86C56.7926 324.052 57.1646 324.148 57.5726 324.148C57.9806 324.148 58.3526 324.052 58.6886 323.86C59.0326 323.66 59.3046 323.376 59.5046 323.008C59.7046 322.632 59.8046 322.196 59.8046 321.7ZM73.0452 318.304C73.5572 318.304 74.0132 318.412 74.4132 318.628C74.8132 318.836 75.1292 319.152 75.3612 319.576C75.5932 320 75.7092 320.516 75.7092 321.124V325H74.6292V321.28C74.6292 320.624 74.4652 320.124 74.1372 319.78C73.8172 319.428 73.3812 319.252 72.8292 319.252C72.2612 319.252 71.8092 319.436 71.4732 319.804C71.1372 320.164 70.9692 320.688 70.9692 321.376V325H69.8892V321.28C69.8892 320.624 69.7252 320.124 69.3972 319.78C69.0772 319.428 68.6412 319.252 68.0892 319.252C67.5212 319.252 67.0692 319.436 66.7332 319.804C66.3972 320.164 66.2292 320.688 66.2292 321.376V325H65.1372V318.424H66.2292V319.372C66.4452 319.028 66.7332 318.764 67.0932 318.58C67.4612 318.396 67.8652 318.304 68.3052 318.304C68.8572 318.304 69.3452 318.428 69.7692 318.676C70.1932 318.924 70.5092 319.288 70.7172 319.768C70.9012 319.304 71.2052 318.944 71.6292 318.688C72.0532 318.432 72.5252 318.304 73.0452 318.304ZM79.9605 325.108C79.3445 325.108 78.7845 324.968 78.2805 324.688C77.7845 324.408 77.3925 324.012 77.1045 323.5C76.8245 322.98 76.6845 322.38 76.6845 321.7C76.6845 321.028 76.8285 320.436 77.1165 319.924C77.4125 319.404 77.8125 319.008 78.3165 318.736C78.8205 318.456 79.3845 318.316 80.0085 318.316C80.6325 318.316 81.1965 318.456 81.7005 318.736C82.2045 319.008 82.6005 319.4 82.8885 319.912C83.1845 320.424 83.3325 321.02 83.3325 321.7C83.3325 322.38 83.1805 322.98 82.8765 323.5C82.5805 324.012 82.1765 324.408 81.6645 324.688C81.1525 324.968 80.5845 325.108 79.9605 325.108ZM79.9605 324.148C80.3525 324.148 80.7205 324.056 81.0645 323.872C81.4085 323.688 81.6845 323.412 81.8925 323.044C82.1085 322.676 82.2165 322.228 82.2165 321.7C82.2165 321.172 82.1125 320.724 81.9045 320.356C81.6965 319.988 81.4245 319.716 81.0885 319.54C80.7525 319.356 80.3885 319.264 79.9965 319.264C79.5965 319.264 79.2285 319.356 78.8925 319.54C78.5645 319.716 78.3005 319.988 78.1005 320.356C77.9005 320.724 77.8005 321.172 77.8005 321.7C77.8005 322.236 77.8965 322.688 78.0885 323.056C78.2885 323.424 78.5525 323.7 78.8805 323.884C79.2085 324.06 79.5685 324.148 79.9605 324.148ZM85.4523 319.492C85.6443 319.116 85.9163 318.824 86.2683 318.616C86.6283 318.408 87.0643 318.304 87.5763 318.304V319.432H87.2883C86.0643 319.432 85.4523 320.096 85.4523 321.424V325H84.3603V318.424H85.4523V319.492ZM94.4288 321.46C94.4288 321.668 94.4168 321.888 94.3928 322.12H89.1368C89.1768 322.768 89.3968 323.276 89.7968 323.644C90.2048 324.004 90.6968 324.184 91.2728 324.184C91.7448 324.184 92.1368 324.076 92.4488 323.86C92.7688 323.636 92.9928 323.34 93.1208 322.972H94.2968C94.1208 323.604 93.7688 324.12 93.2408 324.52C92.7128 324.912 92.0568 325.108 91.2728 325.108C90.6488 325.108 90.0888 324.968 89.5928 324.688C89.1048 324.408 88.7208 324.012 88.4408 323.5C88.1608 322.98 88.0208 322.38 88.0208 321.7C88.0208 321.02 88.1568 320.424 88.4288 319.912C88.7008 319.4 89.0808 319.008 89.5688 318.736C90.0648 318.456 90.6328 318.316 91.2728 318.316C91.8968 318.316 92.4488 318.452 92.9288 318.724C93.4088 318.996 93.7768 319.372 94.0328 319.852C94.2968 320.324 94.4288 320.86 94.4288 321.46ZM93.3008 321.232C93.3008 320.816 93.2088 320.46 93.0248 320.164C92.8408 319.86 92.5888 319.632 92.2688 319.48C91.9568 319.32 91.6088 319.24 91.2248 319.24C90.6728 319.24 90.2008 319.416 89.8088 319.768C89.4248 320.12 89.2048 320.608 89.1488 321.232H93.3008ZM97.8455 321.688C97.8455 321.016 97.9815 320.428 98.2535 319.924C98.5255 319.412 98.8975 319.016 99.3695 318.736C99.8495 318.456 100.381 318.316 100.965 318.316C101.541 318.316 102.041 318.44 102.465 318.688C102.889 318.936 103.205 319.248 103.413 319.624V318.424H104.517V325H103.413V323.776C103.197 324.16 102.873 324.48 102.441 324.736C102.017 324.984 101.521 325.108 100.953 325.108C100.369 325.108 99.8415 324.964 99.3695 324.676C98.8975 324.388 98.5255 323.984 98.2535 323.464C97.9815 322.944 97.8455 322.352 97.8455 321.688ZM103.413 321.7C103.413 321.204 103.313 320.772 103.113 320.404C102.913 320.036 102.641 319.756 102.297 319.564C101.961 319.364 101.589 319.264 101.181 319.264C100.773 319.264 100.401 319.36 100.065 319.552C99.7295 319.744 99.4615 320.024 99.2615 320.392C99.0615 320.76 98.9615 321.192 98.9615 321.688C98.9615 322.192 99.0615 322.632 99.2615 323.008C99.4615 323.376 99.7295 323.66 100.065 323.86C100.401 324.052 100.773 324.148 101.181 324.148C101.589 324.148 101.961 324.052 102.297 323.86C102.641 323.66 102.913 323.376 103.113 323.008C103.313 322.632 103.413 322.196 103.413 321.7ZM109.159 318.304C109.959 318.304 110.607 318.548 111.103 319.036C111.599 319.516 111.847 320.212 111.847 321.124V325H110.767V321.28C110.767 320.624 110.603 320.124 110.275 319.78C109.947 319.428 109.499 319.252 108.931 319.252C108.355 319.252 107.895 319.432 107.551 319.792C107.215 320.152 107.047 320.676 107.047 321.364V325H105.955V318.424H107.047V319.36C107.263 319.024 107.555 318.764 107.923 318.58C108.299 318.396 108.711 318.304 109.159 318.304ZM112.815 321.688C112.815 321.016 112.951 320.428 113.223 319.924C113.495 319.412 113.867 319.016 114.339 318.736C114.819 318.456 115.355 318.316 115.947 318.316C116.459 318.316 116.935 318.436 117.375 318.676C117.815 318.908 118.151 319.216 118.383 319.6V316.12H119.487V325H118.383V323.764C118.167 324.156 117.847 324.48 117.423 324.736C116.999 324.984 116.503 325.108 115.935 325.108C115.351 325.108 114.819 324.964 114.339 324.676C113.867 324.388 113.495 323.984 113.223 323.464C112.951 322.944 112.815 322.352 112.815 321.688ZM118.383 321.7C118.383 321.204 118.283 320.772 118.083 320.404C117.883 320.036 117.611 319.756 117.267 319.564C116.931 319.364 116.559 319.264 116.151 319.264C115.743 319.264 115.371 319.36 115.035 319.552C114.699 319.744 114.431 320.024 114.231 320.392C114.031 320.76 113.931 321.192 113.931 321.688C113.931 322.192 114.031 322.632 114.231 323.008C114.431 323.376 114.699 323.66 115.035 323.86C115.371 324.052 115.743 324.148 116.151 324.148C116.559 324.148 116.931 324.052 117.267 323.86C117.611 323.66 117.883 323.376 118.083 323.008C118.283 322.632 118.383 322.196 118.383 321.7ZM19.1112 350.108C18.6072 350.108 18.1552 350.024 17.7552 349.856C17.3552 349.68 17.0392 349.44 16.8072 349.136C16.5752 348.824 16.4472 348.468 16.4232 348.068H17.5512C17.5832 348.396 17.7352 348.664 18.0072 348.872C18.2872 349.08 18.6512 349.184 19.0992 349.184C19.5152 349.184 19.8432 349.092 20.0832 348.908C20.3232 348.724 20.4432 348.492 20.4432 348.212C20.4432 347.924 20.3152 347.712 20.0592 347.576C19.8032 347.432 19.4072 347.292 18.8712 347.156C18.3832 347.028 17.9832 346.9 17.6712 346.772C17.3672 346.636 17.1032 346.44 16.8792 346.184C16.6632 345.92 16.5552 345.576 16.5552 345.152C16.5552 344.816 16.6552 344.508 16.8552 344.228C17.0552 343.948 17.3392 343.728 17.7072 343.568C18.0752 343.4 18.4952 343.316 18.9672 343.316C19.6952 343.316 20.2832 343.5 20.7312 343.868C21.1792 344.236 21.4192 344.74 21.4512 345.38H20.3592C20.3352 345.036 20.1952 344.76 19.9392 344.552C19.6912 344.344 19.3552 344.24 18.9312 344.24C18.5392 344.24 18.2272 344.324 17.9952 344.492C17.7632 344.66 17.6472 344.88 17.6472 345.152C17.6472 345.368 17.7152 345.548 17.8512 345.692C17.9952 345.828 18.1712 345.94 18.3792 346.028C18.5952 346.108 18.8912 346.2 19.2672 346.304C19.7392 346.432 20.1232 346.56 20.4192 346.688C20.7152 346.808 20.9672 346.992 21.1752 347.24C21.3912 347.488 21.5032 347.812 21.5112 348.212C21.5112 348.572 21.4112 348.896 21.2112 349.184C21.0112 349.472 20.7272 349.7 20.3592 349.868C19.9992 350.028 19.5832 350.108 19.1112 350.108ZM23.9768 344.324V348.2C23.9768 348.52 24.0448 348.748 24.1808 348.884C24.3168 349.012 24.5528 349.076 24.8888 349.076H25.6928V350H24.7088C24.1008 350 23.6448 349.86 23.3408 349.58C23.0368 349.3 22.8848 348.84 22.8848 348.2V344.324H22.0328V343.424H22.8848V341.768H23.9768V343.424H25.6928V344.324H23.9768ZM27.6998 344.492C27.8918 344.116 28.1638 343.824 28.5158 343.616C28.8758 343.408 29.3118 343.304 29.8238 343.304V344.432H29.5358C28.3118 344.432 27.6998 345.096 27.6998 346.424V350H26.6078V343.424H27.6998V344.492ZM36.6764 346.46C36.6764 346.668 36.6644 346.888 36.6404 347.12H31.3844C31.4244 347.768 31.6444 348.276 32.0444 348.644C32.4524 349.004 32.9444 349.184 33.5204 349.184C33.9924 349.184 34.3844 349.076 34.6964 348.86C35.0164 348.636 35.2404 348.34 35.3684 347.972H36.5444C36.3684 348.604 36.0164 349.12 35.4884 349.52C34.9604 349.912 34.3044 350.108 33.5204 350.108C32.8964 350.108 32.3364 349.968 31.8404 349.688C31.3524 349.408 30.9684 349.012 30.6884 348.5C30.4084 347.98 30.2684 347.38 30.2684 346.7C30.2684 346.02 30.4044 345.424 30.6764 344.912C30.9484 344.4 31.3284 344.008 31.8164 343.736C32.3124 343.456 32.8804 343.316 33.5204 343.316C34.1444 343.316 34.6964 343.452 35.1764 343.724C35.6564 343.996 36.0244 344.372 36.2804 344.852C36.5444 345.324 36.6764 345.86 36.6764 346.46ZM35.5484 346.232C35.5484 345.816 35.4564 345.46 35.2724 345.164C35.0884 344.86 34.8364 344.632 34.5164 344.48C34.2044 344.32 33.8564 344.24 33.4724 344.24C32.9204 344.24 32.4484 344.416 32.0564 344.768C31.6724 345.12 31.4524 345.608 31.3964 346.232H35.5484ZM40.0378 350.108C39.5338 350.108 39.0818 350.024 38.6818 349.856C38.2818 349.68 37.9658 349.44 37.7338 349.136C37.5018 348.824 37.3738 348.468 37.3498 348.068H38.4778C38.5098 348.396 38.6618 348.664 38.9338 348.872C39.2138 349.08 39.5778 349.184 40.0258 349.184C40.4418 349.184 40.7698 349.092 41.0098 348.908C41.2498 348.724 41.3698 348.492 41.3698 348.212C41.3698 347.924 41.2418 347.712 40.9858 347.576C40.7298 347.432 40.3338 347.292 39.7978 347.156C39.3098 347.028 38.9098 346.9 38.5978 346.772C38.2938 346.636 38.0298 346.44 37.8058 346.184C37.5898 345.92 37.4818 345.576 37.4818 345.152C37.4818 344.816 37.5818 344.508 37.7818 344.228C37.9818 343.948 38.2658 343.728 38.6338 343.568C39.0018 343.4 39.4218 343.316 39.8938 343.316C40.6218 343.316 41.2098 343.5 41.6578 343.868C42.1058 344.236 42.3458 344.74 42.3778 345.38H41.2858C41.2618 345.036 41.1218 344.76 40.8658 344.552C40.6178 344.344 40.2818 344.24 39.8578 344.24C39.4658 344.24 39.1538 344.324 38.9218 344.492C38.6898 344.66 38.5738 344.88 38.5738 345.152C38.5738 345.368 38.6418 345.548 38.7778 345.692C38.9218 345.828 39.0978 345.94 39.3058 346.028C39.5218 346.108 39.8178 346.2 40.1938 346.304C40.6658 346.432 41.0498 346.56 41.3458 346.688C41.6418 346.808 41.8938 346.992 42.1018 347.24C42.3178 347.488 42.4298 347.812 42.4378 348.212C42.4378 348.572 42.3378 348.896 42.1378 349.184C41.9378 349.472 41.6538 349.7 41.2858 349.868C40.9258 350.028 40.5098 350.108 40.0378 350.108ZM45.8993 350.108C45.3953 350.108 44.9433 350.024 44.5433 349.856C44.1433 349.68 43.8273 349.44 43.5953 349.136C43.3633 348.824 43.2353 348.468 43.2113 348.068H44.3393C44.3713 348.396 44.5233 348.664 44.7953 348.872C45.0753 349.08 45.4393 349.184 45.8873 349.184C46.3033 349.184 46.6313 349.092 46.8713 348.908C47.1113 348.724 47.2313 348.492 47.2313 348.212C47.2313 347.924 47.1033 347.712 46.8473 347.576C46.5913 347.432 46.1953 347.292 45.6593 347.156C45.1713 347.028 44.7713 346.9 44.4593 346.772C44.1553 346.636 43.8913 346.44 43.6673 346.184C43.4513 345.92 43.3433 345.576 43.3433 345.152C43.3433 344.816 43.4433 344.508 43.6433 344.228C43.8433 343.948 44.1273 343.728 44.4953 343.568C44.8633 343.4 45.2833 343.316 45.7553 343.316C46.4833 343.316 47.0713 343.5 47.5193 343.868C47.9673 344.236 48.2073 344.74 48.2393 345.38H47.1473C47.1233 345.036 46.9833 344.76 46.7273 344.552C46.4793 344.344 46.1433 344.24 45.7193 344.24C45.3273 344.24 45.0153 344.324 44.7833 344.492C44.5513 344.66 44.4353 344.88 44.4353 345.152C44.4353 345.368 44.5033 345.548 44.6393 345.692C44.7833 345.828 44.9593 345.94 45.1673 346.028C45.3833 346.108 45.6793 346.2 46.0553 346.304C46.5273 346.432 46.9113 346.56 47.2073 346.688C47.5033 346.808 47.7553 346.992 47.9633 347.24C48.1793 347.488 48.2913 347.812 48.2993 348.212C48.2993 348.572 48.1993 348.896 47.9993 349.184C47.7993 349.472 47.5153 349.7 47.1473 349.868C46.7873 350.028 46.3713 350.108 45.8993 350.108ZM53.3161 341.12V350H52.2241V341.12H53.3161ZM60.7692 346.46C60.7692 346.668 60.7572 346.888 60.7332 347.12H55.4772C55.5172 347.768 55.7372 348.276 56.1372 348.644C56.5452 349.004 57.0372 349.184 57.6132 349.184C58.0852 349.184 58.4772 349.076 58.7892 348.86C59.1092 348.636 59.3332 348.34 59.4612 347.972H60.6372C60.4612 348.604 60.1092 349.12 59.5812 349.52C59.0532 349.912 58.3972 350.108 57.6132 350.108C56.9892 350.108 56.4292 349.968 55.9332 349.688C55.4452 349.408 55.0612 349.012 54.7812 348.5C54.5012 347.98 54.3612 347.38 54.3612 346.7C54.3612 346.02 54.4972 345.424 54.7692 344.912C55.0412 344.4 55.4212 344.008 55.9092 343.736C56.4052 343.456 56.9732 343.316 57.6132 343.316C58.2372 343.316 58.7892 343.452 59.2692 343.724C59.7492 343.996 60.1172 344.372 60.3732 344.852C60.6372 345.324 60.7692 345.86 60.7692 346.46ZM59.6412 346.232C59.6412 345.816 59.5492 345.46 59.3652 345.164C59.1812 344.86 58.9292 344.632 58.6092 344.48C58.2972 344.32 57.9492 344.24 57.5652 344.24C57.0132 344.24 56.5412 344.416 56.1492 344.768C55.7652 345.12 55.5452 345.608 55.4892 346.232H59.6412ZM64.1306 350.108C63.6266 350.108 63.1746 350.024 62.7746 349.856C62.3746 349.68 62.0586 349.44 61.8266 349.136C61.5946 348.824 61.4666 348.468 61.4426 348.068H62.5706C62.6026 348.396 62.7546 348.664 63.0266 348.872C63.3066 349.08 63.6706 349.184 64.1186 349.184C64.5346 349.184 64.8626 349.092 65.1026 348.908C65.3426 348.724 65.4626 348.492 65.4626 348.212C65.4626 347.924 65.3346 347.712 65.0786 347.576C64.8226 347.432 64.4266 347.292 63.8906 347.156C63.4026 347.028 63.0026 346.9 62.6906 346.772C62.3866 346.636 62.1226 346.44 61.8986 346.184C61.6826 345.92 61.5746 345.576 61.5746 345.152C61.5746 344.816 61.6746 344.508 61.8746 344.228C62.0746 343.948 62.3586 343.728 62.7266 343.568C63.0946 343.4 63.5146 343.316 63.9866 343.316C64.7146 343.316 65.3026 343.5 65.7506 343.868C66.1986 344.236 66.4386 344.74 66.4706 345.38H65.3786C65.3546 345.036 65.2146 344.76 64.9586 344.552C64.7106 344.344 64.3746 344.24 63.9506 344.24C63.5586 344.24 63.2466 344.324 63.0146 344.492C62.7826 344.66 62.6666 344.88 62.6666 345.152C62.6666 345.368 62.7346 345.548 62.8706 345.692C63.0146 345.828 63.1906 345.94 63.3986 346.028C63.6146 346.108 63.9106 346.2 64.2866 346.304C64.7586 346.432 65.1426 346.56 65.4386 346.688C65.7346 346.808 65.9866 346.992 66.1946 347.24C66.4106 347.488 66.5226 347.812 66.5306 348.212C66.5306 348.572 66.4306 348.896 66.2306 349.184C66.0306 349.472 65.7466 349.7 65.3786 349.868C65.0186 350.028 64.6026 350.108 64.1306 350.108ZM69.9922 350.108C69.4882 350.108 69.0362 350.024 68.6362 349.856C68.2362 349.68 67.9202 349.44 67.6882 349.136C67.4562 348.824 67.3282 348.468 67.3042 348.068H68.4322C68.4642 348.396 68.6162 348.664 68.8882 348.872C69.1682 349.08 69.5322 349.184 69.9802 349.184C70.3962 349.184 70.7242 349.092 70.9642 348.908C71.2042 348.724 71.3242 348.492 71.3242 348.212C71.3242 347.924 71.1962 347.712 70.9402 347.576C70.6842 347.432 70.2882 347.292 69.7522 347.156C69.2642 347.028 68.8642 346.9 68.5522 346.772C68.2482 346.636 67.9842 346.44 67.7602 346.184C67.5442 345.92 67.4362 345.576 67.4362 345.152C67.4362 344.816 67.5362 344.508 67.7362 344.228C67.9362 343.948 68.2202 343.728 68.5882 343.568C68.9562 343.4 69.3762 343.316 69.8482 343.316C70.5762 343.316 71.1642 343.5 71.6122 343.868C72.0602 344.236 72.3002 344.74 72.3322 345.38H71.2402C71.2162 345.036 71.0762 344.76 70.8202 344.552C70.5722 344.344 70.2362 344.24 69.8122 344.24C69.4202 344.24 69.1082 344.324 68.8762 344.492C68.6442 344.66 68.5282 344.88 68.5282 345.152C68.5282 345.368 68.5962 345.548 68.7322 345.692C68.8762 345.828 69.0522 345.94 69.2602 346.028C69.4762 346.108 69.7722 346.2 70.1482 346.304C70.6202 346.432 71.0042 346.56 71.3002 346.688C71.5962 346.808 71.8482 346.992 72.0562 347.24C72.2722 347.488 72.3842 347.812 72.3922 348.212C72.3922 348.572 72.2922 348.896 72.0922 349.184C71.8922 349.472 71.6082 349.7 71.2402 349.868C70.8802 350.028 70.4642 350.108 69.9922 350.108ZM85.0769 343.424L83.0249 350H81.8969L80.3129 344.78L78.7289 350H77.6009L75.5369 343.424H76.6529L78.1649 348.944L79.7969 343.424H80.9129L82.5089 348.956L83.9969 343.424H85.0769ZM86.3167 342.356C86.1087 342.356 85.9327 342.284 85.7887 342.14C85.6447 341.996 85.5727 341.82 85.5727 341.612C85.5727 341.404 85.6447 341.228 85.7887 341.084C85.9327 340.94 86.1087 340.868 86.3167 340.868C86.5167 340.868 86.6847 340.94 86.8207 341.084C86.9647 341.228 87.0367 341.404 87.0367 341.612C87.0367 341.82 86.9647 341.996 86.8207 342.14C86.6847 342.284 86.5167 342.356 86.3167 342.356ZM86.8447 343.424V350H85.7527V343.424H86.8447ZM89.6298 344.324V348.2C89.6298 348.52 89.6978 348.748 89.8338 348.884C89.9698 349.012 90.2058 349.076 90.5418 349.076H91.3458V350H90.3618C89.7538 350 89.2978 349.86 88.9938 349.58C88.6898 349.3 88.5378 348.84 88.5378 348.2V344.324H87.6858V343.424H88.5378V341.768H89.6298V343.424H91.3458V344.324H89.6298ZM95.5249 343.304C96.0209 343.304 96.4689 343.412 96.8689 343.628C97.2689 343.836 97.5809 344.152 97.8049 344.576C98.0369 345 98.1529 345.516 98.1529 346.124V350H97.0729V346.28C97.0729 345.624 96.9089 345.124 96.5809 344.78C96.2529 344.428 95.8049 344.252 95.2369 344.252C94.6609 344.252 94.2009 344.432 93.8569 344.792C93.5209 345.152 93.3529 345.676 93.3529 346.364V350H92.2609V341.12H93.3529V344.36C93.5689 344.024 93.8649 343.764 94.2409 343.58C94.6249 343.396 95.0529 343.304 95.5249 343.304ZM105.188 350.108C104.572 350.108 104.012 349.968 103.508 349.688C103.012 349.408 102.62 349.012 102.332 348.5C102.052 347.98 101.912 347.38 101.912 346.7C101.912 346.028 102.056 345.436 102.344 344.924C102.64 344.404 103.04 344.008 103.544 343.736C104.048 343.456 104.612 343.316 105.236 343.316C105.86 343.316 106.424 343.456 106.928 343.736C107.432 344.008 107.828 344.4 108.116 344.912C108.412 345.424 108.56 346.02 108.56 346.7C108.56 347.38 108.408 347.98 108.104 348.5C107.808 349.012 107.404 349.408 106.892 349.688C106.38 349.968 105.812 350.108 105.188 350.108ZM105.188 349.148C105.58 349.148 105.948 349.056 106.292 348.872C106.636 348.688 106.912 348.412 107.12 348.044C107.336 347.676 107.444 347.228 107.444 346.7C107.444 346.172 107.34 345.724 107.132 345.356C106.924 344.988 106.652 344.716 106.316 344.54C105.98 344.356 105.616 344.264 105.224 344.264C104.824 344.264 104.456 344.356 104.12 344.54C103.792 344.716 103.528 344.988 103.328 345.356C103.128 345.724 103.028 346.172 103.028 346.7C103.028 347.236 103.124 347.688 103.316 348.056C103.516 348.424 103.78 348.7 104.108 348.884C104.436 349.06 104.796 349.148 105.188 349.148ZM115.42 343.424V350H114.328V349.028C114.12 349.364 113.828 349.628 113.452 349.82C113.084 350.004 112.676 350.096 112.228 350.096C111.716 350.096 111.256 349.992 110.848 349.784C110.44 349.568 110.116 349.248 109.876 348.824C109.644 348.4 109.528 347.884 109.528 347.276V343.424H110.608V347.132C110.608 347.78 110.772 348.28 111.1 348.632C111.428 348.976 111.876 349.148 112.444 349.148C113.028 349.148 113.488 348.968 113.824 348.608C114.16 348.248 114.328 347.724 114.328 347.036V343.424H115.42ZM117.947 344.492C118.139 344.116 118.411 343.824 118.763 343.616C119.123 343.408 119.559 343.304 120.071 343.304V344.432H119.783C118.559 344.432 117.947 345.096 117.947 346.424V350H116.855V343.424H117.947V344.492ZM38.7636 374.108C38.1476 374.108 37.5876 373.968 37.0836 373.688C36.5876 373.408 36.1956 373.012 35.9076 372.5C35.6276 371.98 35.4876 371.38 35.4876 370.7C35.4876 370.028 35.6316 369.436 35.9196 368.924C36.2156 368.404 36.6156 368.008 37.1196 367.736C37.6236 367.456 38.1876 367.316 38.8116 367.316C39.4356 367.316 39.9996 367.456 40.5036 367.736C41.0076 368.008 41.4036 368.4 41.6916 368.912C41.9876 369.424 42.1356 370.02 42.1356 370.7C42.1356 371.38 41.9836 371.98 41.6796 372.5C41.3836 373.012 40.9796 373.408 40.4676 373.688C39.9556 373.968 39.3876 374.108 38.7636 374.108ZM38.7636 373.148C39.1556 373.148 39.5236 373.056 39.8676 372.872C40.2116 372.688 40.4876 372.412 40.6956 372.044C40.9116 371.676 41.0196 371.228 41.0196 370.7C41.0196 370.172 40.9156 369.724 40.7076 369.356C40.4996 368.988 40.2276 368.716 39.8916 368.54C39.5556 368.356 39.1916 368.264 38.7996 368.264C38.3996 368.264 38.0316 368.356 37.6956 368.54C37.3676 368.716 37.1036 368.988 36.9036 369.356C36.7036 369.724 36.6036 370.172 36.6036 370.7C36.6036 371.236 36.6996 371.688 36.8916 372.056C37.0916 372.424 37.3556 372.7 37.6836 372.884C38.0116 373.06 38.3716 373.148 38.7636 373.148ZM46.3673 367.304C47.1673 367.304 47.8153 367.548 48.3113 368.036C48.8073 368.516 49.0553 369.212 49.0553 370.124V374H47.9753V370.28C47.9753 369.624 47.8113 369.124 47.4833 368.78C47.1553 368.428 46.7073 368.252 46.1393 368.252C45.5633 368.252 45.1033 368.432 44.7593 368.792C44.4233 369.152 44.2553 369.676 44.2553 370.364V374H43.1633V367.424H44.2553V368.36C44.4713 368.024 44.7633 367.764 45.1313 367.58C45.5073 367.396 45.9193 367.304 46.3673 367.304ZM51.5231 365.12V374H50.4311V365.12H51.5231ZM53.5403 366.356C53.3323 366.356 53.1563 366.284 53.0123 366.14C52.8683 365.996 52.7963 365.82 52.7963 365.612C52.7963 365.404 52.8683 365.228 53.0123 365.084C53.1563 364.94 53.3323 364.868 53.5403 364.868C53.7403 364.868 53.9083 364.94 54.0443 365.084C54.1883 365.228 54.2603 365.404 54.2603 365.612C54.2603 365.82 54.1883 365.996 54.0443 366.14C53.9083 366.284 53.7403 366.356 53.5403 366.356ZM54.0683 367.424V374H52.9763V367.424H54.0683ZM58.7254 367.304C59.5254 367.304 60.1734 367.548 60.6694 368.036C61.1654 368.516 61.4134 369.212 61.4134 370.124V374H60.3334V370.28C60.3334 369.624 60.1694 369.124 59.8414 368.78C59.5134 368.428 59.0654 368.252 58.4974 368.252C57.9214 368.252 57.4614 368.432 57.1174 368.792C56.7814 369.152 56.6134 369.676 56.6134 370.364V374H55.5214V367.424H56.6134V368.36C56.8294 368.024 57.1214 367.764 57.4894 367.58C57.8654 367.396 58.2774 367.304 58.7254 367.304ZM68.7892 370.46C68.7892 370.668 68.7772 370.888 68.7532 371.12H63.4972C63.5372 371.768 63.7572 372.276 64.1572 372.644C64.5652 373.004 65.0572 373.184 65.6332 373.184C66.1052 373.184 66.4972 373.076 66.8092 372.86C67.1292 372.636 67.3532 372.34 67.4812 371.972H68.6572C68.4812 372.604 68.1292 373.12 67.6012 373.52C67.0732 373.912 66.4172 374.108 65.6332 374.108C65.0092 374.108 64.4492 373.968 63.9532 373.688C63.4652 373.408 63.0812 373.012 62.8012 372.5C62.5212 371.98 62.3812 371.38 62.3812 370.7C62.3812 370.02 62.5172 369.424 62.7892 368.912C63.0612 368.4 63.4412 368.008 63.9292 367.736C64.4252 367.456 64.9932 367.316 65.6332 367.316C66.2572 367.316 66.8092 367.452 67.2892 367.724C67.7692 367.996 68.1372 368.372 68.3932 368.852C68.6572 369.324 68.7892 369.86 68.7892 370.46ZM67.6612 370.232C67.6612 369.816 67.5692 369.46 67.3852 369.164C67.2012 368.86 66.9492 368.632 66.6292 368.48C66.3172 368.32 65.9692 368.24 65.5852 368.24C65.0332 368.24 64.5612 368.416 64.1692 368.768C63.7852 369.12 63.5652 369.608 63.5092 370.232H67.6612ZM75.4818 374.108C74.8658 374.108 74.3058 373.968 73.8018 373.688C73.3058 373.408 72.9138 373.012 72.6258 372.5C72.3458 371.98 72.2058 371.38 72.2058 370.7C72.2058 370.028 72.3498 369.436 72.6378 368.924C72.9338 368.404 73.3338 368.008 73.8378 367.736C74.3418 367.456 74.9058 367.316 75.5298 367.316C76.1538 367.316 76.7178 367.456 77.2218 367.736C77.7258 368.008 78.1218 368.4 78.4098 368.912C78.7058 369.424 78.8538 370.02 78.8538 370.7C78.8538 371.38 78.7018 371.98 78.3978 372.5C78.1018 373.012 77.6978 373.408 77.1858 373.688C76.6738 373.968 76.1058 374.108 75.4818 374.108ZM75.4818 373.148C75.8738 373.148 76.2418 373.056 76.5858 372.872C76.9298 372.688 77.2058 372.412 77.4138 372.044C77.6298 371.676 77.7378 371.228 77.7378 370.7C77.7378 370.172 77.6338 369.724 77.4258 369.356C77.2178 368.988 76.9458 368.716 76.6098 368.54C76.2738 368.356 75.9098 368.264 75.5178 368.264C75.1178 368.264 74.7498 368.356 74.4138 368.54C74.0858 368.716 73.8218 368.988 73.6218 369.356C73.4218 369.724 73.3218 370.172 73.3218 370.7C73.3218 371.236 73.4178 371.688 73.6098 372.056C73.8098 372.424 74.0738 372.7 74.4018 372.884C74.7298 373.06 75.0898 373.148 75.4818 373.148ZM80.9736 365.12V374H79.8816V365.12H80.9736ZM82.0187 370.688C82.0187 370.016 82.1547 369.428 82.4267 368.924C82.6987 368.412 83.0707 368.016 83.5427 367.736C84.0227 367.456 84.5587 367.316 85.1507 367.316C85.6627 367.316 86.1387 367.436 86.5787 367.676C87.0187 367.908 87.3547 368.216 87.5867 368.6V365.12H88.6907V374H87.5867V372.764C87.3707 373.156 87.0507 373.48 86.6267 373.736C86.2027 373.984 85.7067 374.108 85.1387 374.108C84.5547 374.108 84.0227 373.964 83.5427 373.676C83.0707 373.388 82.6987 372.984 82.4267 372.464C82.1547 371.944 82.0187 371.352 82.0187 370.688ZM87.5867 370.7C87.5867 370.204 87.4867 369.772 87.2867 369.404C87.0867 369.036 86.8147 368.756 86.4707 368.564C86.1347 368.364 85.7627 368.264 85.3547 368.264C84.9467 368.264 84.5747 368.36 84.2387 368.552C83.9027 368.744 83.6347 369.024 83.4347 369.392C83.2347 369.76 83.1347 370.192 83.1347 370.688C83.1347 371.192 83.2347 371.632 83.4347 372.008C83.6347 372.376 83.9027 372.66 84.2387 372.86C84.5747 373.052 84.9467 373.148 85.3547 373.148C85.7627 373.148 86.1347 373.052 86.4707 372.86C86.8147 372.66 87.0867 372.376 87.2867 372.008C87.4867 371.632 87.5867 371.196 87.5867 370.7ZM94.0113 368.648C94.2353 368.256 94.5633 367.936 94.9953 367.688C95.4273 367.44 95.9193 367.316 96.4713 367.316C97.0633 367.316 97.5953 367.456 98.0673 367.736C98.5393 368.016 98.9113 368.412 99.1833 368.924C99.4553 369.428 99.5913 370.016 99.5913 370.688C99.5913 371.352 99.4553 371.944 99.1833 372.464C98.9113 372.984 98.5353 373.388 98.0553 373.676C97.5833 373.964 97.0553 374.108 96.4713 374.108C95.9033 374.108 95.4033 373.984 94.9713 373.736C94.5473 373.488 94.2273 373.172 94.0113 372.788V374H92.9193V365.12H94.0113V368.648ZM98.4753 370.688C98.4753 370.192 98.3753 369.76 98.1753 369.392C97.9753 369.024 97.7033 368.744 97.3593 368.552C97.0233 368.36 96.6513 368.264 96.2433 368.264C95.8433 368.264 95.4713 368.364 95.1273 368.564C94.7913 368.756 94.5193 369.04 94.3113 369.416C94.1113 369.784 94.0113 370.212 94.0113 370.7C94.0113 371.196 94.1113 371.632 94.3113 372.008C94.5193 372.376 94.7913 372.66 95.1273 372.86C95.4713 373.052 95.8433 373.148 96.2433 373.148C96.6513 373.148 97.0233 373.052 97.3593 372.86C97.7033 372.66 97.9753 372.376 98.1753 372.008C98.3753 371.632 98.4753 371.192 98.4753 370.688ZM103.489 374.108C102.873 374.108 102.313 373.968 101.809 373.688C101.313 373.408 100.921 373.012 100.633 372.5C100.353 371.98 100.213 371.38 100.213 370.7C100.213 370.028 100.357 369.436 100.645 368.924C100.941 368.404 101.341 368.008 101.845 367.736C102.349 367.456 102.913 367.316 103.537 367.316C104.161 367.316 104.725 367.456 105.229 367.736C105.733 368.008 106.129 368.4 106.417 368.912C106.713 369.424 106.861 370.02 106.861 370.7C106.861 371.38 106.709 371.98 106.405 372.5C106.109 373.012 105.705 373.408 105.193 373.688C104.681 373.968 104.113 374.108 103.489 374.108ZM103.489 373.148C103.881 373.148 104.249 373.056 104.593 372.872C104.937 372.688 105.213 372.412 105.421 372.044C105.637 371.676 105.745 371.228 105.745 370.7C105.745 370.172 105.641 369.724 105.433 369.356C105.225 368.988 104.953 368.716 104.617 368.54C104.281 368.356 103.917 368.264 103.525 368.264C103.125 368.264 102.757 368.356 102.421 368.54C102.093 368.716 101.829 368.988 101.629 369.356C101.429 369.724 101.329 370.172 101.329 370.7C101.329 371.236 101.425 371.688 101.617 372.056C101.817 372.424 102.081 372.7 102.409 372.884C102.737 373.06 103.097 373.148 103.489 373.148ZM110.756 374.108C110.14 374.108 109.58 373.968 109.076 373.688C108.58 373.408 108.188 373.012 107.9 372.5C107.62 371.98 107.48 371.38 107.48 370.7C107.48 370.028 107.624 369.436 107.912 368.924C108.208 368.404 108.608 368.008 109.112 367.736C109.616 367.456 110.18 367.316 110.804 367.316C111.428 367.316 111.992 367.456 112.496 367.736C113 368.008 113.396 368.4 113.684 368.912C113.98 369.424 114.128 370.02 114.128 370.7C114.128 371.38 113.976 371.98 113.672 372.5C113.376 373.012 112.972 373.408 112.46 373.688C111.948 373.968 111.38 374.108 110.756 374.108ZM110.756 373.148C111.148 373.148 111.516 373.056 111.86 372.872C112.204 372.688 112.48 372.412 112.688 372.044C112.904 371.676 113.012 371.228 113.012 370.7C113.012 370.172 112.908 369.724 112.7 369.356C112.492 368.988 112.22 368.716 111.884 368.54C111.548 368.356 111.184 368.264 110.792 368.264C110.392 368.264 110.024 368.356 109.688 368.54C109.36 368.716 109.096 368.988 108.896 369.356C108.696 369.724 108.596 370.172 108.596 370.7C108.596 371.236 108.692 371.688 108.884 372.056C109.084 372.424 109.348 372.7 109.676 372.884C110.004 373.06 110.364 373.148 110.756 373.148ZM118.828 374L116.248 371.096V374H115.156V365.12H116.248V370.34L118.78 367.424H120.304L117.208 370.7L120.316 374H118.828ZM74.4228 393.492C74.6148 393.116 74.8868 392.824 75.2388 392.616C75.5988 392.408 76.0348 392.304 76.5468 392.304V393.432H76.2588C75.0348 393.432 74.4228 394.096 74.4228 395.424V399H73.3308V392.424H74.4228V393.492ZM83.3993 395.46C83.3993 395.668 83.3873 395.888 83.3633 396.12H78.1073C78.1473 396.768 78.3673 397.276 78.7673 397.644C79.1753 398.004 79.6673 398.184 80.2433 398.184C80.7153 398.184 81.1073 398.076 81.4193 397.86C81.7393 397.636 81.9633 397.34 82.0913 396.972H83.2673C83.0913 397.604 82.7393 398.12 82.2113 398.52C81.6833 398.912 81.0273 399.108 80.2433 399.108C79.6193 399.108 79.0593 398.968 78.5633 398.688C78.0753 398.408 77.6913 398.012 77.4113 397.5C77.1313 396.98 76.9913 396.38 76.9913 395.7C76.9913 395.02 77.1273 394.424 77.3993 393.912C77.6713 393.4 78.0513 393.008 78.5393 392.736C79.0353 392.456 79.6033 392.316 80.2433 392.316C80.8673 392.316 81.4193 392.452 81.8993 392.724C82.3793 392.996 82.7473 393.372 83.0033 393.852C83.2673 394.324 83.3993 394.86 83.3993 395.46ZM82.2713 395.232C82.2713 394.816 82.1793 394.46 81.9953 394.164C81.8113 393.86 81.5593 393.632 81.2393 393.48C80.9273 393.32 80.5793 393.24 80.1953 393.24C79.6433 393.24 79.1713 393.416 78.7793 393.768C78.3953 394.12 78.1753 394.608 78.1193 395.232H82.2713ZM84.0248 395.688C84.0248 395.016 84.1608 394.428 84.4328 393.924C84.7048 393.412 85.0768 393.016 85.5488 392.736C86.0288 392.456 86.5608 392.316 87.1448 392.316C87.7208 392.316 88.2208 392.44 88.6448 392.688C89.0688 392.936 89.3848 393.248 89.5928 393.624V392.424H90.6968V399H89.5928V397.776C89.3768 398.16 89.0528 398.48 88.6208 398.736C88.1968 398.984 87.7008 399.108 87.1328 399.108C86.5488 399.108 86.0208 398.964 85.5488 398.676C85.0768 398.388 84.7048 397.984 84.4328 397.464C84.1608 396.944 84.0248 396.352 84.0248 395.688ZM89.5928 395.7C89.5928 395.204 89.4928 394.772 89.2928 394.404C89.0928 394.036 88.8208 393.756 88.4768 393.564C88.1408 393.364 87.7688 393.264 87.3608 393.264C86.9528 393.264 86.5808 393.36 86.2448 393.552C85.9088 393.744 85.6408 394.024 85.4408 394.392C85.2408 394.76 85.1408 395.192 85.1408 395.688C85.1408 396.192 85.2408 396.632 85.4408 397.008C85.6408 397.376 85.9088 397.66 86.2448 397.86C86.5808 398.052 86.9528 398.148 87.3608 398.148C87.7688 398.148 88.1408 398.052 88.4768 397.86C88.8208 397.66 89.0928 397.376 89.2928 397.008C89.4928 396.632 89.5928 396.196 89.5928 395.7ZM91.7261 395.688C91.7261 395.016 91.8621 394.428 92.1341 393.924C92.4061 393.412 92.7781 393.016 93.2501 392.736C93.7301 392.456 94.2661 392.316 94.8581 392.316C95.3701 392.316 95.8461 392.436 96.2861 392.676C96.7261 392.908 97.0621 393.216 97.2941 393.6V390.12H98.3981V399H97.2941V397.764C97.0781 398.156 96.7581 398.48 96.3341 398.736C95.9101 398.984 95.4141 399.108 94.8461 399.108C94.2621 399.108 93.7301 398.964 93.2501 398.676C92.7781 398.388 92.4061 397.984 92.1341 397.464C91.8621 396.944 91.7261 396.352 91.7261 395.688ZM97.2941 395.7C97.2941 395.204 97.1941 394.772 96.9941 394.404C96.7941 394.036 96.5221 393.756 96.1781 393.564C95.8421 393.364 95.4701 393.264 95.0621 393.264C94.6541 393.264 94.2821 393.36 93.9461 393.552C93.6101 393.744 93.3421 394.024 93.1421 394.392C92.9421 394.76 92.8421 395.192 92.8421 395.688C92.8421 396.192 92.9421 396.632 93.1421 397.008C93.3421 397.376 93.6101 397.66 93.9461 397.86C94.2821 398.052 94.6541 398.148 95.0621 398.148C95.4701 398.148 95.8421 398.052 96.1781 397.86C96.5221 397.66 96.7941 397.376 96.9941 397.008C97.1941 396.632 97.2941 396.196 97.2941 395.7ZM100.399 391.356C100.191 391.356 100.015 391.284 99.8715 391.14C99.7275 390.996 99.6555 390.82 99.6555 390.612C99.6555 390.404 99.7275 390.228 99.8715 390.084C100.015 389.94 100.191 389.868 100.399 389.868C100.599 389.868 100.767 389.94 100.903 390.084C101.047 390.228 101.119 390.404 101.119 390.612C101.119 390.82 101.047 390.996 100.903 391.14C100.767 391.284 100.599 391.356 100.399 391.356ZM100.927 392.424V399H99.8355V392.424H100.927ZM105.585 392.304C106.385 392.304 107.033 392.548 107.529 393.036C108.025 393.516 108.273 394.212 108.273 395.124V399H107.193V395.28C107.193 394.624 107.029 394.124 106.701 393.78C106.373 393.428 105.925 393.252 105.357 393.252C104.781 393.252 104.321 393.432 103.977 393.792C103.641 394.152 103.473 394.676 103.473 395.364V399H102.381V392.424H103.473V393.36C103.689 393.024 103.981 392.764 104.349 392.58C104.725 392.396 105.137 392.304 105.585 392.304ZM112.36 392.316C112.928 392.316 113.424 392.44 113.848 392.688C114.28 392.936 114.6 393.248 114.808 393.624V392.424H115.912V399.144C115.912 399.744 115.784 400.276 115.528 400.74C115.272 401.212 114.904 401.58 114.424 401.844C113.952 402.108 113.4 402.24 112.768 402.24C111.904 402.24 111.184 402.036 110.608 401.628C110.032 401.22 109.692 400.664 109.588 399.96H110.668C110.788 400.36 111.036 400.68 111.412 400.92C111.788 401.168 112.24 401.292 112.768 401.292C113.368 401.292 113.856 401.104 114.232 400.728C114.616 400.352 114.808 399.824 114.808 399.144V397.764C114.592 398.148 114.272 398.468 113.848 398.724C113.424 398.98 112.928 399.108 112.36 399.108C111.776 399.108 111.244 398.964 110.764 398.676C110.292 398.388 109.92 397.984 109.648 397.464C109.376 396.944 109.24 396.352 109.24 395.688C109.24 395.016 109.376 394.428 109.648 393.924C109.92 393.412 110.292 393.016 110.764 392.736C111.244 392.456 111.776 392.316 112.36 392.316ZM114.808 395.7C114.808 395.204 114.708 394.772 114.508 394.404C114.308 394.036 114.036 393.756 113.692 393.564C113.356 393.364 112.984 393.264 112.576 393.264C112.168 393.264 111.796 393.36 111.46 393.552C111.124 393.744 110.856 394.024 110.656 394.392C110.456 394.76 110.356 395.192 110.356 395.688C110.356 396.192 110.456 396.632 110.656 397.008C110.856 397.376 111.124 397.66 111.46 397.86C111.796 398.052 112.168 398.148 112.576 398.148C112.984 398.148 113.356 398.052 113.692 397.86C114.036 397.66 114.308 397.376 114.508 397.008C114.708 396.632 114.808 396.196 114.808 395.7ZM118.766 390.636L118.634 396.636H117.722L117.59 390.636H118.766ZM118.226 399.072C118.018 399.072 117.842 399 117.698 398.856C117.554 398.712 117.482 398.536 117.482 398.328C117.482 398.12 117.554 397.944 117.698 397.8C117.842 397.656 118.018 397.584 118.226 397.584C118.426 397.584 118.594 397.656 118.73 397.8C118.874 397.944 118.946 398.12 118.946 398.328C118.946 398.536 118.874 398.712 118.73 398.856C118.594 399 118.426 399.072 118.226 399.072Z" fill="white"/>
<rect x="137" width="132" height="140" rx="30" fill="#110F0F"/>
<path d="M154.828 37L152.836 33.58H151.516V37H150.424V28.636H153.124C153.756 28.636 154.288 28.744 154.72 28.96C155.16 29.176 155.488 29.468 155.704 29.836C155.92 30.204 156.028 30.624 156.028 31.096C156.028 31.672 155.86 32.18 155.524 32.62C155.196 33.06 154.7 33.352 154.036 33.496L156.136 37H154.828ZM151.516 32.704H153.124C153.716 32.704 154.16 32.56 154.456 32.272C154.752 31.976 154.9 31.584 154.9 31.096C154.9 30.6 154.752 30.216 154.456 29.944C154.168 29.672 153.724 29.536 153.124 29.536H151.516V32.704ZM163.317 33.46C163.317 33.668 163.305 33.888 163.281 34.12H158.025C158.065 34.768 158.285 35.276 158.685 35.644C159.093 36.004 159.585 36.184 160.161 36.184C160.633 36.184 161.025 36.076 161.337 35.86C161.657 35.636 161.881 35.34 162.009 34.972H163.185C163.009 35.604 162.657 36.12 162.129 36.52C161.601 36.912 160.945 37.108 160.161 37.108C159.537 37.108 158.977 36.968 158.481 36.688C157.993 36.408 157.609 36.012 157.329 35.5C157.049 34.98 156.909 34.38 156.909 33.7C156.909 33.02 157.045 32.424 157.317 31.912C157.589 31.4 157.969 31.008 158.457 30.736C158.953 30.456 159.521 30.316 160.161 30.316C160.785 30.316 161.337 30.452 161.817 30.724C162.297 30.996 162.665 31.372 162.921 31.852C163.185 32.324 163.317 32.86 163.317 33.46ZM162.189 33.232C162.189 32.816 162.097 32.46 161.913 32.164C161.729 31.86 161.477 31.632 161.157 31.48C160.845 31.32 160.497 31.24 160.113 31.24C159.561 31.24 159.089 31.416 158.697 31.768C158.313 32.12 158.093 32.608 158.037 33.232H162.189ZM163.942 33.688C163.942 33.016 164.078 32.428 164.35 31.924C164.622 31.412 164.994 31.016 165.466 30.736C165.946 30.456 166.478 30.316 167.062 30.316C167.638 30.316 168.138 30.44 168.562 30.688C168.986 30.936 169.302 31.248 169.51 31.624V30.424H170.614V37H169.51V35.776C169.294 36.16 168.97 36.48 168.538 36.736C168.114 36.984 167.618 37.108 167.05 37.108C166.466 37.108 165.938 36.964 165.466 36.676C164.994 36.388 164.622 35.984 164.35 35.464C164.078 34.944 163.942 34.352 163.942 33.688ZM169.51 33.7C169.51 33.204 169.41 32.772 169.21 32.404C169.01 32.036 168.738 31.756 168.394 31.564C168.058 31.364 167.686 31.264 167.278 31.264C166.87 31.264 166.498 31.36 166.162 31.552C165.826 31.744 165.558 32.024 165.358 32.392C165.158 32.76 165.058 33.192 165.058 33.688C165.058 34.192 165.158 34.632 165.358 35.008C165.558 35.376 165.826 35.66 166.162 35.86C166.498 36.052 166.87 36.148 167.278 36.148C167.686 36.148 168.058 36.052 168.394 35.86C168.738 35.66 169.01 35.376 169.21 35.008C169.41 34.632 169.51 34.196 169.51 33.7ZM171.644 33.688C171.644 33.016 171.78 32.428 172.052 31.924C172.324 31.412 172.696 31.016 173.168 30.736C173.648 30.456 174.184 30.316 174.776 30.316C175.288 30.316 175.764 30.436 176.204 30.676C176.644 30.908 176.98 31.216 177.212 31.6V28.12H178.316V37H177.212V35.764C176.996 36.156 176.676 36.48 176.252 36.736C175.828 36.984 175.332 37.108 174.764 37.108C174.18 37.108 173.648 36.964 173.168 36.676C172.696 36.388 172.324 35.984 172.052 35.464C171.78 34.944 171.644 34.352 171.644 33.688ZM177.212 33.7C177.212 33.204 177.112 32.772 176.912 32.404C176.712 32.036 176.44 31.756 176.096 31.564C175.76 31.364 175.388 31.264 174.98 31.264C174.572 31.264 174.2 31.36 173.864 31.552C173.528 31.744 173.26 32.024 173.06 32.392C172.86 32.76 172.76 33.192 172.76 33.688C172.76 34.192 172.86 34.632 173.06 35.008C173.26 35.376 173.528 35.66 173.864 35.86C174.2 36.052 174.572 36.148 174.98 36.148C175.388 36.148 175.76 36.052 176.096 35.86C176.44 35.66 176.712 35.376 176.912 35.008C177.112 34.632 177.212 34.196 177.212 33.7ZM190.452 30.304C190.964 30.304 191.42 30.412 191.82 30.628C192.22 30.836 192.536 31.152 192.768 31.576C193 32 193.116 32.516 193.116 33.124V37H192.036V33.28C192.036 32.624 191.872 32.124 191.544 31.78C191.224 31.428 190.788 31.252 190.236 31.252C189.668 31.252 189.216 31.436 188.88 31.804C188.544 32.164 188.376 32.688 188.376 33.376V37H187.296V33.28C187.296 32.624 187.132 32.124 186.804 31.78C186.484 31.428 186.048 31.252 185.496 31.252C184.928 31.252 184.476 31.436 184.14 31.804C183.804 32.164 183.636 32.688 183.636 33.376V37H182.544V30.424H183.636V31.372C183.852 31.028 184.14 30.764 184.5 30.58C184.868 30.396 185.272 30.304 185.712 30.304C186.264 30.304 186.752 30.428 187.176 30.676C187.6 30.924 187.916 31.288 188.124 31.768C188.308 31.304 188.612 30.944 189.036 30.688C189.46 30.432 189.932 30.304 190.452 30.304ZM197.367 37.108C196.751 37.108 196.191 36.968 195.687 36.688C195.191 36.408 194.799 36.012 194.511 35.5C194.231 34.98 194.091 34.38 194.091 33.7C194.091 33.028 194.235 32.436 194.523 31.924C194.819 31.404 195.219 31.008 195.723 30.736C196.227 30.456 196.791 30.316 197.415 30.316C198.039 30.316 198.603 30.456 199.107 30.736C199.611 31.008 200.007 31.4 200.295 31.912C200.591 32.424 200.739 33.02 200.739 33.7C200.739 34.38 200.587 34.98 200.283 35.5C199.987 36.012 199.583 36.408 199.071 36.688C198.559 36.968 197.991 37.108 197.367 37.108ZM197.367 36.148C197.759 36.148 198.127 36.056 198.471 35.872C198.815 35.688 199.091 35.412 199.299 35.044C199.515 34.676 199.623 34.228 199.623 33.7C199.623 33.172 199.519 32.724 199.311 32.356C199.103 31.988 198.831 31.716 198.495 31.54C198.159 31.356 197.795 31.264 197.403 31.264C197.003 31.264 196.635 31.356 196.299 31.54C195.971 31.716 195.707 31.988 195.507 32.356C195.307 32.724 195.207 33.172 195.207 33.7C195.207 34.236 195.303 34.688 195.495 35.056C195.695 35.424 195.959 35.7 196.287 35.884C196.615 36.06 196.975 36.148 197.367 36.148ZM202.859 31.492C203.051 31.116 203.323 30.824 203.675 30.616C204.035 30.408 204.471 30.304 204.983 30.304V31.432H204.695C203.471 31.432 202.859 32.096 202.859 33.424V37H201.767V30.424H202.859V31.492ZM211.836 33.46C211.836 33.668 211.824 33.888 211.8 34.12H206.544C206.584 34.768 206.804 35.276 207.204 35.644C207.612 36.004 208.104 36.184 208.68 36.184C209.152 36.184 209.544 36.076 209.856 35.86C210.176 35.636 210.4 35.34 210.528 34.972H211.704C211.528 35.604 211.176 36.12 210.648 36.52C210.12 36.912 209.464 37.108 208.68 37.108C208.056 37.108 207.496 36.968 207 36.688C206.512 36.408 206.128 36.012 205.848 35.5C205.568 34.98 205.428 34.38 205.428 33.7C205.428 33.02 205.564 32.424 205.836 31.912C206.108 31.4 206.488 31.008 206.976 30.736C207.472 30.456 208.04 30.316 208.68 30.316C209.304 30.316 209.856 30.452 210.336 30.724C210.816 30.996 211.184 31.372 211.44 31.852C211.704 32.324 211.836 32.86 211.836 33.46ZM210.708 33.232C210.708 32.816 210.616 32.46 210.432 32.164C210.248 31.86 209.996 31.632 209.676 31.48C209.364 31.32 209.016 31.24 208.632 31.24C208.08 31.24 207.608 31.416 207.216 31.768C206.832 32.12 206.612 32.608 206.556 33.232H210.708ZM215.252 33.688C215.252 33.016 215.388 32.428 215.66 31.924C215.932 31.412 216.304 31.016 216.776 30.736C217.256 30.456 217.788 30.316 218.372 30.316C218.948 30.316 219.448 30.44 219.872 30.688C220.296 30.936 220.612 31.248 220.82 31.624V30.424H221.924V37H220.82V35.776C220.604 36.16 220.28 36.48 219.848 36.736C219.424 36.984 218.928 37.108 218.36 37.108C217.776 37.108 217.248 36.964 216.776 36.676C216.304 36.388 215.932 35.984 215.66 35.464C215.388 34.944 215.252 34.352 215.252 33.688ZM220.82 33.7C220.82 33.204 220.72 32.772 220.52 32.404C220.32 32.036 220.048 31.756 219.704 31.564C219.368 31.364 218.996 31.264 218.588 31.264C218.18 31.264 217.808 31.36 217.472 31.552C217.136 31.744 216.868 32.024 216.668 32.392C216.468 32.76 216.368 33.192 216.368 33.688C216.368 34.192 216.468 34.632 216.668 35.008C216.868 35.376 217.136 35.66 217.472 35.86C217.808 36.052 218.18 36.148 218.588 36.148C218.996 36.148 219.368 36.052 219.704 35.86C220.048 35.66 220.32 35.376 220.52 35.008C220.72 34.632 220.82 34.196 220.82 33.7ZM226.566 30.304C227.366 30.304 228.014 30.548 228.51 31.036C229.006 31.516 229.254 32.212 229.254 33.124V37H228.174V33.28C228.174 32.624 228.01 32.124 227.682 31.78C227.354 31.428 226.906 31.252 226.338 31.252C225.762 31.252 225.302 31.432 224.958 31.792C224.622 32.152 224.454 32.676 224.454 33.364V37H223.362V30.424H224.454V31.36C224.67 31.024 224.962 30.764 225.33 30.58C225.706 30.396 226.118 30.304 226.566 30.304ZM230.222 33.688C230.222 33.016 230.358 32.428 230.63 31.924C230.902 31.412 231.274 31.016 231.746 30.736C232.226 30.456 232.762 30.316 233.354 30.316C233.866 30.316 234.342 30.436 234.782 30.676C235.222 30.908 235.558 31.216 235.79 31.6V28.12H236.894V37H235.79V35.764C235.574 36.156 235.254 36.48 234.83 36.736C234.406 36.984 233.91 37.108 233.342 37.108C232.758 37.108 232.226 36.964 231.746 36.676C231.274 36.388 230.902 35.984 230.63 35.464C230.358 34.944 230.222 34.352 230.222 33.688ZM235.79 33.7C235.79 33.204 235.69 32.772 235.49 32.404C235.29 32.036 235.018 31.756 234.674 31.564C234.338 31.364 233.966 31.264 233.558 31.264C233.15 31.264 232.778 31.36 232.442 31.552C232.106 31.744 231.838 32.024 231.638 32.392C231.438 32.76 231.338 33.192 231.338 33.688C231.338 34.192 231.438 34.632 231.638 35.008C231.838 35.376 232.106 35.66 232.442 35.86C232.778 36.052 233.15 36.148 233.558 36.148C233.966 36.148 234.338 36.052 234.674 35.86C235.018 35.66 235.29 35.376 235.49 35.008C235.69 34.632 235.79 34.196 235.79 33.7ZM152.752 62.108C152.248 62.108 151.796 62.024 151.396 61.856C150.996 61.68 150.68 61.44 150.448 61.136C150.216 60.824 150.088 60.468 150.064 60.068H151.192C151.224 60.396 151.376 60.664 151.648 60.872C151.928 61.08 152.292 61.184 152.74 61.184C153.156 61.184 153.484 61.092 153.724 60.908C153.964 60.724 154.084 60.492 154.084 60.212C154.084 59.924 153.956 59.712 153.7 59.576C153.444 59.432 153.048 59.292 152.512 59.156C152.024 59.028 151.624 58.9 151.312 58.772C151.008 58.636 150.744 58.44 150.52 58.184C150.304 57.92 150.196 57.576 150.196 57.152C150.196 56.816 150.296 56.508 150.496 56.228C150.696 55.948 150.98 55.728 151.348 55.568C151.716 55.4 152.136 55.316 152.608 55.316C153.336 55.316 153.924 55.5 154.372 55.868C154.82 56.236 155.06 56.74 155.092 57.38H154C153.976 57.036 153.836 56.76 153.58 56.552C153.332 56.344 152.996 56.24 152.572 56.24C152.18 56.24 151.868 56.324 151.636 56.492C151.404 56.66 151.288 56.88 151.288 57.152C151.288 57.368 151.356 57.548 151.492 57.692C151.636 57.828 151.812 57.94 152.02 58.028C152.236 58.108 152.532 58.2 152.908 58.304C153.38 58.432 153.764 58.56 154.06 58.688C154.356 58.808 154.608 58.992 154.816 59.24C155.032 59.488 155.144 59.812 155.152 60.212C155.152 60.572 155.052 60.896 154.852 61.184C154.652 61.472 154.368 61.7 154 61.868C153.64 62.028 153.224 62.108 152.752 62.108ZM157.618 56.324V60.2C157.618 60.52 157.686 60.748 157.822 60.884C157.958 61.012 158.194 61.076 158.53 61.076H159.334V62H158.35C157.742 62 157.286 61.86 156.982 61.58C156.678 61.3 156.526 60.84 156.526 60.2V56.324H155.674V55.424H156.526V53.768H157.618V55.424H159.334V56.324H157.618ZM161.341 56.492C161.533 56.116 161.805 55.824 162.157 55.616C162.517 55.408 162.953 55.304 163.465 55.304V56.432H163.177C161.953 56.432 161.341 57.096 161.341 58.424V62H160.249V55.424H161.341V56.492ZM170.317 58.46C170.317 58.668 170.305 58.888 170.281 59.12H165.025C165.065 59.768 165.285 60.276 165.685 60.644C166.093 61.004 166.585 61.184 167.161 61.184C167.633 61.184 168.025 61.076 168.337 60.86C168.657 60.636 168.881 60.34 169.009 59.972H170.185C170.009 60.604 169.657 61.12 169.129 61.52C168.601 61.912 167.945 62.108 167.161 62.108C166.537 62.108 165.977 61.968 165.481 61.688C164.993 61.408 164.609 61.012 164.329 60.5C164.049 59.98 163.909 59.38 163.909 58.7C163.909 58.02 164.045 57.424 164.317 56.912C164.589 56.4 164.969 56.008 165.457 55.736C165.953 55.456 166.521 55.316 167.161 55.316C167.785 55.316 168.337 55.452 168.817 55.724C169.297 55.996 169.665 56.372 169.921 56.852C170.185 57.324 170.317 57.86 170.317 58.46ZM169.189 58.232C169.189 57.816 169.097 57.46 168.913 57.164C168.729 56.86 168.477 56.632 168.157 56.48C167.845 56.32 167.497 56.24 167.113 56.24C166.561 56.24 166.089 56.416 165.697 56.768C165.313 57.12 165.093 57.608 165.037 58.232H169.189ZM173.679 62.108C173.175 62.108 172.723 62.024 172.323 61.856C171.923 61.68 171.607 61.44 171.375 61.136C171.143 60.824 171.015 60.468 170.991 60.068H172.119C172.151 60.396 172.303 60.664 172.575 60.872C172.855 61.08 173.219 61.184 173.667 61.184C174.083 61.184 174.411 61.092 174.651 60.908C174.891 60.724 175.011 60.492 175.011 60.212C175.011 59.924 174.883 59.712 174.627 59.576C174.371 59.432 173.975 59.292 173.439 59.156C172.951 59.028 172.551 58.9 172.239 58.772C171.935 58.636 171.671 58.44 171.447 58.184C171.231 57.92 171.123 57.576 171.123 57.152C171.123 56.816 171.223 56.508 171.423 56.228C171.623 55.948 171.907 55.728 172.275 55.568C172.643 55.4 173.063 55.316 173.535 55.316C174.263 55.316 174.851 55.5 175.299 55.868C175.747 56.236 175.987 56.74 176.019 57.38H174.927C174.903 57.036 174.763 56.76 174.507 56.552C174.259 56.344 173.923 56.24 173.499 56.24C173.107 56.24 172.795 56.324 172.563 56.492C172.331 56.66 172.215 56.88 172.215 57.152C172.215 57.368 172.283 57.548 172.419 57.692C172.563 57.828 172.739 57.94 172.947 58.028C173.163 58.108 173.459 58.2 173.835 58.304C174.307 58.432 174.691 58.56 174.987 58.688C175.283 58.808 175.535 58.992 175.743 59.24C175.959 59.488 176.071 59.812 176.079 60.212C176.079 60.572 175.979 60.896 175.779 61.184C175.579 61.472 175.295 61.7 174.927 61.868C174.567 62.028 174.151 62.108 173.679 62.108ZM179.54 62.108C179.036 62.108 178.584 62.024 178.184 61.856C177.784 61.68 177.468 61.44 177.236 61.136C177.004 60.824 176.876 60.468 176.852 60.068H177.98C178.012 60.396 178.164 60.664 178.436 60.872C178.716 61.08 179.08 61.184 179.528 61.184C179.944 61.184 180.272 61.092 180.512 60.908C180.752 60.724 180.872 60.492 180.872 60.212C180.872 59.924 180.744 59.712 180.488 59.576C180.232 59.432 179.836 59.292 179.3 59.156C178.812 59.028 178.412 58.9 178.1 58.772C177.796 58.636 177.532 58.44 177.308 58.184C177.092 57.92 176.984 57.576 176.984 57.152C176.984 56.816 177.084 56.508 177.284 56.228C177.484 55.948 177.768 55.728 178.136 55.568C178.504 55.4 178.924 55.316 179.396 55.316C180.124 55.316 180.712 55.5 181.16 55.868C181.608 56.236 181.848 56.74 181.88 57.38H180.788C180.764 57.036 180.624 56.76 180.368 56.552C180.12 56.344 179.784 56.24 179.36 56.24C178.968 56.24 178.656 56.324 178.424 56.492C178.192 56.66 178.076 56.88 178.076 57.152C178.076 57.368 178.144 57.548 178.28 57.692C178.424 57.828 178.6 57.94 178.808 58.028C179.024 58.108 179.32 58.2 179.696 58.304C180.168 58.432 180.552 58.56 180.848 58.688C181.144 58.808 181.396 58.992 181.604 59.24C181.82 59.488 181.932 59.812 181.94 60.212C181.94 60.572 181.84 60.896 181.64 61.184C181.44 61.472 181.156 61.7 180.788 61.868C180.428 62.028 180.012 62.108 179.54 62.108ZM186.957 53.12V62H185.865V53.12H186.957ZM194.41 58.46C194.41 58.668 194.398 58.888 194.374 59.12H189.118C189.158 59.768 189.378 60.276 189.778 60.644C190.186 61.004 190.678 61.184 191.254 61.184C191.726 61.184 192.118 61.076 192.43 60.86C192.75 60.636 192.974 60.34 193.102 59.972H194.278C194.102 60.604 193.75 61.12 193.222 61.52C192.694 61.912 192.038 62.108 191.254 62.108C190.63 62.108 190.07 61.968 189.574 61.688C189.086 61.408 188.702 61.012 188.422 60.5C188.142 59.98 188.002 59.38 188.002 58.7C188.002 58.02 188.138 57.424 188.41 56.912C188.682 56.4 189.062 56.008 189.55 55.736C190.046 55.456 190.614 55.316 191.254 55.316C191.878 55.316 192.43 55.452 192.91 55.724C193.39 55.996 193.758 56.372 194.014 56.852C194.278 57.324 194.41 57.86 194.41 58.46ZM193.282 58.232C193.282 57.816 193.19 57.46 193.006 57.164C192.822 56.86 192.57 56.632 192.25 56.48C191.938 56.32 191.59 56.24 191.206 56.24C190.654 56.24 190.182 56.416 189.79 56.768C189.406 57.12 189.186 57.608 189.13 58.232H193.282ZM197.771 62.108C197.267 62.108 196.815 62.024 196.415 61.856C196.015 61.68 195.699 61.44 195.467 61.136C195.235 60.824 195.107 60.468 195.083 60.068H196.211C196.243 60.396 196.395 60.664 196.667 60.872C196.947 61.08 197.311 61.184 197.759 61.184C198.175 61.184 198.503 61.092 198.743 60.908C198.983 60.724 199.103 60.492 199.103 60.212C199.103 59.924 198.975 59.712 198.719 59.576C198.463 59.432 198.067 59.292 197.531 59.156C197.043 59.028 196.643 58.9 196.331 58.772C196.027 58.636 195.763 58.44 195.539 58.184C195.323 57.92 195.215 57.576 195.215 57.152C195.215 56.816 195.315 56.508 195.515 56.228C195.715 55.948 195.999 55.728 196.367 55.568C196.735 55.4 197.155 55.316 197.627 55.316C198.355 55.316 198.943 55.5 199.391 55.868C199.839 56.236 200.079 56.74 200.111 57.38H199.019C198.995 57.036 198.855 56.76 198.599 56.552C198.351 56.344 198.015 56.24 197.591 56.24C197.199 56.24 196.887 56.324 196.655 56.492C196.423 56.66 196.307 56.88 196.307 57.152C196.307 57.368 196.375 57.548 196.511 57.692C196.655 57.828 196.831 57.94 197.039 58.028C197.255 58.108 197.551 58.2 197.927 58.304C198.399 58.432 198.783 58.56 199.079 58.688C199.375 58.808 199.627 58.992 199.835 59.24C200.051 59.488 200.163 59.812 200.171 60.212C200.171 60.572 200.071 60.896 199.871 61.184C199.671 61.472 199.387 61.7 199.019 61.868C198.659 62.028 198.243 62.108 197.771 62.108ZM203.633 62.108C203.129 62.108 202.677 62.024 202.277 61.856C201.877 61.68 201.561 61.44 201.329 61.136C201.097 60.824 200.969 60.468 200.945 60.068H202.073C202.105 60.396 202.257 60.664 202.529 60.872C202.809 61.08 203.173 61.184 203.621 61.184C204.037 61.184 204.365 61.092 204.605 60.908C204.845 60.724 204.965 60.492 204.965 60.212C204.965 59.924 204.837 59.712 204.581 59.576C204.325 59.432 203.929 59.292 203.393 59.156C202.905 59.028 202.505 58.9 202.193 58.772C201.889 58.636 201.625 58.44 201.401 58.184C201.185 57.92 201.077 57.576 201.077 57.152C201.077 56.816 201.177 56.508 201.377 56.228C201.577 55.948 201.861 55.728 202.229 55.568C202.597 55.4 203.017 55.316 203.489 55.316C204.217 55.316 204.805 55.5 205.253 55.868C205.701 56.236 205.941 56.74 205.973 57.38H204.881C204.857 57.036 204.717 56.76 204.461 56.552C204.213 56.344 203.877 56.24 203.453 56.24C203.061 56.24 202.749 56.324 202.517 56.492C202.285 56.66 202.169 56.88 202.169 57.152C202.169 57.368 202.237 57.548 202.373 57.692C202.517 57.828 202.693 57.94 202.901 58.028C203.117 58.108 203.413 58.2 203.789 58.304C204.261 58.432 204.645 58.56 204.941 58.688C205.237 58.808 205.489 58.992 205.697 59.24C205.913 59.488 206.025 59.812 206.033 60.212C206.033 60.572 205.933 60.896 205.733 61.184C205.533 61.472 205.249 61.7 204.881 61.868C204.521 62.028 204.105 62.108 203.633 62.108ZM218.718 55.424L216.666 62H215.538L213.954 56.78L212.37 62H211.242L209.178 55.424H210.294L211.806 60.944L213.438 55.424H214.554L216.15 60.956L217.638 55.424H218.718ZM219.957 54.356C219.749 54.356 219.573 54.284 219.429 54.14C219.285 53.996 219.213 53.82 219.213 53.612C219.213 53.404 219.285 53.228 219.429 53.084C219.573 52.94 219.749 52.868 219.957 52.868C220.157 52.868 220.325 52.94 220.461 53.084C220.605 53.228 220.677 53.404 220.677 53.612C220.677 53.82 220.605 53.996 220.461 54.14C220.325 54.284 220.157 54.356 219.957 54.356ZM220.485 55.424V62H219.393V55.424H220.485ZM223.271 56.324V60.2C223.271 60.52 223.339 60.748 223.475 60.884C223.611 61.012 223.847 61.076 224.183 61.076H224.987V62H224.003C223.395 62 222.939 61.86 222.635 61.58C222.331 61.3 222.179 60.84 222.179 60.2V56.324H221.327V55.424H222.179V53.768H223.271V55.424H224.987V56.324H223.271ZM229.166 55.304C229.662 55.304 230.11 55.412 230.51 55.628C230.91 55.836 231.222 56.152 231.446 56.576C231.678 57 231.794 57.516 231.794 58.124V62H230.714V58.28C230.714 57.624 230.55 57.124 230.222 56.78C229.894 56.428 229.446 56.252 228.878 56.252C228.302 56.252 227.842 56.432 227.498 56.792C227.162 57.152 226.994 57.676 226.994 58.364V62H225.902V53.12H226.994V56.36C227.21 56.024 227.506 55.764 227.882 55.58C228.266 55.396 228.694 55.304 229.166 55.304ZM238.829 62.108C238.213 62.108 237.653 61.968 237.149 61.688C236.653 61.408 236.261 61.012 235.973 60.5C235.693 59.98 235.553 59.38 235.553 58.7C235.553 58.028 235.697 57.436 235.985 56.924C236.281 56.404 236.681 56.008 237.185 55.736C237.689 55.456 238.253 55.316 238.877 55.316C239.501 55.316 240.065 55.456 240.569 55.736C241.073 56.008 241.469 56.4 241.757 56.912C242.053 57.424 242.201 58.02 242.201 58.7C242.201 59.38 242.049 59.98 241.745 60.5C241.449 61.012 241.045 61.408 240.533 61.688C240.021 61.968 239.453 62.108 238.829 62.108ZM238.829 61.148C239.221 61.148 239.589 61.056 239.933 60.872C240.277 60.688 240.553 60.412 240.761 60.044C240.977 59.676 241.085 59.228 241.085 58.7C241.085 58.172 240.981 57.724 240.773 57.356C240.565 56.988 240.293 56.716 239.957 56.54C239.621 56.356 239.257 56.264 238.865 56.264C238.465 56.264 238.097 56.356 237.761 56.54C237.433 56.716 237.169 56.988 236.969 57.356C236.769 57.724 236.669 58.172 236.669 58.7C236.669 59.236 236.765 59.688 236.957 60.056C237.157 60.424 237.421 60.7 237.749 60.884C238.077 61.06 238.437 61.148 238.829 61.148ZM249.06 55.424V62H247.968V61.028C247.76 61.364 247.468 61.628 247.092 61.82C246.724 62.004 246.316 62.096 245.868 62.096C245.356 62.096 244.896 61.992 244.488 61.784C244.08 61.568 243.756 61.248 243.516 60.824C243.284 60.4 243.168 59.884 243.168 59.276V55.424H244.248V59.132C244.248 59.78 244.412 60.28 244.74 60.632C245.068 60.976 245.516 61.148 246.084 61.148C246.668 61.148 247.128 60.968 247.464 60.608C247.8 60.248 247.968 59.724 247.968 59.036V55.424H249.06ZM251.588 56.492C251.78 56.116 252.052 55.824 252.404 55.616C252.764 55.408 253.2 55.304 253.712 55.304V56.432H253.424C252.2 56.432 251.588 57.096 251.588 58.424V62H250.496V55.424H251.588V56.492ZM153.292 86.108C152.676 86.108 152.116 85.968 151.612 85.688C151.116 85.408 150.724 85.012 150.436 84.5C150.156 83.98 150.016 83.38 150.016 82.7C150.016 82.028 150.16 81.436 150.448 80.924C150.744 80.404 151.144 80.008 151.648 79.736C152.152 79.456 152.716 79.316 153.34 79.316C153.964 79.316 154.528 79.456 155.032 79.736C155.536 80.008 155.932 80.4 156.22 80.912C156.516 81.424 156.664 82.02 156.664 82.7C156.664 83.38 156.512 83.98 156.208 84.5C155.912 85.012 155.508 85.408 154.996 85.688C154.484 85.968 153.916 86.108 153.292 86.108ZM153.292 85.148C153.684 85.148 154.052 85.056 154.396 84.872C154.74 84.688 155.016 84.412 155.224 84.044C155.44 83.676 155.548 83.228 155.548 82.7C155.548 82.172 155.444 81.724 155.236 81.356C155.028 80.988 154.756 80.716 154.42 80.54C154.084 80.356 153.72 80.264 153.328 80.264C152.928 80.264 152.56 80.356 152.224 80.54C151.896 80.716 151.632 80.988 151.432 81.356C151.232 81.724 151.132 82.172 151.132 82.7C151.132 83.236 151.228 83.688 151.42 84.056C151.62 84.424 151.884 84.7 152.212 84.884C152.54 85.06 152.9 85.148 153.292 85.148ZM160.896 79.304C161.696 79.304 162.344 79.548 162.84 80.036C163.336 80.516 163.584 81.212 163.584 82.124V86H162.504V82.28C162.504 81.624 162.34 81.124 162.012 80.78C161.684 80.428 161.236 80.252 160.668 80.252C160.092 80.252 159.632 80.432 159.288 80.792C158.952 81.152 158.784 81.676 158.784 82.364V86H157.692V79.424H158.784V80.36C159 80.024 159.292 79.764 159.66 79.58C160.036 79.396 160.448 79.304 160.896 79.304ZM166.052 77.12V86H164.96V77.12H166.052ZM168.069 78.356C167.861 78.356 167.685 78.284 167.541 78.14C167.397 77.996 167.325 77.82 167.325 77.612C167.325 77.404 167.397 77.228 167.541 77.084C167.685 76.94 167.861 76.868 168.069 76.868C168.269 76.868 168.437 76.94 168.573 77.084C168.717 77.228 168.789 77.404 168.789 77.612C168.789 77.82 168.717 77.996 168.573 78.14C168.437 78.284 168.269 78.356 168.069 78.356ZM168.597 79.424V86H167.505V79.424H168.597ZM173.254 79.304C174.054 79.304 174.702 79.548 175.198 80.036C175.694 80.516 175.942 81.212 175.942 82.124V86H174.862V82.28C174.862 81.624 174.698 81.124 174.37 80.78C174.042 80.428 173.594 80.252 173.026 80.252C172.45 80.252 171.99 80.432 171.646 80.792C171.31 81.152 171.142 81.676 171.142 82.364V86H170.05V79.424H171.142V80.36C171.358 80.024 171.65 79.764 172.018 79.58C172.394 79.396 172.806 79.304 173.254 79.304ZM183.318 82.46C183.318 82.668 183.306 82.888 183.282 83.12H178.026C178.066 83.768 178.286 84.276 178.686 84.644C179.094 85.004 179.586 85.184 180.162 85.184C180.634 85.184 181.026 85.076 181.338 84.86C181.658 84.636 181.882 84.34 182.01 83.972H183.186C183.01 84.604 182.658 85.12 182.13 85.52C181.602 85.912 180.946 86.108 180.162 86.108C179.538 86.108 178.978 85.968 178.482 85.688C177.994 85.408 177.61 85.012 177.33 84.5C177.05 83.98 176.91 83.38 176.91 82.7C176.91 82.02 177.046 81.424 177.318 80.912C177.59 80.4 177.97 80.008 178.458 79.736C178.954 79.456 179.522 79.316 180.162 79.316C180.786 79.316 181.338 79.452 181.818 79.724C182.298 79.996 182.666 80.372 182.922 80.852C183.186 81.324 183.318 81.86 183.318 82.46ZM182.19 82.232C182.19 81.816 182.098 81.46 181.914 81.164C181.73 80.86 181.478 80.632 181.158 80.48C180.846 80.32 180.498 80.24 180.114 80.24C179.562 80.24 179.09 80.416 178.698 80.768C178.314 81.12 178.094 81.608 178.038 82.232H182.19ZM190.01 86.108C189.394 86.108 188.834 85.968 188.33 85.688C187.834 85.408 187.442 85.012 187.154 84.5C186.874 83.98 186.734 83.38 186.734 82.7C186.734 82.028 186.878 81.436 187.166 80.924C187.462 80.404 187.862 80.008 188.366 79.736C188.87 79.456 189.434 79.316 190.058 79.316C190.682 79.316 191.246 79.456 191.75 79.736C192.254 80.008 192.65 80.4 192.938 80.912C193.234 81.424 193.382 82.02 193.382 82.7C193.382 83.38 193.23 83.98 192.926 84.5C192.63 85.012 192.226 85.408 191.714 85.688C191.202 85.968 190.634 86.108 190.01 86.108ZM190.01 85.148C190.402 85.148 190.77 85.056 191.114 84.872C191.458 84.688 191.734 84.412 191.942 84.044C192.158 83.676 192.266 83.228 192.266 82.7C192.266 82.172 192.162 81.724 191.954 81.356C191.746 80.988 191.474 80.716 191.138 80.54C190.802 80.356 190.438 80.264 190.046 80.264C189.646 80.264 189.278 80.356 188.942 80.54C188.614 80.716 188.35 80.988 188.15 81.356C187.95 81.724 187.85 82.172 187.85 82.7C187.85 83.236 187.946 83.688 188.138 84.056C188.338 84.424 188.602 84.7 188.93 84.884C189.258 85.06 189.618 85.148 190.01 85.148ZM195.502 77.12V86H194.41V77.12H195.502ZM196.547 82.688C196.547 82.016 196.683 81.428 196.955 80.924C197.227 80.412 197.599 80.016 198.071 79.736C198.551 79.456 199.087 79.316 199.679 79.316C200.191 79.316 200.667 79.436 201.107 79.676C201.547 79.908 201.883 80.216 202.115 80.6V77.12H203.219V86H202.115V84.764C201.899 85.156 201.579 85.48 201.155 85.736C200.731 85.984 200.235 86.108 199.667 86.108C199.083 86.108 198.551 85.964 198.071 85.676C197.599 85.388 197.227 84.984 196.955 84.464C196.683 83.944 196.547 83.352 196.547 82.688ZM202.115 82.7C202.115 82.204 202.015 81.772 201.815 81.404C201.615 81.036 201.343 80.756 200.999 80.564C200.663 80.364 200.291 80.264 199.883 80.264C199.475 80.264 199.103 80.36 198.767 80.552C198.431 80.744 198.163 81.024 197.963 81.392C197.763 81.76 197.663 82.192 197.663 82.688C197.663 83.192 197.763 83.632 197.963 84.008C198.163 84.376 198.431 84.66 198.767 84.86C199.103 85.052 199.475 85.148 199.883 85.148C200.291 85.148 200.663 85.052 200.999 84.86C201.343 84.66 201.615 84.376 201.815 84.008C202.015 83.632 202.115 83.196 202.115 82.7ZM208.54 80.648C208.764 80.256 209.092 79.936 209.524 79.688C209.956 79.44 210.448 79.316 211 79.316C211.592 79.316 212.124 79.456 212.596 79.736C213.068 80.016 213.44 80.412 213.712 80.924C213.984 81.428 214.12 82.016 214.12 82.688C214.12 83.352 213.984 83.944 213.712 84.464C213.44 84.984 213.064 85.388 212.584 85.676C212.112 85.964 211.584 86.108 211 86.108C210.432 86.108 209.932 85.984 209.5 85.736C209.076 85.488 208.756 85.172 208.54 84.788V86H207.448V77.12H208.54V80.648ZM213.004 82.688C213.004 82.192 212.904 81.76 212.704 81.392C212.504 81.024 212.232 80.744 211.888 80.552C211.552 80.36 211.18 80.264 210.772 80.264C210.372 80.264 210 80.364 209.656 80.564C209.32 80.756 209.048 81.04 208.84 81.416C208.64 81.784 208.54 82.212 208.54 82.7C208.54 83.196 208.64 83.632 208.84 84.008C209.048 84.376 209.32 84.66 209.656 84.86C210 85.052 210.372 85.148 210.772 85.148C211.18 85.148 211.552 85.052 211.888 84.86C212.232 84.66 212.504 84.376 212.704 84.008C212.904 83.632 213.004 83.192 213.004 82.688ZM218.017 86.108C217.401 86.108 216.841 85.968 216.337 85.688C215.841 85.408 215.449 85.012 215.161 84.5C214.881 83.98 214.741 83.38 214.741 82.7C214.741 82.028 214.885 81.436 215.173 80.924C215.469 80.404 215.869 80.008 216.373 79.736C216.877 79.456 217.441 79.316 218.065 79.316C218.689 79.316 219.253 79.456 219.757 79.736C220.261 80.008 220.657 80.4 220.945 80.912C221.241 81.424 221.389 82.02 221.389 82.7C221.389 83.38 221.237 83.98 220.933 84.5C220.637 85.012 220.233 85.408 219.721 85.688C219.209 85.968 218.641 86.108 218.017 86.108ZM218.017 85.148C218.409 85.148 218.777 85.056 219.121 84.872C219.465 84.688 219.741 84.412 219.949 84.044C220.165 83.676 220.273 83.228 220.273 82.7C220.273 82.172 220.169 81.724 219.961 81.356C219.753 80.988 219.481 80.716 219.145 80.54C218.809 80.356 218.445 80.264 218.053 80.264C217.653 80.264 217.285 80.356 216.949 80.54C216.621 80.716 216.357 80.988 216.157 81.356C215.957 81.724 215.857 82.172 215.857 82.7C215.857 83.236 215.953 83.688 216.145 84.056C216.345 84.424 216.609 84.7 216.937 84.884C217.265 85.06 217.625 85.148 218.017 85.148ZM225.285 86.108C224.669 86.108 224.109 85.968 223.605 85.688C223.109 85.408 222.717 85.012 222.429 84.5C222.149 83.98 222.009 83.38 222.009 82.7C222.009 82.028 222.153 81.436 222.441 80.924C222.737 80.404 223.137 80.008 223.641 79.736C224.145 79.456 224.709 79.316 225.333 79.316C225.957 79.316 226.521 79.456 227.025 79.736C227.529 80.008 227.925 80.4 228.213 80.912C228.509 81.424 228.657 82.02 228.657 82.7C228.657 83.38 228.505 83.98 228.201 84.5C227.905 85.012 227.501 85.408 226.989 85.688C226.477 85.968 225.909 86.108 225.285 86.108ZM225.285 85.148C225.677 85.148 226.045 85.056 226.389 84.872C226.733 84.688 227.009 84.412 227.217 84.044C227.433 83.676 227.541 83.228 227.541 82.7C227.541 82.172 227.437 81.724 227.229 81.356C227.021 80.988 226.749 80.716 226.413 80.54C226.077 80.356 225.713 80.264 225.321 80.264C224.921 80.264 224.553 80.356 224.217 80.54C223.889 80.716 223.625 80.988 223.425 81.356C223.225 81.724 223.125 82.172 223.125 82.7C223.125 83.236 223.221 83.688 223.413 84.056C223.613 84.424 223.877 84.7 224.205 84.884C224.533 85.06 224.893 85.148 225.285 85.148ZM233.357 86L230.777 83.096V86H229.685V77.12H230.777V82.34L233.309 79.424H234.833L231.737 82.7L234.845 86H233.357ZM154.307 105.492C154.499 105.116 154.771 104.824 155.123 104.616C155.483 104.408 155.919 104.304 156.431 104.304V105.432H156.143C154.919 105.432 154.307 106.096 154.307 107.424V111H153.215V104.424H154.307V105.492ZM163.284 107.46C163.284 107.668 163.272 107.888 163.248 108.12H157.992C158.032 108.768 158.252 109.276 158.652 109.644C159.06 110.004 159.552 110.184 160.128 110.184C160.6 110.184 160.992 110.076 161.304 109.86C161.624 109.636 161.848 109.34 161.976 108.972H163.152C162.976 109.604 162.624 110.12 162.096 110.52C161.568 110.912 160.912 111.108 160.128 111.108C159.504 111.108 158.944 110.968 158.448 110.688C157.96 110.408 157.576 110.012 157.296 109.5C157.016 108.98 156.876 108.38 156.876 107.7C156.876 107.02 157.012 106.424 157.284 105.912C157.556 105.4 157.936 105.008 158.424 104.736C158.92 104.456 159.488 104.316 160.128 104.316C160.752 104.316 161.304 104.452 161.784 104.724C162.264 104.996 162.632 105.372 162.888 105.852C163.152 106.324 163.284 106.86 163.284 107.46ZM162.156 107.232C162.156 106.816 162.064 106.46 161.88 106.164C161.696 105.86 161.444 105.632 161.124 105.48C160.812 105.32 160.464 105.24 160.08 105.24C159.528 105.24 159.056 105.416 158.664 105.768C158.28 106.12 158.06 106.608 158.004 107.232H162.156ZM163.909 107.688C163.909 107.016 164.045 106.428 164.317 105.924C164.589 105.412 164.961 105.016 165.433 104.736C165.913 104.456 166.445 104.316 167.029 104.316C167.605 104.316 168.105 104.44 168.529 104.688C168.953 104.936 169.269 105.248 169.477 105.624V104.424H170.581V111H169.477V109.776C169.261 110.16 168.937 110.48 168.505 110.736C168.081 110.984 167.585 111.108 167.017 111.108C166.433 111.108 165.905 110.964 165.433 110.676C164.961 110.388 164.589 109.984 164.317 109.464C164.045 108.944 163.909 108.352 163.909 107.688ZM169.477 107.7C169.477 107.204 169.377 106.772 169.177 106.404C168.977 106.036 168.705 105.756 168.361 105.564C168.025 105.364 167.653 105.264 167.245 105.264C166.837 105.264 166.465 105.36 166.129 105.552C165.793 105.744 165.525 106.024 165.325 106.392C165.125 106.76 165.025 107.192 165.025 107.688C165.025 108.192 165.125 108.632 165.325 109.008C165.525 109.376 165.793 109.66 166.129 109.86C166.465 110.052 166.837 110.148 167.245 110.148C167.653 110.148 168.025 110.052 168.361 109.86C168.705 109.66 168.977 109.376 169.177 109.008C169.377 108.632 169.477 108.196 169.477 107.7ZM171.611 107.688C171.611 107.016 171.747 106.428 172.019 105.924C172.291 105.412 172.663 105.016 173.135 104.736C173.615 104.456 174.151 104.316 174.743 104.316C175.255 104.316 175.731 104.436 176.171 104.676C176.611 104.908 176.947 105.216 177.179 105.6V102.12H178.283V111H177.179V109.764C176.963 110.156 176.643 110.48 176.219 110.736C175.795 110.984 175.299 111.108 174.731 111.108C174.147 111.108 173.615 110.964 173.135 110.676C172.663 110.388 172.291 109.984 172.019 109.464C171.747 108.944 171.611 108.352 171.611 107.688ZM177.179 107.7C177.179 107.204 177.079 106.772 176.879 106.404C176.679 106.036 176.407 105.756 176.063 105.564C175.727 105.364 175.355 105.264 174.947 105.264C174.539 105.264 174.167 105.36 173.831 105.552C173.495 105.744 173.227 106.024 173.027 106.392C172.827 106.76 172.727 107.192 172.727 107.688C172.727 108.192 172.827 108.632 173.027 109.008C173.227 109.376 173.495 109.66 173.831 109.86C174.167 110.052 174.539 110.148 174.947 110.148C175.355 110.148 175.727 110.052 176.063 109.86C176.407 109.66 176.679 109.376 176.879 109.008C177.079 108.632 177.179 108.196 177.179 107.7ZM180.284 103.356C180.076 103.356 179.9 103.284 179.756 103.14C179.612 102.996 179.54 102.82 179.54 102.612C179.54 102.404 179.612 102.228 179.756 102.084C179.9 101.94 180.076 101.868 180.284 101.868C180.484 101.868 180.652 101.94 180.788 102.084C180.932 102.228 181.004 102.404 181.004 102.612C181.004 102.82 180.932 102.996 180.788 103.14C180.652 103.284 180.484 103.356 180.284 103.356ZM180.812 104.424V111H179.72V104.424H180.812ZM185.469 104.304C186.269 104.304 186.917 104.548 187.413 105.036C187.909 105.516 188.157 106.212 188.157 107.124V111H187.077V107.28C187.077 106.624 186.913 106.124 186.585 105.78C186.257 105.428 185.809 105.252 185.241 105.252C184.665 105.252 184.205 105.432 183.861 105.792C183.525 106.152 183.357 106.676 183.357 107.364V111H182.265V104.424H183.357V105.36C183.573 105.024 183.865 104.764 184.233 104.58C184.609 104.396 185.021 104.304 185.469 104.304ZM192.245 104.316C192.813 104.316 193.309 104.44 193.733 104.688C194.165 104.936 194.485 105.248 194.693 105.624V104.424H195.797V111.144C195.797 111.744 195.669 112.276 195.413 112.74C195.157 113.212 194.789 113.58 194.309 113.844C193.837 114.108 193.285 114.24 192.653 114.24C191.789 114.24 191.069 114.036 190.493 113.628C189.917 113.22 189.577 112.664 189.473 111.96H190.553C190.673 112.36 190.921 112.68 191.297 112.92C191.673 113.168 192.125 113.292 192.653 113.292C193.253 113.292 193.741 113.104 194.117 112.728C194.501 112.352 194.693 111.824 194.693 111.144V109.764C194.477 110.148 194.157 110.468 193.733 110.724C193.309 110.98 192.813 111.108 192.245 111.108C191.661 111.108 191.129 110.964 190.649 110.676C190.177 110.388 189.805 109.984 189.533 109.464C189.261 108.944 189.125 108.352 189.125 107.688C189.125 107.016 189.261 106.428 189.533 105.924C189.805 105.412 190.177 105.016 190.649 104.736C191.129 104.456 191.661 104.316 192.245 104.316ZM194.693 107.7C194.693 107.204 194.593 106.772 194.393 106.404C194.193 106.036 193.921 105.756 193.577 105.564C193.241 105.364 192.869 105.264 192.461 105.264C192.053 105.264 191.681 105.36 191.345 105.552C191.009 105.744 190.741 106.024 190.541 106.392C190.341 106.76 190.241 107.192 190.241 107.688C190.241 108.192 190.341 108.632 190.541 109.008C190.741 109.376 191.009 109.66 191.345 109.86C191.681 110.052 192.053 110.148 192.461 110.148C192.869 110.148 193.241 110.052 193.577 109.86C193.921 109.66 194.193 109.376 194.393 109.008C194.593 108.632 194.693 108.196 194.693 107.7ZM198.65 102.636L198.518 108.636H197.606L197.474 102.636H198.65ZM198.11 111.072C197.902 111.072 197.726 111 197.582 110.856C197.438 110.712 197.366 110.536 197.366 110.328C197.366 110.12 197.438 109.944 197.582 109.8C197.726 109.656 197.902 109.584 198.11 109.584C198.31 109.584 198.478 109.656 198.614 109.8C198.758 109.944 198.83 110.12 198.83 110.328C198.83 110.536 198.758 110.712 198.614 110.856C198.478 111 198.31 111.072 198.11 111.072Z" fill="white"/>
<defs>
<clipPath id="clip0_491_4312">
<rect width="133" height="140" rx="30" fill="white"/>
</clipPath>
<clipPath id="clip1_491_4312">
<rect x="137" y="289" width="132" height="138" rx="30" fill="white"/>
</clipPath>
<clipPath id="clip2_491_4312">
<rect y="144" width="133" height="140" rx="30" fill="white"/>
</clipPath>
<clipPath id="clip3_491_4312">
<rect x="137" y="144" width="132" height="140" rx="30" fill="white"/>
</clipPath>
</defs>
</svg>
