<svg width="82" height="18" viewBox="0 0 82 18" fill="none" xmlns="http://www.w3.org/2000/svg">
<path fill-rule="evenodd" clip-rule="evenodd" d="M10.6316 8.88549C10.5022 9.50398 10.3688 10.1415 10.4386 10.7369L10.1263 10.7592C9.98824 9.40631 8.84545 8.35079 7.45612 8.35079C5.97367 8.35079 4.77191 9.55255 4.77191 11.035C4.77191 12.5174 5.97367 13.7192 7.45612 13.7192C8.84536 13.7192 9.9881 12.6638 10.1263 11.3111L10.4386 11.3334C10.3705 11.9294 10.506 12.5653 10.6374 13.1817C10.8562 14.208 11.0634 15.1802 10.2998 15.8239C9.07748 16.8543 7.50745 17.3782 5.91134 17.2884C4.31523 17.1986 2.81387 16.5019 1.71484 15.3409C0.615809 14.18 0.00230272 12.6428 6.46907e-06 11.0441C-0.00228978 9.4455 0.606798 7.9065 1.70249 6.74242C2.79818 5.57834 4.29753 4.87729 5.89337 4.78291C7.48922 4.68852 9.06075 5.20794 10.286 6.23475C11.0518 6.87653 10.8472 7.85457 10.6316 8.88549Z" fill="white"/>
<path d="M14.9126 4.77197H10.1406V10.7369C14.4354 10.7369 14.9126 6.85969 14.9126 4.77197Z" fill="white"/>
<path d="M14.9126 17.2983H10.1406V11.3334C14.4354 11.3334 14.9126 15.2106 14.9126 17.2983Z" fill="white"/>
<path d="M24.4557 4.79575V8.95454C22.1592 8.47925 20.7152 9.94473 20.2803 10.7369V6.28104C20.9066 4.85516 23.3249 4.69673 24.4557 4.79575Z" fill="white"/>
<path d="M15.5083 4.77197H20.2803V10.7369C15.9855 10.7369 15.5083 6.85969 15.5083 4.77197Z" fill="white"/>
<path d="M15.5083 17.2983H20.2803V11.3334C15.9855 11.3334 15.5083 15.2106 15.5083 17.2983Z" fill="white"/>
<path d="M33.9997 4.79575V8.95454C31.7032 8.47925 30.2592 9.94473 29.8242 10.7369V6.28104C30.4505 4.85516 32.8688 4.69673 33.9997 4.79575Z" fill="white"/>
<path d="M25.0523 4.77197H29.8242V10.7369C25.5295 10.7369 25.0523 6.85969 25.0523 4.77197Z" fill="white"/>
<path d="M25.0523 17.2983H29.8242V11.3334C25.5295 11.3334 25.0523 15.2106 25.0523 17.2983Z" fill="white"/>
<circle cx="15.2108" cy="2.08772" r="2.08772" fill="white"/>
<path d="M38.272 17.3583C38.096 17.3583 37.944 17.2943 37.816 17.1663C37.696 17.0383 37.636 16.8823 37.636 16.6983C37.636 16.5063 37.696 16.3503 37.816 16.2303C37.944 16.1103 38.096 16.0503 38.272 16.0503C38.448 16.0503 38.596 16.1103 38.716 16.2303C38.844 16.3503 38.908 16.5063 38.908 16.6983C38.908 16.8823 38.844 17.0383 38.716 17.1663C38.596 17.2943 38.448 17.3583 38.272 17.3583ZM41.9092 17.3583C41.3172 17.3583 40.8612 17.1983 40.5412 16.8783C40.2212 16.5583 40.0612 16.1063 40.0612 15.5223V9.60634H40.9132V15.4743C40.9132 15.8423 41.0052 16.1263 41.1892 16.3263C41.3812 16.5263 41.6532 16.6263 42.0052 16.6263C42.3812 16.6263 42.6932 16.5183 42.9412 16.3023L43.2412 16.9143C43.0732 17.0663 42.8692 17.1783 42.6292 17.2503C42.3972 17.3223 42.1572 17.3583 41.9092 17.3583ZM38.9332 11.7063V10.9983H42.8332V11.7063H38.9332ZM46.5256 17.3583C45.8696 17.3583 45.2936 17.2223 44.7976 16.9503C44.3016 16.6703 43.9136 16.2903 43.6336 15.8103C43.3536 15.3223 43.2136 14.7663 43.2136 14.1423C43.2136 13.5183 43.3456 12.9663 43.6096 12.4863C43.8816 12.0063 44.2496 11.6303 44.7136 11.3583C45.1856 11.0783 45.7136 10.9383 46.2976 10.9383C46.8896 10.9383 47.4136 11.0743 47.8696 11.3463C48.3336 11.6103 48.6976 11.9863 48.9616 12.4743C49.2256 12.9543 49.3576 13.5103 49.3576 14.1423C49.3576 14.1823 49.3536 14.2263 49.3456 14.2743C49.3456 14.3143 49.3456 14.3583 49.3456 14.4063H43.8616V13.7703H48.8896L48.5536 14.0223C48.5536 13.5663 48.4536 13.1623 48.2536 12.8103C48.0616 12.4503 47.7976 12.1703 47.4616 11.9703C47.1256 11.7703 46.7376 11.6703 46.2976 11.6703C45.8656 11.6703 45.4776 11.7703 45.1336 11.9703C44.7896 12.1703 44.5216 12.4503 44.3296 12.8103C44.1376 13.1703 44.0416 13.5823 44.0416 14.0463V14.1783C44.0416 14.6583 44.1456 15.0823 44.3536 15.4503C44.5696 15.8103 44.8656 16.0943 45.2416 16.3023C45.6256 16.5023 46.0616 16.6023 46.5496 16.6023C46.9336 16.6023 47.2896 16.5343 47.6176 16.3983C47.9536 16.2623 48.2416 16.0543 48.4816 15.7743L48.9616 16.3263C48.6816 16.6623 48.3296 16.9183 47.9056 17.0943C47.4896 17.2703 47.0296 17.3583 46.5256 17.3583ZM52.9878 17.3583C52.3638 17.3583 51.8038 17.2223 51.3078 16.9503C50.8198 16.6703 50.4358 16.2903 50.1558 15.8103C49.8758 15.3223 49.7358 14.7663 49.7358 14.1423C49.7358 13.5103 49.8758 12.9543 50.1558 12.4743C50.4358 11.9943 50.8198 11.6183 51.3078 11.3463C51.8038 11.0743 52.3638 10.9383 52.9878 10.9383C53.5238 10.9383 54.0078 11.0423 54.4398 11.2503C54.8718 11.4583 55.2118 11.7703 55.4598 12.1863L54.8238 12.6183C54.6078 12.2983 54.3398 12.0623 54.0198 11.9103C53.6998 11.7583 53.3518 11.6823 52.9758 11.6823C52.5278 11.6823 52.1238 11.7863 51.7638 11.9943C51.4038 12.1943 51.1198 12.4783 50.9118 12.8463C50.7038 13.2143 50.5998 13.6463 50.5998 14.1423C50.5998 14.6383 50.7038 15.0703 50.9118 15.4383C51.1198 15.8063 51.4038 16.0943 51.7638 16.3023C52.1238 16.5023 52.5278 16.6023 52.9758 16.6023C53.3518 16.6023 53.6998 16.5263 54.0198 16.3743C54.3398 16.2223 54.6078 15.9903 54.8238 15.6783L55.4598 16.1103C55.2118 16.5183 54.8718 16.8303 54.4398 17.0463C54.0078 17.2543 53.5238 17.3583 52.9878 17.3583ZM59.5357 10.9383C60.0477 10.9383 60.4957 11.0383 60.8797 11.2383C61.2717 11.4303 61.5757 11.7263 61.7917 12.1263C62.0157 12.5263 62.1277 13.0303 62.1277 13.6383V17.2983H61.2757V13.7223C61.2757 13.0583 61.1077 12.5583 60.7717 12.2223C60.4437 11.8783 59.9797 11.7063 59.3797 11.7063C58.9317 11.7063 58.5397 11.7983 58.2037 11.9823C57.8757 12.1583 57.6197 12.4183 57.4357 12.7623C57.2597 13.0983 57.1717 13.5063 57.1717 13.9863V17.2983H56.3197V8.39434H57.1717V12.7263L57.0037 12.4023C57.2037 11.9463 57.5237 11.5903 57.9637 11.3343C58.4037 11.0703 58.9277 10.9383 59.5357 10.9383Z" fill="white" fill-opacity="0.7"/>
</svg>
