<svg width="84" height="13" viewBox="0 0 84 13" fill="none" xmlns="http://www.w3.org/2000/svg">
<path fill-rule="evenodd" clip-rule="evenodd" d="M2 12.1168H2.24385C3.23525 12.1168 4.03893 11.3131 4.03893 10.3217C4.03893 9.33031 4.84261 8.52663 5.83401 8.52663H6.28278C7.27418 8.52663 8.07786 9.33031 8.07786 10.3217C8.07786 11.3131 8.88154 12.1168 9.87294 12.1168H10.3217C11.3131 12.1168 12.1168 11.3131 12.1168 10.3217C12.1168 9.33031 12.9205 8.52663 13.9119 8.52663H14.3606C15.352 8.52663 16.1557 9.33031 16.1557 10.3217C16.1557 11.3131 16.9594 12.1168 17.9508 12.1168H18.1947C19.2992 12.1168 20.1946 11.2019 20.1946 10.0973C20.1946 8.99275 19.2798 8.07786 18.1752 8.07786C17.0706 8.07786 16.1557 7.16296 16.1557 6.05839C16.1557 4.95382 15.2408 4.03893 14.1363 4.03893C13.0317 4.03893 12.1168 3.12403 12.1168 2.01946C12.1168 0.914895 11.2019 0 10.0973 0C8.99275 0 8.07786 0.914895 8.07786 2.01946C8.07786 3.12403 7.16296 4.03893 6.05839 4.03893C4.95383 4.03893 4.03893 4.95382 4.03893 6.05839C4.03893 7.16296 3.12403 8.07786 2.01946 8.07786C0.914895 8.07786 0 8.99275 0 10.0973C0 11.2019 0.895431 12.1168 2 12.1168ZM10.0974 4.03912C8.99282 4.03912 8.07792 4.93455 8.07792 6.03912V6.52682C8.07792 7.63139 8.99282 8.52682 10.0974 8.52682C11.202 8.52682 12.1169 7.63139 12.1169 6.52682V6.03912C12.1169 4.93455 11.202 4.03912 10.0974 4.03912Z" fill="url(#paint0_linear_357_5987)"/>
<path fill-rule="evenodd" clip-rule="evenodd" d="M32.8203 6.32235C32.7292 6.75787 32.6353 7.20679 32.6844 7.62603L32.4646 7.64173C32.3673 6.68913 31.5626 5.94591 30.5843 5.94591C29.5404 5.94591 28.6942 6.79214 28.6942 7.83602C28.6942 8.8799 29.5404 9.72613 30.5843 9.72613C31.5626 9.72613 32.3673 8.98293 32.4646 8.03035L32.6844 8.04605C32.6364 8.46572 32.7319 8.91352 32.8244 9.34758C32.9785 10.0703 33.1244 10.7549 32.5867 11.2081C31.726 11.9336 30.6204 12.3026 29.4965 12.2393C28.3726 12.1761 27.3154 11.6855 26.5415 10.868C25.7676 10.0505 25.3356 8.96807 25.334 7.84238C25.3324 6.71669 25.7613 5.63299 26.5328 4.81329C27.3043 3.99359 28.3601 3.49994 29.4839 3.43348C30.6076 3.36702 31.7142 3.73277 32.577 4.45581C33.1162 4.90773 32.9722 5.59642 32.8203 6.32235Z" fill="white"/>
<path d="M35.8348 3.42578H32.4746V7.62603C35.4988 7.62603 35.8348 4.89587 35.8348 3.42578Z" fill="white"/>
<path d="M35.8348 12.2461H32.4746V8.04585C35.4988 8.04585 35.8348 10.776 35.8348 12.2461Z" fill="white"/>
<path d="M42.5554 3.44252V6.37097C40.9383 6.03629 39.9215 7.06823 39.6152 7.62603V4.4884C40.0563 3.48436 41.7591 3.3728 42.5554 3.44252Z" fill="white"/>
<path d="M36.255 3.42578H39.6152V7.62603C36.5911 7.62603 36.255 4.89587 36.255 3.42578Z" fill="white"/>
<path d="M36.255 12.2461H39.6152V8.04585C36.5911 8.04585 36.255 10.776 36.255 12.2461Z" fill="white"/>
<path d="M49.2751 3.44252V6.37097C47.658 6.03629 46.6412 7.06823 46.335 7.62603V4.4884C46.776 3.48436 48.4788 3.3728 49.2751 3.44252Z" fill="white"/>
<path d="M42.9748 3.42578H46.335V7.62603C43.3108 7.62603 42.9748 4.89587 42.9748 3.42578Z" fill="white"/>
<path d="M42.9748 12.2461H46.335V8.04585C43.3108 8.04585 42.9748 10.776 42.9748 12.2461Z" fill="white"/>
<circle cx="36.0443" cy="1.53649" r="1.47009" fill="white"/>
<path d="M53.1234 12.288C53.0061 12.288 52.9047 12.2454 52.8194 12.16C52.7394 12.0747 52.6994 11.9707 52.6994 11.848C52.6994 11.72 52.7394 11.616 52.8194 11.536C52.9047 11.456 53.0061 11.416 53.1234 11.416C53.2407 11.416 53.3394 11.456 53.4194 11.536C53.5047 11.616 53.5474 11.72 53.5474 11.848C53.5474 11.9707 53.5047 12.0747 53.4194 12.16C53.3394 12.2454 53.2407 12.288 53.1234 12.288ZM55.5482 12.288C55.1535 12.288 54.8495 12.1814 54.6362 11.968C54.4229 11.7547 54.3162 11.4534 54.3162 11.064V7.12005H54.8842V11.032C54.8842 11.2774 54.9455 11.4667 55.0682 11.6C55.1962 11.7334 55.3775 11.8 55.6122 11.8C55.8629 11.8 56.0709 11.728 56.2362 11.584L56.4362 11.992C56.3242 12.0934 56.1882 12.168 56.0282 12.216C55.8735 12.264 55.7135 12.288 55.5482 12.288ZM53.5642 8.52005V8.04805H56.1642V8.52005H53.5642ZM58.6258 12.288C58.1884 12.288 57.8044 12.1974 57.4738 12.016C57.1431 11.8294 56.8844 11.576 56.6978 11.256C56.5111 10.9307 56.4178 10.56 56.4178 10.144C56.4178 9.72805 56.5058 9.36005 56.6818 9.04005C56.8631 8.72005 57.1084 8.46938 57.4178 8.28805C57.7324 8.10138 58.0844 8.00805 58.4738 8.00805C58.8684 8.00805 59.2178 8.09871 59.5218 8.28005C59.8311 8.45605 60.0738 8.70671 60.2498 9.03205C60.4258 9.35205 60.5138 9.72271 60.5138 10.144C60.5138 10.1707 60.5111 10.2 60.5058 10.232C60.5058 10.2587 60.5058 10.288 60.5058 10.32H56.8498V9.89605H60.2018L59.9778 10.064C59.9778 9.76005 59.9111 9.49071 59.7778 9.25605C59.6498 9.01605 59.4738 8.82938 59.2498 8.69605C59.0258 8.56271 58.7671 8.49605 58.4738 8.49605C58.1858 8.49605 57.9271 8.56271 57.6978 8.69605C57.4684 8.82938 57.2898 9.01605 57.1618 9.25605C57.0338 9.49605 56.9698 9.77071 56.9698 10.08V10.168C56.9698 10.488 57.0391 10.7707 57.1778 11.016C57.3218 11.256 57.5191 11.4454 57.7698 11.584C58.0258 11.7174 58.3164 11.784 58.6418 11.784C58.8978 11.784 59.1351 11.7387 59.3538 11.648C59.5778 11.5574 59.7698 11.4187 59.9298 11.232L60.2498 11.6C60.0631 11.824 59.8284 11.9947 59.5458 12.112C59.2684 12.2294 58.9618 12.288 58.6258 12.288ZM62.9339 12.288C62.5179 12.288 62.1446 12.1974 61.8139 12.016C61.4886 11.8294 61.2326 11.576 61.0459 11.256C60.8592 10.9307 60.7659 10.56 60.7659 10.144C60.7659 9.72271 60.8592 9.35205 61.0459 9.03205C61.2326 8.71205 61.4886 8.46138 61.8139 8.28005C62.1446 8.09871 62.5179 8.00805 62.9339 8.00805C63.2912 8.00805 63.6139 8.07738 63.9019 8.21605C64.1899 8.35471 64.4166 8.56271 64.5819 8.84005L64.1579 9.12805C64.0139 8.91471 63.8352 8.75738 63.6219 8.65605C63.4086 8.55471 63.1766 8.50405 62.9259 8.50405C62.6272 8.50405 62.3579 8.57338 62.1179 8.71205C61.8779 8.84538 61.6886 9.03471 61.5499 9.28005C61.4112 9.52538 61.3419 9.81338 61.3419 10.144C61.3419 10.4747 61.4112 10.7627 61.5499 11.008C61.6886 11.2534 61.8779 11.4454 62.1179 11.584C62.3579 11.7174 62.6272 11.784 62.9259 11.784C63.1766 11.784 63.4086 11.7334 63.6219 11.632C63.8352 11.5307 64.0139 11.376 64.1579 11.168L64.5819 11.456C64.4166 11.728 64.1899 11.936 63.9019 12.08C63.6139 12.2187 63.2912 12.288 62.9339 12.288ZM67.2992 8.00805C67.6405 8.00805 67.9392 8.07471 68.1952 8.20805C68.4565 8.33605 68.6592 8.53338 68.8032 8.80005C68.9525 9.06671 69.0272 9.40271 69.0272 9.80805V12.248H68.4592V9.86405C68.4592 9.42138 68.3472 9.08805 68.1232 8.86405C67.9045 8.63471 67.5952 8.52005 67.1952 8.52005C66.8965 8.52005 66.6352 8.58138 66.4112 8.70405C66.1925 8.82138 66.0219 8.99471 65.8992 9.22405C65.7819 9.44805 65.7232 9.72005 65.7232 10.04V12.248H65.1552V6.31205H65.7232V9.20005L65.6112 8.98405C65.7445 8.68005 65.9579 8.44271 66.2512 8.27205C66.5445 8.09605 66.8939 8.00805 67.2992 8.00805Z" fill="white" fill-opacity="0.7"/>
<defs>
<linearGradient id="paint0_linear_357_5987" x1="14.585" y1="4.26331" x2="9.7923" y2="10.8822" gradientUnits="userSpaceOnUse">
<stop stop-color="#9DE8EE"/>
<stop offset="0.0001" stop-color="#9DE8EE"/>
<stop offset="1" stop-color="#B9FF66"/>
</linearGradient>
</defs>
</svg>
