<svg width="137" height="28" viewBox="0 0 137 28" fill="none" xmlns="http://www.w3.org/2000/svg">
<path fill-rule="evenodd" clip-rule="evenodd" d="M18 2V7C18 8.10457 17.1046 9 16 9H11C9.89543 9 9 9.89543 9 11V16C9 17.1046 8.10457 18 7 18H2C0.89543 18 0 18.8954 0 20V25C0 26.1046 0.895431 27 2 27H7C8.10457 27 9 26.1046 9 25V21C9 19.8954 9.89543 19 11 19H16C17.1046 19 18 19.8954 18 21V25C18 26.1046 18.8954 27 20 27H25C26.1046 27 27 26.1046 27 25V21C27 19.8954 27.8954 19 29 19H34C35.1046 19 36 19.8954 36 21V25C36 26.1046 36.8954 27 38 27H43C44.1046 27 45 26.1046 45 25V20C45 18.8954 44.1046 18 43 18H38C36.8954 18 36 17.1046 36 16V11C36 9.89543 35.1046 9 34 9H29C27.8954 9 27 8.10457 27 7V2C27 0.89543 26.1046 0 25 0H20C18.8954 0 18 0.895431 18 2ZM20 9C18.8954 9 18 9.89543 18 11V17C18 18.1046 18.8954 19 20 19H25C26.1046 19 27 18.1046 27 17V11C27 9.89543 26.1046 9 25 9H20Z" fill="url(#paint0_linear_325_3757)"/>
<path fill-rule="evenodd" clip-rule="evenodd" d="M65.6316 18.8855C65.5022 19.504 65.3688 20.1415 65.4386 20.7369L65.1263 20.7592C64.9882 19.4063 63.8454 18.3508 62.4561 18.3508C60.9737 18.3508 59.7719 19.5525 59.7719 21.035C59.7719 22.5174 60.9737 23.7192 62.4561 23.7192C63.8454 23.7192 64.9881 22.6638 65.1263 21.3111L65.4386 21.3334C65.3705 21.9294 65.506 22.5653 65.6374 23.1817C65.8562 24.208 66.0634 25.1802 65.2998 25.8239C64.0775 26.8543 62.5074 27.3782 60.9113 27.2884C59.3152 27.1986 57.8139 26.5019 56.7148 25.3409C55.6158 24.18 55.0023 22.6428 55 21.0441C54.9977 19.4455 55.6068 17.9065 56.7025 16.7424C57.7982 15.5783 59.2975 14.8773 60.8934 14.7829C62.4892 14.6885 64.0608 15.2079 65.286 16.2348C66.0518 16.8765 65.8472 17.8546 65.6316 18.8855Z" fill="white"/>
<path d="M69.9126 14.772H65.1406V20.7369C69.4354 20.7369 69.9126 16.8597 69.9126 14.772Z" fill="white"/>
<path d="M69.9126 27.2983H65.1406V21.3334C69.4354 21.3334 69.9126 25.2106 69.9126 27.2983Z" fill="white"/>
<path d="M79.4557 14.7957V18.9545C77.1592 18.4792 75.7152 19.9447 75.2803 20.7369V16.281C75.9066 14.8552 78.3249 14.6967 79.4557 14.7957Z" fill="white"/>
<path d="M70.5083 14.772H75.2803V20.7369C70.9855 20.7369 70.5083 16.8597 70.5083 14.772Z" fill="white"/>
<path d="M70.5083 27.2983H75.2803V21.3334C70.9855 21.3334 70.5083 25.2106 70.5083 27.2983Z" fill="white"/>
<path d="M88.9997 14.7957V18.9545C86.7032 18.4792 85.2592 19.9447 84.8242 20.7369V16.281C85.4505 14.8552 87.8688 14.6967 88.9997 14.7957Z" fill="white"/>
<path d="M80.0523 14.772H84.8242V20.7369C80.5295 20.7369 80.0523 16.8597 80.0523 14.772Z" fill="white"/>
<path d="M80.0523 27.2983H84.8242V21.3334C80.5295 21.3334 80.0523 25.2106 80.0523 27.2983Z" fill="white"/>
<circle cx="70.2108" cy="12.0877" r="2.08772" fill="white"/>
<path d="M93.272 27.3583C93.096 27.3583 92.944 27.2943 92.816 27.1663C92.696 27.0383 92.636 26.8823 92.636 26.6983C92.636 26.5063 92.696 26.3503 92.816 26.2303C92.944 26.1103 93.096 26.0503 93.272 26.0503C93.448 26.0503 93.596 26.1103 93.716 26.2303C93.844 26.3503 93.908 26.5063 93.908 26.6983C93.908 26.8823 93.844 27.0383 93.716 27.1663C93.596 27.2943 93.448 27.3583 93.272 27.3583ZM96.9092 27.3583C96.3172 27.3583 95.8612 27.1983 95.5412 26.8783C95.2212 26.5583 95.0612 26.1063 95.0612 25.5223V19.6063H95.9132V25.4743C95.9132 25.8423 96.0052 26.1263 96.1892 26.3263C96.3812 26.5263 96.6532 26.6263 97.0052 26.6263C97.3812 26.6263 97.6932 26.5183 97.9412 26.3023L98.2412 26.9143C98.0732 27.0663 97.8692 27.1783 97.6292 27.2503C97.3972 27.3223 97.1572 27.3583 96.9092 27.3583ZM93.9332 21.7063V20.9983H97.8332V21.7063H93.9332ZM101.526 27.3583C100.87 27.3583 100.294 27.2223 99.7976 26.9503C99.3016 26.6703 98.9136 26.2903 98.6336 25.8103C98.3536 25.3223 98.2136 24.7663 98.2136 24.1423C98.2136 23.5183 98.3456 22.9663 98.6096 22.4863C98.8816 22.0063 99.2496 21.6303 99.7136 21.3583C100.186 21.0783 100.714 20.9383 101.298 20.9383C101.89 20.9383 102.414 21.0743 102.87 21.3463C103.334 21.6103 103.698 21.9863 103.962 22.4743C104.226 22.9543 104.358 23.5103 104.358 24.1423C104.358 24.1823 104.354 24.2263 104.346 24.2743C104.346 24.3143 104.346 24.3583 104.346 24.4063H98.8616V23.7703H103.89L103.554 24.0223C103.554 23.5663 103.454 23.1623 103.254 22.8103C103.062 22.4503 102.798 22.1703 102.462 21.9703C102.126 21.7703 101.738 21.6703 101.298 21.6703C100.866 21.6703 100.478 21.7703 100.134 21.9703C99.7896 22.1703 99.5216 22.4503 99.3296 22.8103C99.1376 23.1703 99.0416 23.5823 99.0416 24.0463V24.1783C99.0416 24.6583 99.1456 25.0823 99.3536 25.4503C99.5696 25.8103 99.8656 26.0943 100.242 26.3023C100.626 26.5023 101.062 26.6023 101.55 26.6023C101.934 26.6023 102.29 26.5343 102.618 26.3983C102.954 26.2623 103.242 26.0543 103.482 25.7743L103.962 26.3263C103.682 26.6623 103.33 26.9183 102.906 27.0943C102.49 27.2703 102.03 27.3583 101.526 27.3583ZM107.988 27.3583C107.364 27.3583 106.804 27.2223 106.308 26.9503C105.82 26.6703 105.436 26.2903 105.156 25.8103C104.876 25.3223 104.736 24.7663 104.736 24.1423C104.736 23.5103 104.876 22.9543 105.156 22.4743C105.436 21.9943 105.82 21.6183 106.308 21.3463C106.804 21.0743 107.364 20.9383 107.988 20.9383C108.524 20.9383 109.008 21.0423 109.44 21.2503C109.872 21.4583 110.212 21.7703 110.46 22.1863L109.824 22.6183C109.608 22.2983 109.34 22.0623 109.02 21.9103C108.7 21.7583 108.352 21.6823 107.976 21.6823C107.528 21.6823 107.124 21.7863 106.764 21.9943C106.404 22.1943 106.12 22.4783 105.912 22.8463C105.704 23.2143 105.6 23.6463 105.6 24.1423C105.6 24.6383 105.704 25.0703 105.912 25.4383C106.12 25.8063 106.404 26.0943 106.764 26.3023C107.124 26.5023 107.528 26.6023 107.976 26.6023C108.352 26.6023 108.7 26.5263 109.02 26.3743C109.34 26.2223 109.608 25.9903 109.824 25.6783L110.46 26.1103C110.212 26.5183 109.872 26.8303 109.44 27.0463C109.008 27.2543 108.524 27.3583 107.988 27.3583ZM114.536 20.9383C115.048 20.9383 115.496 21.0383 115.88 21.2383C116.272 21.4303 116.576 21.7263 116.792 22.1263C117.016 22.5263 117.128 23.0303 117.128 23.6383V27.2983H116.276V23.7223C116.276 23.0583 116.108 22.5583 115.772 22.2223C115.444 21.8783 114.98 21.7063 114.38 21.7063C113.932 21.7063 113.54 21.7983 113.204 21.9823C112.876 22.1583 112.62 22.4183 112.436 22.7623C112.26 23.0983 112.172 23.5063 112.172 23.9863V27.2983H111.32V18.3943H112.172V22.7263L112.004 22.4023C112.204 21.9463 112.524 21.5903 112.964 21.3343C113.404 21.0703 113.928 20.9383 114.536 20.9383Z" fill="white" fill-opacity="0.7"/>
<defs>
<linearGradient id="paint0_linear_325_3757" x1="32.5" y1="9.5" x2="21.8203" y2="24.2489" gradientUnits="userSpaceOnUse">
<stop stop-color="#9DE8EE"/>
<stop offset="0.0001" stop-color="#9DE8EE"/>
<stop offset="1" stop-color="#B9FF66"/>
</linearGradient>
</defs>
</svg>
