<svg width="34" height="18" viewBox="0 0 34 18" fill="none" xmlns="http://www.w3.org/2000/svg">
<path fill-rule="evenodd" clip-rule="evenodd" d="M10.6316 8.88549C10.5022 9.50398 10.3688 10.1415 10.4386 10.7369L10.1263 10.7592C9.98824 9.40631 8.84545 8.35079 7.45612 8.35079C5.97367 8.35079 4.77191 9.55255 4.77191 11.035C4.77191 12.5174 5.97367 13.7192 7.45612 13.7192C8.84536 13.7192 9.9881 12.6638 10.1263 11.3111L10.4386 11.3334C10.3705 11.9294 10.506 12.5653 10.6374 13.1817C10.8562 14.208 11.0634 15.1802 10.2998 15.8239C9.07748 16.8543 7.50745 17.3782 5.91134 17.2884C4.31523 17.1986 2.81387 16.5019 1.71484 15.3409C0.615809 14.18 0.00230272 12.6428 6.46907e-06 11.0441C-0.00228978 9.4455 0.606798 7.9065 1.70249 6.74242C2.79818 5.57834 4.29753 4.87729 5.89337 4.78291C7.48922 4.68852 9.06075 5.20794 10.286 6.23475C11.0518 6.87653 10.8472 7.85457 10.6316 8.88549Z" fill="white"/>
<path d="M14.9126 4.77197H10.1406V10.7369C14.4354 10.7369 14.9126 6.85969 14.9126 4.77197Z" fill="white"/>
<path d="M14.9126 17.2983H10.1406V11.3334C14.4354 11.3334 14.9126 15.2106 14.9126 17.2983Z" fill="white"/>
<path d="M24.4557 4.79575V8.95454C22.1592 8.47925 20.7152 9.94473 20.2803 10.7369V6.28104C20.9066 4.85516 23.3249 4.69673 24.4557 4.79575Z" fill="white"/>
<path d="M15.5083 4.77197H20.2803V10.7369C15.9855 10.7369 15.5083 6.85969 15.5083 4.77197Z" fill="white"/>
<path d="M15.5083 17.2983H20.2803V11.3334C15.9855 11.3334 15.5083 15.2106 15.5083 17.2983Z" fill="white"/>
<path d="M33.9997 4.79575V8.95454C31.7032 8.47925 30.2592 9.94473 29.8242 10.7369V6.28104C30.4505 4.85516 32.8688 4.69673 33.9997 4.79575Z" fill="white"/>
<path d="M25.0523 4.77197H29.8242V10.7369C25.5295 10.7369 25.0523 6.85969 25.0523 4.77197Z" fill="white"/>
<path d="M25.0523 17.2983H29.8242V11.3334C25.5295 11.3334 25.0523 15.2106 25.0523 17.2983Z" fill="white"/>
<circle cx="15.2108" cy="2.08772" r="2.08772" fill="white"/>
</svg>
