<svg width="45" height="27" viewBox="0 0 45 27" fill="none" xmlns="http://www.w3.org/2000/svg">
<path fill-rule="evenodd" clip-rule="evenodd" d="M18 2V7C18 8.10457 17.1046 9 16 9H11C9.89543 9 9 9.89543 9 11V16C9 17.1046 8.10457 18 7 18H2C0.89543 18 0 18.8954 0 20V25C0 26.1046 0.895431 27 2 27H7C8.10457 27 9 26.1046 9 25V21C9 19.8954 9.89543 19 11 19H16C17.1046 19 18 19.8954 18 21V25C18 26.1046 18.8954 27 20 27H25C26.1046 27 27 26.1046 27 25V21C27 19.8954 27.8954 19 29 19H34C35.1046 19 36 19.8954 36 21V25C36 26.1046 36.8954 27 38 27H43C44.1046 27 45 26.1046 45 25V20C45 18.8954 44.1046 18 43 18H38C36.8954 18 36 17.1046 36 16V11C36 9.89543 35.1046 9 34 9H29C27.8954 9 27 8.10457 27 7V2C27 0.89543 26.1046 0 25 0H20C18.8954 0 18 0.895431 18 2ZM20 9C18.8954 9 18 9.89543 18 11V17C18 18.1046 18.8954 19 20 19H25C26.1046 19 27 18.1046 27 17V11C27 9.89543 26.1046 9 25 9H20Z" fill="url(#paint0_linear_325_3758)"/>
<defs>
<linearGradient id="paint0_linear_325_3758" x1="32.5" y1="9.5" x2="21.8203" y2="24.2489" gradientUnits="userSpaceOnUse">
<stop stop-color="#9DE8EE"/>
<stop offset="0.0001" stop-color="#9DE8EE"/>
<stop offset="1" stop-color="#B9FF66"/>
</linearGradient>
</defs>
</svg>
