<svg width="26" height="10" viewBox="0 0 26 10" fill="none" xmlns="http://www.w3.org/2000/svg">
<path d="M1.272 9.35834C1.096 9.35834 0.944 9.29434 0.816 9.16634C0.696 9.03834 0.636 8.88234 0.636 8.69834C0.636 8.50634 0.696 8.35034 0.816 8.23034C0.944 8.11034 1.096 8.05034 1.272 8.05034C1.448 8.05034 1.596 8.11034 1.716 8.23034C1.844 8.35034 1.908 8.50634 1.908 8.69834C1.908 8.88234 1.844 9.03834 1.716 9.16634C1.596 9.29434 1.448 9.35834 1.272 9.35834ZM4.90922 9.35834C4.31722 9.35834 3.86122 9.19834 3.54122 8.87834C3.22122 8.55834 3.06122 8.10634 3.06122 7.52234V1.60634H3.91322V7.47434C3.91322 7.84234 4.00522 8.12634 4.18922 8.32634C4.38122 8.52634 4.65322 8.62634 5.00522 8.62634C5.38122 8.62634 5.69322 8.51834 5.94122 8.30234L6.24122 8.91434C6.07322 9.06634 5.86922 9.17834 5.62922 9.25034C5.39722 9.32234 5.15722 9.35834 4.90922 9.35834ZM1.93322 3.70634V2.99834H5.83322V3.70634H1.93322ZM9.52556 9.35834C8.86956 9.35834 8.29356 9.22234 7.79756 8.95034C7.30156 8.67034 6.91356 8.29034 6.63356 7.81034C6.35356 7.32234 6.21356 6.76634 6.21356 6.14234C6.21356 5.51834 6.34556 4.96634 6.60956 4.48634C6.88156 4.00634 7.24956 3.63034 7.71356 3.35834C8.18556 3.07834 8.71356 2.93834 9.29756 2.93834C9.88956 2.93834 10.4136 3.07434 10.8696 3.34634C11.3336 3.61034 11.6976 3.98634 11.9616 4.47434C12.2256 4.95434 12.3576 5.51034 12.3576 6.14234C12.3576 6.18234 12.3536 6.22634 12.3456 6.27434C12.3456 6.31434 12.3456 6.35834 12.3456 6.40634H6.86156V5.77034H11.8896L11.5536 6.02234C11.5536 5.56634 11.4536 5.16234 11.2536 4.81034C11.0616 4.45034 10.7976 4.17034 10.4616 3.97034C10.1256 3.77034 9.73756 3.67034 9.29756 3.67034C8.86556 3.67034 8.47756 3.77034 8.13356 3.97034C7.78956 4.17034 7.52156 4.45034 7.32956 4.81034C7.13756 5.17034 7.04156 5.58234 7.04156 6.04634V6.17834C7.04156 6.65834 7.14556 7.08234 7.35356 7.45034C7.56956 7.81034 7.86556 8.09434 8.24156 8.30234C8.62556 8.50234 9.06156 8.60234 9.54956 8.60234C9.93356 8.60234 10.2896 8.53434 10.6176 8.39834C10.9536 8.26234 11.2416 8.05434 11.4816 7.77434L11.9616 8.32634C11.6816 8.66234 11.3296 8.91834 10.9056 9.09434C10.4896 9.27034 10.0296 9.35834 9.52556 9.35834ZM15.9878 9.35834C15.3638 9.35834 14.8038 9.22234 14.3078 8.95034C13.8198 8.67034 13.4358 8.29034 13.1558 7.81034C12.8758 7.32234 12.7358 6.76634 12.7358 6.14234C12.7358 5.51034 12.8758 4.95434 13.1558 4.47434C13.4358 3.99434 13.8198 3.61834 14.3078 3.34634C14.8038 3.07434 15.3638 2.93834 15.9878 2.93834C16.5238 2.93834 17.0078 3.04234 17.4398 3.25034C17.8718 3.45834 18.2118 3.77034 18.4598 4.18634L17.8238 4.61834C17.6078 4.29834 17.3398 4.06234 17.0198 3.91034C16.6998 3.75834 16.3518 3.68234 15.9758 3.68234C15.5278 3.68234 15.1238 3.78634 14.7638 3.99434C14.4038 4.19434 14.1198 4.47834 13.9118 4.84634C13.7038 5.21434 13.5998 5.64634 13.5998 6.14234C13.5998 6.63834 13.7038 7.07034 13.9118 7.43834C14.1198 7.80634 14.4038 8.09434 14.7638 8.30234C15.1238 8.50234 15.5278 8.60234 15.9758 8.60234C16.3518 8.60234 16.6998 8.52634 17.0198 8.37434C17.3398 8.22234 17.6078 7.99034 17.8238 7.67834L18.4598 8.11034C18.2118 8.51834 17.8718 8.83034 17.4398 9.04634C17.0078 9.25434 16.5238 9.35834 15.9878 9.35834ZM22.5357 2.93834C23.0477 2.93834 23.4957 3.03834 23.8797 3.23834C24.2717 3.43034 24.5757 3.72634 24.7917 4.12634C25.0157 4.52634 25.1277 5.03034 25.1277 5.63834V9.29834H24.2757V5.72234C24.2757 5.05834 24.1077 4.55834 23.7717 4.22234C23.4437 3.87834 22.9797 3.70634 22.3797 3.70634C21.9317 3.70634 21.5397 3.79834 21.2037 3.98234C20.8757 4.15834 20.6197 4.41834 20.4357 4.76234C20.2597 5.09834 20.1717 5.50634 20.1717 5.98634V9.29834H19.3197V0.394339H20.1717V4.72634L20.0037 4.40234C20.2037 3.94634 20.5237 3.59034 20.9637 3.33434C21.4037 3.07034 21.9277 2.93834 22.5357 2.93834Z" fill="white" fill-opacity="0.7"/>
</svg>
